<svg xmlns="http://www.w3.org/2000/svg" xmlns:xlink="http://www.w3.org/1999/xlink" id="Layer_1" x="0" y="0" enable-background="new 0 0 245 36" version="1.1" viewBox="0 0 245 36" xml:space="preserve"><style type="text/css">.st0{fill:#fff}.st1{fill:#ee7725}</style><path d="M35.5,0.5v35h-35v-35H35.5 M36,0H0v36h36V0L36,0z M11.5,14.8c0-5.7,0-6.8-0.1-8c-0.1-1.3-0.4-1.9-1.6-2.1	C9.5,4.6,8.9,4.6,8.4,4.6C8,4.6,7.7,4.5,7.7,4.2S8,3.9,8.6,3.9c2,0,4.4,0.1,5.4,0.1c1.5,0,3.7-0.1,5.4-0.1c4.7,0,6.4,1.6,7,2.1	c0.8,0.8,1.9,2.5,1.9,4.5c0,5.3-3.9,9.1-9.2,9.1c-0.2,0-0.6,0-0.8,0c-0.2,0-0.5-0.1-0.5-0.3c0-0.3,0.3-0.4,1.1-0.4	c2.1,0,5-2.4,5-6.2c0-1.2-0.1-3.8-2.2-5.6c-1.4-1.2-2.9-1.5-3.8-1.5c-0.6,0-1.1,0-1.5,0.2c-0.2,0.1-0.3,0.3-0.3,0.7v15	c0,3.5,0,6.4,0.2,8c0.1,1.1,0.3,1.9,1.5,2c0.5,0.1,1.4,0.2,1.9,0.2c0.4,0,0.6,0.1,0.6,0.3c0,0.3-0.3,0.4-0.7,0.4	c-2.5,0-4.8-0.1-5.8-0.1c-0.9,0-3.2,0.1-4.7,0.1c-0.5,0-0.8-0.1-0.8-0.4c0-0.2,0.2-0.3,0.6-0.3c0.6,0,1-0.1,1.4-0.2	c0.8-0.2,0.9-1,1.1-2.1c0.2-1.6,0.2-4.5,0.2-8V14.8z" class="st0"/><g><rect width="1.2" height="36" x="42.9" class="st1"/></g><path d="M231.7,19.7h-4.3v1.1h1.4v7.3h1.5v-7.3h1.4V19.7z M221.4,19.7h-3.5v8.5h3.5V27h-2v-2.8h1.6v-1.1h-1.6v-2.4h2	V19.7z M209.8,19.7h-3.5v8.5h3.5V27h-2v-2.8h1.6v-1.1h-1.6v-2.4h2V19.7z M58.2,28.1h2.4V17.8h-5.5v2.4h2.2v1.7	c0,0.6-0.1,1.1-0.1,1.6c-0.1,0.4-0.2,0.8-0.4,1.2c-0.2,0.4-0.4,0.6-0.7,0.8s-0.7,0.2-1.1,0.2c-0.8,0-1.4-0.3-1.7-0.8	c-0.3-0.6-0.5-1.5-0.5-2.7v-8.2c0-0.4,0-0.6,0-0.8s0-0.5,0.1-0.7c0-0.3,0.1-0.5,0.1-0.7c0.1-0.2,0.1-0.4,0.2-0.5	c0.1-0.2,0.2-0.4,0.4-0.4c0.1-0.1,0.4-0.2,0.5-0.2c0.2-0.1,0.5-0.1,0.7-0.1c0.4,0,0.7,0.1,0.9,0.1c0.2,0.1,0.5,0.2,0.6,0.4	c0.1,0.2,0.2,0.4,0.4,0.7c0.1,0.3,0.1,0.6,0.1,0.9s0.1,0.7,0.1,1.1v1.1h3.5v-1c0-2-0.4-3.5-1.3-4.4c-0.9-1-2.3-1.5-4.3-1.5	c-1.1,0-2,0.2-2.8,0.5c-0.8,0.3-1.4,0.8-1.8,1.4c-0.4,0.7-0.7,1.4-0.9,2.2c-0.2,0.8-0.3,1.8-0.3,3v6.6c0,2.3,0.4,4,1.2,5.2	c0.8,1.2,2.2,1.8,4.1,1.8c1.7,0,2.8-0.8,3.4-2.3L58.2,28.1z M70.9,13.4c0,1.1-0.2,1.9-0.7,2.4c-0.5,0.5-1.2,0.7-2.3,0.7H67v-6.1h1.1	c1.1,0,1.8,0.2,2.2,0.7C70.7,11.6,70.9,12.4,70.9,13.4 M74.8,28.1L72,18.2c0.9-0.4,1.5-0.9,1.9-1.8c0.4-0.8,0.6-1.8,0.6-3.1	c0-1-0.1-1.9-0.4-2.6S73.3,9.4,72.8,9c-0.6-0.4-1.2-0.7-2-0.9C70,8,69.1,7.9,68.1,7.9h-4.6v20.2h3.7v-9.2h1.7l2.4,9.2H74.8z M83.5,21h-2.7l1.4-8.3L83.5,21z M84.7,28.1h3.4L84.1,7.9h-3.8l-4.1,20.2h3.5l0.8-4.7H84L84.7,28.1z M89.5,28.1h9.1v-2.5H93	l5.6-15.8V7.9h-8.9v2.5h5.1l-5.3,15.3V28.1z M100.9,28.1h3.6V7.9h-3.6V28.1z M113.9,21h-2.7l1.4-8.3L113.9,21z M115.1,28.1h3.4	l-4.1-20.2h-3.8l-4.1,20.2h3.5l0.8-4.7h3.5L115.1,28.1z M127.9,21.4c0,0.5,0,0.8,0,1.1c0,0.2,0,0.5-0.1,0.9	c-0.1,0.4-0.1,0.6-0.1,0.8s-0.2,0.4-0.3,0.5c-0.1,0.2-0.3,0.4-0.5,0.4c-0.2,0.1-0.4,0.2-0.7,0.2s-0.6,0.1-0.9,0.1h-1.1V10.6h1	c0.4,0,0.8,0,1.1,0.1c0.3,0.1,0.5,0.1,0.7,0.3c0.2,0.1,0.4,0.3,0.5,0.5c0.1,0.2,0.2,0.4,0.3,0.7c0.1,0.3,0.1,0.6,0.1,0.9	s0,0.7,0,1.2V21.4z M131.3,24.4c0.2-0.8,0.3-1.8,0.3-3v-7.3c0-1.1-0.1-2.1-0.3-2.8c-0.2-0.8-0.5-1.4-1.1-2c-0.5-0.5-1.2-0.9-2-1.2	c-0.8-0.2-1.8-0.4-3.1-0.4h-4.7v20.2h4.8c1.2,0,2.1-0.1,3-0.4c0.8-0.2,1.4-0.7,2-1.2C130.8,25.9,131.1,25.2,131.3,24.4 M134.5,28.1	h3.6V7.9h-3.6V28.1z M148.8,22.6c0,0.4,0,0.7-0.1,1c0,0.3-0.1,0.5-0.2,0.8c-0.1,0.3-0.2,0.5-0.4,0.7c-0.2,0.2-0.4,0.3-0.6,0.4	s-0.5,0.2-0.9,0.2s-0.7-0.1-0.9-0.2c-0.2-0.1-0.5-0.2-0.6-0.4c-0.1-0.2-0.2-0.4-0.4-0.7c-0.1-0.3-0.1-0.5-0.2-0.8	c0-0.3-0.1-0.6-0.1-1v-9.2c0-0.5,0-0.9,0.1-1.2s0.1-0.7,0.3-0.9c0.1-0.3,0.4-0.5,0.7-0.7c0.3-0.1,0.7-0.2,1.1-0.2	c0.4,0,0.8,0.1,1.1,0.2c0.3,0.1,0.5,0.4,0.7,0.7c0.1,0.3,0.2,0.6,0.3,0.9c0.1,0.3,0.1,0.7,0.1,1.2L148.8,22.6L148.8,22.6z M152.2,24.4c0.2-0.8,0.3-1.7,0.3-2.8v-7.4c0-2.1-0.5-3.8-1.4-4.9c-0.9-1.1-2.4-1.7-4.5-1.7c-1.1,0-2,0.1-2.7,0.4	c-0.8,0.3-1.4,0.7-1.8,1.3c-0.5,0.6-0.8,1.2-1,2.1c-0.2,0.8-0.3,1.7-0.3,2.8v7.4c0,2.2,0.5,3.8,1.4,5c0.9,1.1,2.4,1.7,4.5,1.7	c1.1,0,2-0.2,2.7-0.5c0.8-0.3,1.4-0.8,1.8-1.4C151.7,26,152,25.3,152.2,24.4 M160.8,16.1c0.4-0.4,0.6-0.9,0.6-1.5	c0-0.3-0.1-0.5-0.1-0.8c-0.1-0.2-0.2-0.5-0.3-0.7c-0.1-0.2-0.2-0.4-0.4-0.5c-0.1-0.2-0.3-0.3-0.5-0.5l-1.1-0.9	c-0.2-0.2-0.4-0.4-0.5-0.6c-0.1-0.2-0.2-0.4-0.2-0.7c0-0.2,0.1-0.4,0.2-0.5c0.1-0.1,0.3-0.2,0.5-0.2c0.1,0,0.2,0,0.4,0.1	c0.1,0.1,0.2,0.1,0.2,0.2c0.1,0.1,0.1,0.2,0.1,0.3c0.1,0.1,0.1,0.2,0.1,0.4c0,0.1,0,0.3,0.1,0.5l1.3-0.2c0-0.2-0.1-0.5-0.1-0.7	c-0.1-0.2-0.1-0.4-0.2-0.7c-0.1-0.2-0.2-0.4-0.4-0.5c-0.2-0.1-0.4-0.2-0.6-0.3c-0.2-0.1-0.5-0.1-0.8-0.1c-0.7,0-1.2,0.2-1.6,0.5	c-0.4,0.4-0.6,0.9-0.6,1.5c0,0.5,0.1,0.8,0.2,1.2c0.2,0.3,0.4,0.6,0.7,0.9l1.1,0.9c0.2,0.2,0.4,0.4,0.5,0.5c0.1,0.1,0.2,0.3,0.3,0.5	c0.1,0.2,0.1,0.4,0.1,0.7c0,0.2-0.1,0.4-0.2,0.6c-0.1,0.1-0.3,0.2-0.5,0.2c-0.6,0-0.9-0.5-0.9-1.7l-1.4,0.3c0.1,1.7,0.9,2.6,2.4,2.6	C159.9,16.7,160.5,16.5,160.8,16.1 M159.8,25.2h-1.1l0.6-3.5L159.8,25.2z M160.4,28.1h1.4l-1.7-8.5h-1.6l-1.7,8.5h1.5l0.4-2h1.5	L160.4,28.1z M166.9,14.9c0.1-0.2,0.1-0.5,0.1-0.8v-0.7h-1.5v0.8c0,0.1,0,0.2,0,0.3s0,0.2,0,0.3s0,0.2-0.1,0.2	c0,0.1-0.1,0.1-0.1,0.2c-0.1,0.1-0.1,0.1-0.1,0.2c-0.1,0.1-0.1,0.1-0.2,0.1c-0.1,0-0.2,0.1-0.3,0.1c-0.3,0-0.5-0.1-0.7-0.3	c-0.1-0.2-0.2-0.6-0.2-1.1v-3.6c0-0.2,0-0.3,0-0.4c0-0.1,0-0.2,0.1-0.4c0-0.1,0.1-0.2,0.1-0.3c0.1-0.1,0.1-0.1,0.2-0.2	c0.1-0.1,0.1-0.1,0.2-0.1c0.1-0.1,0.2-0.1,0.4-0.1h0.1c0.4,0,0.5,0.2,0.7,0.5c0.1,0.1,0.1,0.4,0.1,0.8v0.7h1.5v-0.7	c0-0.4-0.1-0.7-0.1-1c-0.1-0.3-0.2-0.5-0.4-0.8c-0.2-0.2-0.4-0.4-0.7-0.5C165.4,8,165.1,8,164.7,8c-0.4,0-0.7,0.1-0.9,0.1	c-0.3,0.1-0.5,0.2-0.7,0.4c-0.2,0.2-0.4,0.4-0.4,0.6c-0.1,0.2-0.2,0.5-0.2,0.8c-0.1,0.3-0.1,0.6-0.1,1v3c0,0.4,0,0.7,0.1,0.9	c0.1,0.3,0.1,0.5,0.2,0.8c0.1,0.2,0.2,0.5,0.5,0.6c0.2,0.2,0.4,0.3,0.7,0.4c0.3,0.1,0.6,0.1,0.9,0.1c0.4,0,0.7-0.1,0.9-0.1	c0.2-0.1,0.5-0.2,0.7-0.4c0.2-0.1,0.3-0.4,0.4-0.5C166.7,15.5,166.8,15.2,166.9,14.9 M166,28.1h1v-8.5h-1.3v4.8l-2.1-4.8h-1.1v8.5	h1.3v-5L166,28.1z M171.2,16.6h1.5V8.1h-1.5v3.5h-1.7V8.1H168v8.5h1.5v-3.8h1.7V16.6z M171.4,25.3c0,0.2,0,0.4,0,0.5	c0,0.1,0,0.2,0,0.4c0,0.1-0.1,0.2-0.1,0.3s-0.1,0.2-0.1,0.2c-0.1,0.1-0.1,0.1-0.2,0.2c-0.1,0.1-0.2,0.1-0.3,0.1	c-0.1,0-0.2,0.1-0.4,0.1h-0.4v-6.3h0.4c0.2,0,0.3,0,0.5,0.1c0.1,0,0.2,0.1,0.3,0.1c0.1,0.1,0.1,0.1,0.2,0.2s0.1,0.2,0.1,0.3	c0,0.1,0.1,0.2,0.1,0.4c0,0.1,0,0.3,0,0.5L171.4,25.3L171.4,25.3z M172.8,26.6c0.1-0.4,0.1-0.8,0.1-1.2v-3.1c0-0.5-0.1-0.9-0.1-1.2	c-0.1-0.3-0.2-0.6-0.4-0.8c-0.2-0.2-0.5-0.4-0.8-0.5s-0.8-0.2-1.3-0.2h-2V28h2c0.5,0,0.9-0.1,1.2-0.2c0.4-0.1,0.6-0.3,0.8-0.5	C172.6,27.2,172.7,26.9,172.8,26.6 M177.3,14.3c0,0.2,0,0.3,0,0.4c0,0.1-0.1,0.2-0.1,0.4c-0.1,0.1-0.1,0.2-0.2,0.3	c-0.1,0.1-0.1,0.1-0.2,0.2c-0.1,0.1-0.2,0.1-0.4,0.1s-0.3,0-0.4-0.1c-0.1-0.1-0.2-0.1-0.2-0.2c-0.1-0.1-0.1-0.2-0.1-0.3	c-0.1-0.1-0.1-0.2-0.1-0.4c0-0.1,0-0.2,0-0.4v-3.8c0-0.2,0-0.4,0.1-0.5c0-0.1,0.1-0.3,0.1-0.4c0.1-0.1,0.1-0.2,0.3-0.3	c0.1-0.1,0.3-0.1,0.5-0.1c0.2,0,0.4,0.1,0.5,0.1c0.1,0.1,0.2,0.2,0.3,0.3c0.1,0.1,0.1,0.2,0.1,0.4c0,0.1,0.1,0.3,0.1,0.5v3.8H177.3z M178.7,15c0.1-0.4,0.1-0.7,0.1-1.2v-3.1c0-0.9-0.2-1.6-0.6-2.1c-0.4-0.5-1-0.7-1.9-0.7c-0.5,0-0.8,0.1-1.1,0.2	c-0.3,0.1-0.6,0.3-0.8,0.5s-0.4,0.5-0.4,0.9c-0.1,0.4-0.1,0.7-0.1,1.2v3.1c0,0.9,0.2,1.6,0.6,2.1c0.4,0.5,1,0.7,1.9,0.7	c0.5,0,0.8-0.1,1.1-0.2c0.3-0.1,0.6-0.3,0.8-0.5C178.5,15.7,178.6,15.4,178.7,15 M180.9,19.7l-1.2,6l-1.2-6h-1.6l-0.1,8.5h1.2	l0.1-5.9l1.2,5.9h0.9l1.2-5.9l0.1,5.9h1.2l-0.1-8.5C182.5,19.7,180.9,19.7,180.9,19.7z M183.1,14.3c0,0.2,0,0.3,0,0.4	c0,0.1-0.1,0.2-0.1,0.4c-0.1,0.1-0.1,0.2-0.1,0.3c-0.1,0.1-0.2,0.1-0.2,0.2c-0.1,0.1-0.2,0.1-0.4,0.1s-0.3,0-0.4-0.1	c-0.1-0.1-0.2-0.1-0.2-0.2c-0.1-0.1-0.1-0.2-0.1-0.3c-0.1-0.1-0.1-0.2-0.1-0.4c0-0.1,0-0.2,0-0.4v-3.8c0-0.2,0-0.4,0.1-0.5	c0-0.1,0.1-0.3,0.1-0.4c0.1-0.1,0.2-0.2,0.3-0.3s0.3-0.1,0.5-0.1c0.2,0,0.4,0.1,0.5,0.1c0.1,0.1,0.2,0.2,0.3,0.3	c0.1,0.1,0.1,0.2,0.1,0.4c0,0.1,0.1,0.3,0.1,0.5v3.8H183.1z M184.6,15c0.1-0.4,0.1-0.7,0.1-1.2v-3.1c0-0.9-0.2-1.6-0.6-2.1	c-0.4-0.5-1-0.7-1.9-0.7c-0.5,0-0.8,0.1-1.1,0.2c-0.3,0.1-0.6,0.3-0.8,0.5s-0.4,0.5-0.4,0.9c-0.1,0.4-0.1,0.7-0.1,1.2v3.1	c0,0.9,0.2,1.6,0.6,2.1c0.4,0.5,1,0.7,1.9,0.7c0.5,0,0.8-0.1,1.1-0.2c0.3-0.1,0.6-0.3,0.8-0.5S184.5,15.4,184.6,15 M186.5,25.2h-1.1	l0.6-3.5L186.5,25.2z M186.7,19.7h-1.7l-1.7,8.5h1.5l0.4-2h1.5l0.4,2h1.4L186.7,19.7z M185.8,16.6h3.5v-1.1h-2V8.1h-1.5V16.6z M192.4,19.7v4.8l-2.1-4.8h-1.1v8.5h1.3v-5l2.1,5h1v-8.5H192.4z M196,14.3c0,0.2,0,0.3,0,0.4c0,0.1-0.1,0.2-0.1,0.4	c-0.1,0.1-0.1,0.2-0.1,0.3c-0.1,0.1-0.2,0.1-0.2,0.2c-0.1,0.1-0.2,0.1-0.4,0.1s-0.3,0-0.4-0.1s-0.2-0.1-0.2-0.2	c-0.1-0.1-0.1-0.2-0.1-0.3c-0.1-0.1-0.1-0.2-0.1-0.4c0-0.1,0-0.2,0-0.4v-3.8c0-0.2,0-0.4,0.1-0.5c0-0.1,0.1-0.3,0.1-0.4	c0.1-0.1,0.2-0.2,0.3-0.3c0.1-0.1,0.3-0.1,0.5-0.1c0.2,0,0.4,0.1,0.5,0.1c0.1,0.1,0.2,0.2,0.3,0.3c0.1,0.1,0.1,0.2,0.1,0.4	c0,0.1,0.1,0.3,0.1,0.5v3.8H196z M197.4,15c0.1-0.4,0.1-0.7,0.1-1.2v-3.1c0-0.9-0.2-1.6-0.6-2.1c-0.4-0.5-1-0.7-1.9-0.7	c-0.5,0-0.8,0.1-1.1,0.2c-0.3,0.1-0.6,0.3-0.8,0.5s-0.4,0.5-0.4,0.9c-0.1,0.4-0.1,0.7-0.1,1.2v3.1c0,0.9,0.2,1.6,0.6,2.1	c0.4,0.5,1,0.7,1.9,0.7c0.4,0,0.8-0.1,1.1-0.2c0.3-0.1,0.6-0.3,0.8-0.5C197.2,15.7,197.3,15.4,197.4,15 M197.6,25.2h-1.1l0.6-3.5	L197.6,25.2z M199.5,28.1l-1.7-8.5h-1.6l-1.7,8.5h1.5l0.4-2h1.5l0.4,2H199.5z M200.2,9.2h2V8.1h-3.5v8.5h1.5v-3.8h1.5v-1.1h-1.5V9.2	z M204,28.1h1v-4.3h-2.3v1h0.9v0.7c0,0.2,0,0.5-0.1,0.7c-0.1,0.2-0.1,0.4-0.2,0.5c-0.1,0.1-0.2,0.2-0.3,0.3	c-0.1,0.1-0.3,0.1-0.5,0.1c-0.4,0-0.6-0.1-0.7-0.4c-0.1-0.2-0.2-0.6-0.2-1.1v-3.4c0-0.1,0-0.2,0-0.4c0-0.1,0-0.2,0-0.3	c0-0.1,0.1-0.2,0.1-0.3c0-0.1,0.1-0.2,0.1-0.2c0.1-0.1,0.1-0.1,0.2-0.2c0.1-0.1,0.1-0.1,0.2-0.1c0.1-0.1,0.2-0.1,0.3-0.1	c0.2,0,0.3,0,0.4,0.1s0.2,0.1,0.2,0.2c0.1,0.1,0.1,0.2,0.1,0.3c0.1,0.1,0.1,0.2,0.1,0.4c0,0.1,0,0.3,0,0.5v0.4h1.5V22	c0-0.8-0.2-1.5-0.5-1.9s-0.9-0.6-1.8-0.6c-0.5,0-0.8,0.1-1.2,0.2c-0.3,0.1-0.6,0.4-0.8,0.6s-0.3,0.6-0.4,0.9	c-0.1,0.4-0.1,0.8-0.1,1.2v2.8c0,0.9,0.2,1.7,0.5,2.2s0.9,0.8,1.7,0.8c0.7,0,1.2-0.3,1.4-0.9L204,28.1z M208.9,14.1	c0,0.5-0.1,0.8-0.3,1.1s-0.5,0.3-0.9,0.3h-0.6v-2.8h0.5c0.5,0,0.8,0.1,1,0.4C208.8,13.2,208.9,13.6,208.9,14.1 M208.8,10.3	c0,0.5-0.1,0.8-0.2,1c-0.2,0.2-0.5,0.3-0.9,0.3h-0.5V9.2h0.2c0.3,0,0.5,0,0.7,0.1c0.2,0,0.3,0.1,0.5,0.2c0.1,0.1,0.2,0.2,0.3,0.4	C208.7,9.8,208.8,10,208.8,10.3 M209.9,12.7c-0.2-0.4-0.7-0.6-1.1-0.7c0.8-0.1,1.2-0.7,1.2-1.8c0-0.4-0.1-0.8-0.2-1.1	c-0.1-0.3-0.3-0.5-0.5-0.7c-0.2-0.2-0.5-0.3-0.8-0.4c-0.3-0.1-0.7-0.1-1-0.1h-2.1v8.5h2.4c0.8,0,1.4-0.2,1.8-0.7	c0.4-0.4,0.6-1,0.6-1.8C210.4,13.5,210.2,13,209.9,12.7 M216,14.7c0.1-0.3,0.1-0.7,0.1-1V8.1h-1.5v5.7c0,0.2,0,0.4,0,0.5	c0,0.1-0.1,0.3-0.1,0.4c-0.1,0.2-0.1,0.3-0.1,0.4c-0.1,0.1-0.1,0.2-0.2,0.2s-0.2,0.1-0.4,0.1s-0.3-0.1-0.4-0.1	c-0.1-0.1-0.2-0.1-0.2-0.2c-0.1-0.1-0.1-0.2-0.1-0.4c-0.1-0.2-0.1-0.3-0.1-0.4c0-0.1,0-0.3,0-0.5V8.1h-1.5v5.6c0,0.4,0,0.7,0.1,1	s0.1,0.6,0.2,0.8c0.1,0.2,0.2,0.5,0.4,0.6c0.2,0.2,0.4,0.3,0.7,0.4c0.3,0.1,0.6,0.1,1,0.1c0.4,0,0.7-0.1,1-0.1	c0.3-0.1,0.5-0.2,0.7-0.4c0.2-0.2,0.3-0.4,0.4-0.6C215.9,15.3,215.9,15,216,14.7 M215.4,28.1h1.2l-0.2-8.5h-1.5l-1.2,6l-1.2-6h-1.6	l-0.1,8.5h1.2l0.1-5.9l1.2,5.9h0.9l1.2-5.9L215.4,28.1z M220.9,16.1c0.4-0.4,0.6-0.9,0.6-1.5c0-0.3-0.1-0.5-0.1-0.8	c-0.1-0.2-0.2-0.5-0.3-0.7c-0.1-0.2-0.2-0.4-0.4-0.5c-0.1-0.2-0.3-0.3-0.5-0.5l-1.1-0.9c-0.2-0.2-0.4-0.4-0.5-0.6	c-0.1-0.2-0.2-0.4-0.2-0.7c0-0.2,0.1-0.4,0.2-0.5c0.1-0.1,0.3-0.2,0.5-0.2c0.1,0,0.2,0,0.4,0.1c0.1,0.1,0.2,0.1,0.2,0.2	c0.1,0.1,0.1,0.2,0.1,0.3c0.1,0.1,0.1,0.2,0.1,0.4c0,0.1,0,0.3,0.1,0.5l1.3-0.2c0-0.2-0.1-0.5-0.1-0.7c-0.1-0.2-0.1-0.4-0.2-0.7	c-0.1-0.2-0.2-0.4-0.4-0.5c-0.2-0.1-0.4-0.2-0.6-0.3c-0.2-0.1-0.5-0.1-0.8-0.1c-0.7,0-1.2,0.2-1.6,0.5c-0.4,0.4-0.6,0.9-0.6,1.5	c0,0.5,0.1,0.8,0.2,1.2c0.2,0.3,0.4,0.6,0.7,0.9l1.1,0.9c0.2,0.2,0.4,0.4,0.5,0.5c0.1,0.1,0.2,0.3,0.3,0.5c0.1,0.2,0.1,0.4,0.1,0.7	c0,0.2-0.1,0.4-0.2,0.6c-0.1,0.1-0.3,0.2-0.5,0.2c-0.6,0-0.9-0.5-0.9-1.7l-1.4,0.3c0.1,1.7,0.9,2.6,2.4,2.6	C220,16.7,220.5,16.5,220.9,16.1 M223.3,19.7h-1.1v8.5h1.3v-5l2.1,5h1v-8.5h-1.3v4.8L223.3,19.7z M222.5,16.6h1.5V8.1h-1.5V16.6z M228.7,16.6h1V8.1h-1.3v4.8l-2.1-4.8h-1.1v8.5h1.3v-5L228.7,16.6z M231,16.6h3.5v-1.1h-2v-2.8h1.6v-1.1h-1.6V9.3h2V8.2H231V16.6z M239.1,16.1c0.4-0.4,0.6-0.9,0.6-1.5c0-0.3-0.1-0.5-0.1-0.8c-0.1-0.2-0.2-0.5-0.3-0.7c-0.1-0.2-0.2-0.4-0.4-0.5	c-0.1-0.2-0.3-0.3-0.5-0.5l-1.1-0.9c-0.2-0.2-0.4-0.4-0.5-0.6c-0.1-0.2-0.2-0.4-0.2-0.7c0-0.2,0.1-0.4,0.2-0.5	c0.1-0.1,0.3-0.2,0.5-0.2c0.1,0,0.2,0,0.4,0.1c0.1,0.1,0.2,0.1,0.2,0.2c0.1,0.1,0.1,0.2,0.1,0.3c0.1,0.1,0.1,0.2,0.1,0.4	c0,0.1,0,0.3,0.1,0.5l1.3-0.2c0-0.2-0.1-0.5-0.1-0.7c-0.1-0.2-0.1-0.4-0.2-0.7c-0.1-0.2-0.2-0.4-0.4-0.5c-0.2-0.1-0.4-0.2-0.6-0.3	c-0.2-0.1-0.5-0.1-0.8-0.1c-0.7,0-1.2,0.2-1.6,0.5c-0.4,0.4-0.6,0.9-0.6,1.5c0,0.5,0.1,0.8,0.2,1.2c0.2,0.3,0.4,0.6,0.7,0.9l1.1,0.9	c0.2,0.2,0.4,0.4,0.5,0.5c0.1,0.1,0.2,0.3,0.3,0.5c0.1,0.2,0.1,0.4,0.1,0.7c0,0.2-0.1,0.4-0.2,0.6c-0.1,0.1-0.3,0.2-0.5,0.2	c-0.6,0-0.9-0.5-0.9-1.7l-1.4,0.3c0.1,1.7,0.9,2.6,2.4,2.6C238.2,16.7,238.7,16.5,239.1,16.1 M241.9,10.6c-0.1-0.2-0.2-0.4-0.2-0.7	s0.1-0.4,0.2-0.5c0.1-0.1,0.3-0.2,0.5-0.2c0.1,0,0.2,0,0.4,0.1c0.1,0.1,0.2,0.1,0.2,0.2c0.1,0.1,0.1,0.2,0.1,0.3	c0.1,0.1,0.1,0.2,0.1,0.4c0,0.1,0,0.3,0.1,0.5l1.3-0.2c0-0.2-0.1-0.5-0.1-0.7c-0.1-0.2-0.1-0.4-0.2-0.7c-0.1-0.2-0.2-0.4-0.4-0.5	c-0.2-0.1-0.4-0.2-0.6-0.3C243,8.1,242.7,8,242.4,8c-0.7,0-1.2,0.2-1.6,0.5c-0.4,0.4-0.6,0.9-0.6,1.5c0,0.5,0.1,0.8,0.2,1.2	c0.2,0.3,0.4,0.6,0.7,0.9l1.1,0.9c0.2,0.2,0.4,0.4,0.5,0.5c0.1,0.1,0.2,0.3,0.3,0.5c0.1,0.2,0.1,0.4,0.1,0.7c0,0.2-0.1,0.4-0.2,0.6	c-0.1,0.1-0.3,0.2-0.5,0.2c-0.6,0-0.9-0.5-0.9-1.7l-1.4,0.3c0.1,1.7,0.9,2.6,2.4,2.6c0.7,0,1.1-0.2,1.5-0.6c0.4-0.4,0.6-0.9,0.6-1.5	c0-0.3-0.1-0.5-0.1-0.8c-0.1-0.2-0.2-0.5-0.3-0.7c-0.1-0.2-0.2-0.4-0.4-0.5c-0.1-0.2-0.3-0.3-0.5-0.5l-1.1-0.9	C242.2,11,242,10.8,241.9,10.6" class="st0"/></svg>