<?xml version="1.0" encoding="utf-8"?>
<!-- Generator: Adobe Illustrator 20.0.0, SVG Export Plug-In . SVG Version: 6.00 Build 0)  -->
<svg version="1.1" id="Layer_1" xmlns="http://www.w3.org/2000/svg" xmlns:xlink="http://www.w3.org/1999/xlink" x="0px" y="0px"
	 viewBox="0 0 685 60" style="enable-background:new 0 0 685 60;" xml:space="preserve">
<style type="text/css">
	.st0{fill:#EE7623;}
	.st1{fill:#FFFFFF;}
</style>
<g>
	<rect x="237.7" class="st0" width="2" height="60"/>
	<g>
		<path class="st1" d="M21,26.1c1.1-1.9,1.6-3.4,1.6-5c0-0.7-0.1-1.4-0.2-2.2c-0.4-2-2.7-4.8-5.1-5.4l0,0c-2.3-0.7-5.4-0.6-5.5-0.6
			l-3.1,0.2l-1.9,0.1h-1H5.6l-1.4-0.1c0,0,0,0-0.1,0l0,0c0,0-0.9-0.1-0.8-0.1l-1.6-0.1l0,0c-0.6-0.1-1.1-0.1-1.3,0l0,0l0,0
			C0.1,13.1,0,13.2,0,13.5S0.1,14,0.3,14l0,0l0,0c0.3,0.2,1.7,0.1,2.3,0.1h0.2l0.8,0.2l0.1,0.3c0.4,1.3,0.5,5.9,0.6,10.2l0.1,14.3
			c0,1.9,0,2.1,0,2.2l-0.1,0.9c-0.1,1-0.1,2.2-0.2,2.8L4,45.3l-0.3,0.1C3.5,45.7,2.9,46,2.5,46H2.1c-0.8,0-1.1,0-1.3,0.1
			c-0.1,0.1-0.2,0.2-0.2,0.4s0.1,0.4,0.3,0.5s0.5,0.1,1.8,0h0.1H4h2.2h4.3c0,0,1.1,0,1.2,0c0.3-0.1,0.4-0.2,0.4-0.3s0-0.1,0-0.2
			c0-0.1,0-0.2-0.1-0.3c-0.2-0.3-0.3-0.3-0.7-0.3h-0.1H9.9H9.3H9.1L9,45.7l-0.3-0.3l-0.3-1.6l0,0c-0.1-1-0.5-10.5-0.5-13.5v-2.4V28
			c0-3.8,0.1-11.1,0.2-11.8c0.2-1.1,0.6-1.5,2.3-1.6c2-0.2,4.2-0.3,5.8,1.1c1.1,1.1,2.3,2.7,2.3,6.1c0,0.2,0,0.3,0,0.5
			c-0.1,3.4-1.2,4.9-3.1,6.1c-0.7,0.4-2.1,1-4.5,1.2h-0.7c-0.5,0-0.9,0-0.9,0.1l0,0l-0.2,0.2L9,29.8L9.1,30c0.1,0.2,0.4,0.3,0.7,0.4
			c0.9,0,3.6-0.1,4-0.1C17.6,29.7,19.8,27.7,21,26.1 M39.3,32.4L39.3,32.4L39.3,32.4L39.3,32.4z M43.2,39.9
			c-0.2-0.2-0.4-0.2-0.5-0.2c-0.2,0-0.3,0.1-0.3,0.3l-0.1,0.5l-0.5,1.6v0.1l-0.8,1l-0.1,0.1l-0.1,0.1l-0.1,0.1
			c-0.9,0.6-1.9,1.4-5.3,1.4H35c-3.6,0.1-4.5,0.1-5-0.5c-0.5-0.8-0.7-3.8-0.7-3.8c0-0.8-0.2-8.8-0.2-10.9v-0.1V29l5.6-0.1
			c1.5,0,2.6,0.1,3,0.4l0.2,0.1l0.1,0.3c0.2,0.8,0.3,2.1,0.3,2.4v0.1v0.1c0,0,0,0.2,0.1,0.4c0.2,0.1,0.4,0.1,0.6,0.2l0,0
			c0.2,0,0.4-0.1,0.4-0.5c0-0.1,0-1,0-0.9V31v-1.1c0-1.7,0-5,0.2-5.6l0,0c0-0.1,0-0.1,0-0.2c-0.1-0.1-0.1-0.3-0.2-0.4
			c-0.1-0.1-0.3-0.1-0.5-0.1c-0.3,0.1-0.5,0.2-0.5,0.4c-0.2,1.2-0.4,2.1-0.6,2.6l-0.1,0.2l-0.2,0.1c-0.4,0.2-1.3,0.4-3.6,0.4
			c0,0-2,0-2.1,0c-1.8,0-2.3,0-2.6-0.3L29,26.9v-0.2c-0.2-0.9-0.1-8.7-0.1-8.8c0.1-2,0.9-3.2,2.1-3.2c2-0.1,4.6,0,5.5,0.2
			c0.8,0.1,1.8,0.3,2.3,1l0.1,0.2c0,0,0.1,0.7,0.1,0.8v1.8V19c0,0.6,0.1,0.6,0.2,0.7c0,0,0.4,0.2,0.6,0.1h0.1c0-0.1,0.1-0.1,0.1-0.1
			s0-0.1,0.1-0.1c0-0.3,0.1-1,0.1-1l0.2-2.5V16c0.1-0.5,0.3-1.1,0.3-1.6c0-0.3-0.1-0.4-0.1-0.4c-0.2-0.3-0.5-0.8-2.6-0.7l-6.7,0.2
			c-4.1-0.1-7.2-0.1-7.7,0.1v0.1v0.1c-0.1,0.2-0.1,0.3-0.1,0.3v0.1l0,0c0.1,0,0.3,0.1,0.3,0.1c0.3,0,0.7,0.1,0.9,0.7
			c0.4,0.8,0.7,4.5,0.7,6.6V22c0.2,6,0.3,13.1,0.3,15.4c0,0.4,0,0.7,0,0.8l0,0v0.1c0,0.2,0,0.4,0,0.6v0.7c-0.1,2.5-0.2,4.2-0.5,4.9
			c-0.4,1.3-1.2,1.6-1.6,1.7c0,0-0.2,0.1-0.3,0.1c0,0-0.1,0.1-0.1,0.2l0,0c0,0.2,0.1,0.4,0.2,0.5l0,0c0.5,0,1.8-0.1,1.8-0.1
			s0.4,0,0.5,0c2.7-0.3,8.5-0.1,11.5,0.1c2.6,0.2,4.2-0.1,4.5-0.4c0.3-0.3,0.6-0.9,0.9-1.7l0.1-0.1l0.1-0.3L43,44
			c0-0.1,0.4-1.7,0.4-1.7c0.3-1.1,0.4-1.7,0.4-1.9C43.3,40,43.2,39.9,43.2,39.9 M65.1,18.9c-0.4-2-2.7-4.8-5.2-5.4l0,0
			c-2.3-0.7-5.4-0.6-5.5-0.6l-3.1,0.2l-1.9,0.1h-1h-0.1l-1.4-0.1c0,0,0,0-0.1,0l0,0c0,0-0.9-0.1-0.8-0.1l-1.6-0.1l0,0
			c-0.6-0.1-1.1-0.1-1.3,0l0,0l0,0c-0.1,0.1-0.2,0.2-0.2,0.4c0,0.3,0.1,0.5,0.3,0.6l0,0l0,0c0.3,0.2,1.7,0.1,2.3,0.1h0.1l0.8,0.2
			l0.1,0.3c0.4,1.3,0.5,5.9,0.6,10.2L47.2,39c0,1.9,0,2.1,0,2.2l-0.1,0.9c-0.1,1-0.1,2.2-0.2,2.8l-0.1,0.3l-0.3,0.1
			c-0.3,0.2-0.9,0.5-1.4,0.5h-0.4c-0.8,0-1.1,0-1.3,0.1c-0.1,0.1-0.2,0.2-0.2,0.4s0.1,0.4,0.3,0.5s0.5,0.1,1.8,0h0.1h1.2h2.2h4.3
			c0,0,1.1,0,1.2,0c0.3-0.1,0.4-0.2,0.4-0.3s0-0.1,0-0.2c0-0.1,0-0.2-0.1-0.3c-0.2-0.3-0.3-0.3-0.7-0.3h-0.1h-1.3h-0.6h-0.2
			l-0.2-0.2l-0.3-0.3l-0.3-1.6l0,0c-0.1-1-0.5-10.5-0.5-13.5v-2.4v0.1c0-3.8,0.1-11.1,0.2-11.8c0.2-1.1,0.6-1.5,2.3-1.6
			c2-0.2,4.2-0.3,5.8,1.1c1.1,1.1,2.3,2.7,2.3,6.1c0,0.2,0,0.3,0,0.5c-0.1,3.4-1.2,4.9-3.1,6.1c-0.7,0.4-2.1,1-4.5,1.2h-0.7
			c-0.5,0-0.9,0-0.9,0.1l0,0l-0.2,0.2l-0.1,0.1l0.1,0.1c0.1,0.2,0.4,0.3,0.7,0.4c0.9,0,3.6-0.1,4-0.1c3.8-0.5,6-2.5,7.1-4.1
			c1.1-1.9,1.6-3.4,1.6-5C65.4,20.4,65.3,19.7,65.1,18.9 M86.9,21.1c0-0.7-0.1-1.4-0.2-2.2c-0.4-2-2.7-4.8-5.2-5.4l0,0
			C79.2,12.8,76.1,13,76,13l-3.1,0.2L71,13.3h-1h-0.1l-1.4-0.1c0,0,0,0-0.1,0l0,0c0,0-0.9-0.1-0.8-0.1L66,13l0,0
			c-0.6-0.1-1.1-0.1-1.3,0l0,0l0,0c-0.1,0.1-0.2,0.2-0.2,0.4c0,0.3,0.1,0.5,0.3,0.6l0,0l0,0c0.3,0.2,1.7,0.1,2.3,0.1h0.2l0.8,0.2
			l0.1,0.3c0.4,1.3,0.5,5.9,0.6,10.2l0.1,14.3c0,1.9,0,2.1,0,2.2l-0.1,0.9c-0.1,1-0.1,2.2-0.2,2.8l-0.1,0.3l-0.3,0.1
			c-0.3,0.2-0.9,0.5-1.4,0.5h-0.4c-0.8,0-1.1,0-1.3,0.1C65,46.2,65,46.3,65,46.5s0.1,0.4,0.3,0.5c0.2,0.1,0.5,0.1,1.8,0h0.1h1.1h2.2
			h4.3c0,0,1.1,0,1.2,0c0.3-0.1,0.4-0.2,0.4-0.3s0-0.1,0-0.2c0-0.1,0-0.2-0.1-0.3c-0.2-0.3-0.3-0.3-0.7-0.3h-0.1h-1.3h-0.6h-0.2
			l-0.2-0.2L73,45.4l-0.3-1.6l0,0c-0.1-1-0.5-10.5-0.5-13.5v-2.4V28c0-3.8,0.1-11.1,0.2-11.8c0.2-1.1,0.6-1.5,2.3-1.6
			c2-0.2,4.2-0.3,5.8,1.1c1.1,1.1,2.3,2.7,2.3,6.1c0,0.2,0,0.3,0,0.5c-0.1,3.4-1.2,4.9-3.1,6.1c-0.7,0.4-2.1,1-4.5,1.2h-0.7
			c-0.5,0-0.9,0-0.9,0.1l0,0l-0.2,0.2L73.3,30l0.1,0.1c0.1,0.2,0.4,0.3,0.7,0.4c0.9,0,3.6-0.1,4-0.1c3.8-0.5,6-2.5,7.1-4.1
			C86.4,24.2,86.9,22.7,86.9,21.1 M107.2,39.5L107.2,39.5c-0.2,0-0.3,0.1-0.4,0.2l0,0c-0.1,0.3-0.3,1.3-0.3,1.3l-0.5,2l-0.1,0.1
			c-0.4,0.5-1,1.5-3.4,1.7C99.8,45,95.7,45.1,95,45h-0.1l0,0c-0.7-0.2-1.1-0.7-1.3-2.5c-0.2-2-0.5-10-0.5-12.2v-0.2v-0.7h6.2l0,0
			h0.2c0.4,0,1.1,0.1,1.7,0.3l0.2,0.1l0.1,0.2l0.2,0.5l0,0l0.1,1.3c0.1,0.7,0.1,1,0.3,1.2c0.2,0.2,0.3,0.3,0.5,0.2
			c0.1,0,0.2-0.1,0.3-0.4c0.1-0.2,0-1-0.1-3v-0.3c-0.1-0.7,0-4.3,0.1-4.7l0,0l0,0c0.1-0.5,0.1-0.8,0-1c-0.1-0.1-0.2-0.2-0.4-0.2
			c-0.5,0-0.6,0.2-0.6,1v0.5c0,1.1-0.2,1.7-0.7,2l-0.1,0.1H101c-1.6,0.5-4.2,0.5-5.3,0.5h-0.6h-2L92.9,27l0,0c0-0.1-0.1-0.3-0.1-0.5
			s0-0.4,0-0.6c0-1,0-1.8,0-2.6c0-6.9,0.3-7.6,0.4-7.8v-0.1l0.1-0.1c0.6-0.7,1.1-0.8,2.7-0.9c1.6-0.1,3.4,0,4.2,0.1
			c1.1,0.2,2.5,0.8,2.8,1.1l0,0c0.1,0.1,0.2,0.2,0.2,0.2c0.2,0.3,0.6,1,0.6,2c0,0.1,0,0.3,0,0.4s0,0.1,0,0.2c0,0.4,0.1,0.9,0.4,0.9
			s0.5-0.3,0.6-0.6c0-0.2,0-2.1,0-2.1v-0.8l0,0v-0.5c0-1.2,0-1.6,0-1.8c-0.1-0.2-0.9-0.8-2.6-0.8c0,0-4.6,0.2-4.5,0.2
			c-2.2,0.2-5.6,0.2-6.3,0.1l-1.5-0.1l0,0c0,0-2.6-0.2-2.8-0.2c-0.2,0-0.3,0.2-0.4,0.4c0,0,0,0,0,0.1s0.1,0.3,0.2,0.3
			c0.3,0.1,1.4,0.6,1.7,1.1c0.4,0.8,0.6,1.8,0.7,3.1l0.3,10.9c0,0.6,0.1,7.4,0.1,10.6c0,0.8,0,1.4,0,1.6v0.4
			c-0.1,2.8-0.3,3.5-0.6,3.9L89,45.2v0.5c-0.5,0.3-0.8,0.6-0.8,0.9l0,0c0,0.2,0.1,0.3,0.2,0.3c0.2,0.1,0.6,0,1.1-0.1l0.6-0.1
			c0.6-0.1,3.8-0.1,5.3-0.1h2.2c0,0,4.3,0.1,4.4,0.1c2.1,0.1,3.4,0,3.8-0.3c0.3-0.3,0.6-0.8,0.7-1.2v-0.1c0.1-0.3,0.7-3.3,1-5.2l0,0
			l0,0C107.6,39.8,107.5,39.5,107.2,39.5 M158.3,29.2c-0.2,12.9-7.5,14.7-9.9,15.3l0,0l-0.4,0.1c-0.9,0.3-2.9,0.4-5.8,0.4H142
			c-0.4,0-1.8-0.3-2.3-0.5l-0.4-0.1l-0.1-0.4c-0.1-0.4-0.1-1.1-0.2-2l-0.1-1c-0.1-1.9-0.3-18-0.3-22.4v-0.7c0-1.1,0.1-1.8,0.4-2.1
			l0.2-0.2l0,0l0,0l0,0c0.6-0.4,2.4-1,7.7-0.6C155.3,15.4,158.3,22.6,158.3,29.2 M161.5,23.2c-0.6-1.9-2.6-7.7-11.6-9.6
			c-2.6-0.6-6.2-0.3-8.3-0.1l-1.5,0.1l-1.5,0.1h-0.1l-2.7-0.2H134c0,0-1.2,0-1.3,0h-0.6c-0.8,0-1.1,0-1.2,0.1c0,0.1-0.1,0.3-0.2,0.5
			v0.1c0.1,0.2,0.2,0.3,0.4,0.4h0.6l1.5,0.1h0.2l0.5,0.1l0.4,0.1l0.2,0.6c0.5,1.9,0.8,16.2,0.8,21.9V40v1c0,1.7-0.1,3.4-0.4,4.2v0.1
			v0.1c-0.4,0.6-0.6,1.5-0.6,1.5V47c0,0,0.3,0.3,2.3,0.1l0,0h2.7h1.6h1.2c1.6,0,3.5-0.1,3.9-0.2c2.8-0.5,9.8-2.2,13.4-8
			C164,31.4,162,24.5,161.5,23.2 M173.5,46.6c0-0.3-0.2-0.5-0.4-0.5c-0.1,0-0.9-0.1-0.9-0.1c-0.5,0-0.9,0-1.2-0.2l-0.8-0.5l-0.1-0.2
			c-0.2-0.4-0.3-1.1-0.3-2.1c-0.2-2.4-0.5-17.6-0.5-24c0-2.7,0.1-3,0.1-3.1c0-0.2,0.2-0.9,0.4-1.3l0.1-0.3l0.5-0.1l0,0
			c0.2-0.1,0.5-0.1,1-0.1h0.9l0,0c0.1,0,0.4-0.2,0.4-0.5c0-0.1-0.1-0.3-0.3-0.4c-0.4-0.1-1.9-0.1-4.6-0.1h-0.4h-0.7
			c-2-0.1-4.3-0.1-4.5,0.1v0.1v0.1v0.1v0.1c0.1,0.2,0.3,0.3,0.6,0.3h0.5c1.3,0,1.6,0.1,1.8,0.2h0.1l0.1,0.1c0.4,0.3,0.6,0.8,0.7,3.5
			v1.2c0.2,10.6,0.3,17.7,0.3,21.1c0,1.2,0,1.9,0,2.2v0.5c0,0.9,0,1.7-0.3,2.3l-0.1,0.2l-0.8,0.5l-0.2,0.1h-1
			c-0.9,0-1.1,0.1-1.2,0.2c-0.1,0.2-0.1,0.3-0.2,0.5v0.1c0.1,0.2,0.3,0.3,0.4,0.3l0,0c0.3,0,1.5-0.1,1.5-0.1s1.4-0.1,1.5-0.1h7.4
			l0,0C173.2,47,173.5,46.9,173.5,46.6 M116.1,28L116.1,28L116.1,28h-0.2l-0.6-0.2v-0.4c-0.1-1.1-0.1-2.6-0.1-4.5
			c0-3.4,0.1-6.8,0.1-6.8V16l0.1-0.3l0.1-0.4l2.3-0.6l0,0c0.7-0.1,2.7-0.3,4.5,0.1l0,0l0,0c3.1,1.3,3.3,2.9,3.6,5.2v0.2v0.1V21
			c0,1.4-0.1,3.8-2.7,5.6l0,0l0,0C121.6,27.7,119,28.2,116.1,28 M174.6,51.3c-0.2,0-0.5,0.2-0.7,0.4c-0.4,0.3-2.1,1.7-3.5,2.3
			c-3.7,2-7.2,2.6-9.2,2.9c-2.1,0.3-7.5,1.2-15.1-1.1c-4.5-1.4-8.2-3.7-11.9-7.4c-1.3-1-5.5-7-11.6-15.8l-2.4-3.5l1-0.2
			c1-0.2,2.8-0.6,4-1.3h0.1h0.1c2.6-0.9,4.5-4.6,4.5-6.6v-0.2c-0.1-2-0.3-5.4-4.8-7c-2.1-0.7-4.1-0.6-5.4-0.5h-0.3l-3.7,0.2H112
			h-0.1l0,0c0,0-0.9-0.1-0.8-0.1l-1.7-0.2c-0.8-0.1-1.3-0.2-1.6-0.1c-0.2,0.1-0.5,0.4-0.5,0.4l-0.1,0.1c0,0,0,0.1,0.1,0.1l0.1,0.2
			l0,0c0.1,0.2,0.4,0.2,0.6,0.2h0.1l1.2,0.2c0.6,0,1.1,0.1,1.3,0.3l0.2,0.2l0.2,0.4l0,0c0.2,0.9,0.4,2.8,0.5,3.5l0,0
			c0,0.1,0.1,0.3,0.1,0.5l0.2,2.6v0.1l0,0c0,0,0,0.2,0,0.3c0,1.2,0.1,4.9,0.1,5.2v0.1l0,0c0,0.2,0.1,3,0.1,4.9c0,1.1,0,5.5,0,7.7
			c0,0.6,0,1.1,0,1.2l0,0v0.1c0,0.2,0,0.4,0,0.6c-0.2,2.4-0.3,3.1-0.4,3.3v0.1l-0.1,0.2c0,0-0.5,0.5-0.6,0.4h-0.1
			c-2.1,0-2.2,0.1-2.3,0.2c-0.1,0.1-0.2,0.3-0.2,0.5c0,0.1,0,0.1,0,0.2c0.1,0.1,0.2,0.2,0.3,0.3c0.1,0,0.8,0,0.8,0h0.5l6-0.1h0.5
			h0.9c2,0.1,2.3,0.1,2.4,0c0.2-0.2,0.3-0.4,0.3-0.7c0-0.2-0.1-0.4-1-0.3h-1.6h-0.1l-0.2-0.1H117l-0.5-0.2l-0.4-1l0,0
			c-0.3-1.3-0.7-11.2-0.7-14.4v-1.8l1.1,1.4c3.6,4.3,7.8,10.5,10.1,13.8c0,0,1,1.5,1.1,1.5c0.6,1,4,5.9,8.2,8.8
			c4,2.8,8.5,4.6,14.4,5.7c4.3,0.8,9.9,0.3,14-1.2l0.2-0.1c2.3-0.8,4.9-1.7,8.8-4.9c1.3-1.1,1.7-1.8,1.7-2.1l0,0c0,0,0,0,0-0.1
			C174.7,51.3,174.7,51.3,174.6,51.3 M207.5,13.4c0,0,0-0.1,0-0.2c-0.1-0.1-0.2-0.2-0.2-0.2l0,0c-0.3-0.1-1.1-0.1-1.7-0.1
			c0,0-7.2,0.1-7.3,0.1c-0.2,0-0.3,0.1-0.4,0.2c-0.1,0.1-0.1,0.2-0.1,0.5c0.1,0.3,0.4,0.4,1.1,0.3l0,0c0.1,0,0.2,0,0.3,0
			s0.1,0,0.8,0.1h0.2l0.1,0.2c0.2,0.2,0.4,0.7,0.5,1.2c0.3,1.4,0.6,6.7,0.6,9.4v0.3c0.2,2.1,0.3,10.8,0.3,14.9v2l-1.1-1.6
			c-12.6-17.7-19.2-26.6-20-27.3c-0.2,0-1-0.1-3.5-0.1H177l-2.5-0.1c0,0-0.3,0-0.4,0l0,0c-0.2,0.1-0.3,0.3-0.3,0.5l0,0
			c0,0.1,0.1,0.3,0.4,0.4h0.2c0.9,0.1,2.2,0.2,2.6,0.4l0.1,0.1l0.1,0.1c0.1,0.1,0.3,0.5,0.5,2.8c0.1,1.4,0.4,8.1,0.4,8.8l0,0l0,0
			c0,0.2,0,0.5,0,0.8v0.8c0,2.1,0.1,5.9,0.1,9.3c0,3.4-0.1,5.4-0.2,6.3c0,0.8-0.1,1.3-0.3,1.8l-0.1,0.2l-1,0.6l-1.3,0.1l0,0
			c-0.5-0.1-0.8,0-0.9,0.2c-0.3,0.4-0.2,0.6-0.1,0.6c0.1,0.2,0.5,0.3,0.8,0.3l3.8-0.1h4c0.3,0,0.6,0,0.8,0l0,0c0,0,0.3,0,0.4,0l0,0
			c0.2-0.1,0.4-0.2,0.5-0.5c0,0,0-0.1,0-0.2c-0.1-0.1-0.2-0.1-0.2-0.2c-0.4,0-1.2-0.1-1.2-0.1h-0.5h-0.2l-1.1-0.6l-0.1-0.2
			c-0.2-0.5-0.4-1.1-0.5-1.8c-0.6-3.7-1-19.6-1-23.8v-2l1.2,1.6c0.8,1.1,20,27.8,20.6,28.8c0.3,0.4,0.6,0.4,0.8,0.3l0,0
			c0.1-0.1,1.1-0.7,1.1-0.7l0,0c0.2-0.1,0.6-0.3,0.6-0.6l-0.4-7.1c-0.1-1.5-0.5-12.6-0.5-18.3c0-1.7,0-2.7,0.1-3.2l0.1-1.5
			c0.1-1.5,0.2-2.3,0.9-2.9l0.1-0.1l0.3-0.2h0.1c0.9-0.1,1.4,0,1.6,0c0,0,0.3,0,0.4,0l0,0C207.2,13.9,207.5,13.7,207.5,13.4
			 M229,41.7c0.3-1.6,0.4-2,0.4-2.2l0,0c0-0.2-0.2-0.5-0.5-0.6c-0.2,0-0.4,0.2-0.5,0.5l-0.2,0.8l-0.4,1.7V42l-0.4,0.6v0.1
			c-1.2,1.3-2.8,2.1-4.8,2.3c-1.8,0.2-6.2,0.6-7.1-0.2l-0.1-0.1l-0.1-0.1c-0.1-0.2-0.4-0.7-0.6-5c0,0,0-0.6,0-0.5
			c0-0.4-0.2-7.9-0.2-8.3l0,0c0-0.1,0-0.2,0-0.3v-0.3l0.1-0.5l0.9-0.2l0,0c1.3-0.1,5.5-0.1,6,0l0,0l0,0c0,0,0.2,0,0.1,0
			c0.5,0.1,0.8,0.3,1.1,0.5l0.2,0.1l0.2,0.7v0.1c0,0,0.1,1,0.1,1.1c0,0.5,0,0.8,0.2,0.9c0.1,0.1,0.3,0.1,0.4,0.1
			c0.3-0.1,0.5-0.3,0.4-1c0-0.3-0.5-5.1,0-7c0.1-0.5,0-0.8-0.2-1c-0.1-0.1-0.3-0.1-0.5,0.1h-0.1c-0.1,0.1-0.1,0.3-0.2,1.1v0.5
			l-0.2,1.4l-0.1,0.1c-0.1,0.2-0.3,0.3-0.7,0.4c-1.2,0.2-5.7,0.4-7.2,0.3h-0.6v-0.6c-0.1-0.7-0.1-2.3-0.1-4.4c0-2.4,0-6.2,0.1-6.7
			l0,0c0-0.1,0-0.2,0-0.3c0.1-0.9,0.6-1.2,1.8-1.5c1.8-0.4,4.2-0.3,5.3-0.1c0.3,0,1.3,0.2,2.1,0.5h0.1l0.1,0.1c0,0,0.4,0.3,0.3,0.2
			l0.4,0.5l0,0l0.2,1.5v0.1l-0.1,0.8l0.1,1l0,0c0.2,0.2,0.4,0.3,0.7,0.3c0.2,0,0.3-0.2,0.3-0.4c0-0.1,0.2-2.5,0.2-2.5l0,0
			c0-0.2,0-0.5,0.1-0.8l0.1-0.8l0,0c0.1-0.4,0.2-0.9,0.2-1.2c0-0.2,0-0.3-0.1-0.4c-0.3-0.3-1.3-0.5-2.2-0.6c-1.1-0.1-4.9,0-6.3,0.1
			c-1.4,0.1-7.4,0.2-8,0.1l0,0l0,0c-0.6-0.1-0.9-0.1-1,0l0,0l0,0c0,0.1-0.2,0.3-0.2,0.5l0,0c0.1,0.1,0.2,0.2,0.3,0.2
			c0.3,0.2,0.9,0.5,1.2,1.6c0.6,2.1,0.9,12.2,0.9,14.4V32c0,1.9,0,3.6,0,5.1c0,2.9,0,4.7-0.2,5.3c-0.3,1.9-1.3,3.2-1.5,3.4l0,0l0,0
			c0,0.1-0.1,0.2-0.1,0.3s0,0.2,0.1,0.3s0.4,0.2,1.1,0l0,0l0,0c1.2-0.2,3-0.2,3.8-0.1h0.4l1.9,0.1c2.5,0.1,6.2,0.2,7,0.1h0.4
			c1.4-0.1,2.6-0.2,2.9-0.4c0.1-0.1,0.6-0.8,0.6-0.8l0,0l0.2-0.3c0,0,0.3-0.7,0.3-0.8C228.5,44.3,229,41.7,229,41.7"/>
	</g>
</g>
<path class="st1" d="M556.9,32.8h-7.3v1.9h2.4v12.4h2.6V34.7h2.3V32.8z M539.4,32.8h-6v14.3h6v-1.8H536v-4.7h2.7v-1.8H536v-4.1h3.4
	V32.8z M519.8,32.8h-6v14.3h6v-1.8h-3.4v-4.7h2.7v-1.8h-2.7v-4.1h3.4V32.8z M263.4,47.1h4V29.7h-9.3v4h3.7v2.8c0,1-0.1,1.9-0.2,2.7
	c-0.1,0.7-0.3,1.4-0.6,2c-0.3,0.6-0.7,1-1.2,1.3s-1.1,0.4-1.9,0.4c-1.4,0-2.4-0.5-2.9-1.4c-0.5-1-0.8-2.5-0.8-4.5V23.1
	c0-0.6,0-1,0-1.4s0-0.8,0.1-1.2c0-0.5,0.1-0.8,0.2-1.1c0.1-0.3,0.2-0.6,0.4-0.9s0.4-0.6,0.6-0.7c0.2-0.2,0.6-0.3,0.9-0.4
	c0.4-0.1,0.8-0.2,1.2-0.2c0.6,0,1.1,0.1,1.6,0.2c0.4,0.2,0.8,0.4,1,0.6c0.2,0.3,0.4,0.6,0.6,1.1c0.1,0.5,0.2,1,0.2,1.5
	s0.1,1.1,0.1,1.9v1.8h6v-1.7c0-3.4-0.7-5.9-2.2-7.5c-1.5-1.7-3.9-2.5-7.3-2.5c-1.9,0-3.4,0.3-4.7,0.8s-2.3,1.3-3,2.4
	s-1.2,2.3-1.6,3.7c-0.3,1.4-0.5,3.1-0.5,5.1v11.1c0,3.9,0.7,6.8,2.1,8.8c1.4,2,3.7,3,7,3c2.8,0,4.8-1.3,5.8-3.9L263.4,47.1z
	 M284.9,22.3c0,1.9-0.4,3.2-1.2,4c-0.8,0.8-2.1,1.2-3.9,1.2h-1.5V17.2h1.9c1.8,0,3,0.4,3.7,1.2C284.6,19.2,284.9,20.5,284.9,22.3
	 M291.4,47.1l-4.7-16.8c1.5-0.6,2.5-1.6,3.2-3c0.6-1.4,1-3.1,1-5.3c0-1.7-0.2-3.2-0.7-4.4c-0.5-1.2-1.2-2.1-2.1-2.8
	c-1-0.7-2.1-1.2-3.4-1.5s-2.8-0.4-4.6-0.4h-7.8v34.2h6.2V31.5h2.8l4.1,15.6H291.4z M306.2,35.1h-4.6l2.3-14L306.2,35.1z M308.3,47.1
	h5.8l-6.9-34.2h-6.5l-6.9,34.2h5.9l1.4-7.9h5.9L308.3,47.1z M316.4,47.1h15.4v-4.3h-9.5l9.5-26.8v-3.1h-15v4.3h8.6l-9,25.8V47.1z
	 M335.6,12.9h6.1v34.2h-6.1V12.9z M357.7,35.1h-4.6l2.3-14L357.7,35.1z M359.7,47.1h5.8l-6.9-34.2h-6.5l-6.9,34.2h5.9l1.4-7.9h5.9
	L359.7,47.1z M381.3,35.8c0,0.8,0,1.4,0,1.8c0,0.4,0,0.9-0.1,1.5s-0.1,1-0.2,1.3s-0.3,0.6-0.5,0.9c-0.2,0.3-0.5,0.6-0.8,0.7
	c-0.3,0.2-0.7,0.3-1.2,0.4c-0.5,0.1-1,0.2-1.6,0.2h-1.8V17.4h1.7c0.7,0,1.3,0,1.8,0.1s0.9,0.2,1.2,0.5c0.3,0.2,0.6,0.5,0.8,0.8
	c0.2,0.3,0.3,0.7,0.5,1.2c0.1,0.5,0.2,1,0.2,1.5s0,1.1,0,2V35.8z M387.1,40.9c0.4-1.4,0.5-3,0.5-5V23.6c0-1.9-0.2-3.5-0.5-4.8
	c-0.3-1.3-0.9-2.4-1.8-3.3c-0.8-0.9-2-1.5-3.3-2c-1.4-0.4-3.1-0.6-5.2-0.6h-8v34.2h8.2c2,0,3.6-0.2,5-0.7c1.4-0.4,2.4-1.1,3.3-2.1
	C386.2,43.4,386.8,42.2,387.1,40.9 M392.4,12.9h6.1v34.2h-6.1V12.9z M416.6,37.7c0,0.6,0,1.2-0.1,1.7c0,0.5-0.1,0.9-0.3,1.4
	c-0.1,0.5-0.3,0.8-0.6,1.1c-0.3,0.3-0.6,0.5-1,0.7s-0.9,0.3-1.5,0.3s-1.1-0.1-1.6-0.3c-0.4-0.2-0.8-0.4-1-0.7s-0.4-0.7-0.6-1.1
	c-0.1-0.5-0.2-0.9-0.3-1.4c0-0.5-0.1-1-0.1-1.7V22.2c0-0.8,0-1.5,0.1-2.1s0.2-1.1,0.5-1.6c0.2-0.5,0.6-0.9,1.1-1.1s1.1-0.4,1.8-0.4
	c0.7,0,1.4,0.1,1.8,0.4c0.5,0.2,0.8,0.6,1.1,1.1c0.2,0.5,0.4,1,0.5,1.6c0.1,0.5,0.1,1.2,0.1,2.1v15.5H416.6z M422.4,40.9
	c0.3-1.4,0.5-2.9,0.5-4.7V23.6c0-3.6-0.8-6.4-2.3-8.3s-4-2.8-7.6-2.8c-1.8,0-3.3,0.2-4.6,0.7c-1.3,0.5-2.3,1.2-3.1,2.2
	c-0.8,1-1.3,2.1-1.7,3.5c-0.3,1.3-0.5,2.9-0.5,4.7v12.6c0,3.7,0.8,6.5,2.3,8.4s4,2.9,7.6,2.9c1.8,0,3.3-0.3,4.6-0.8
	c1.3-0.5,2.3-1.3,3.1-2.3C421.5,43.5,422.1,42.3,422.4,40.9 M437,26.8c0.7-0.7,1-1.5,1-2.5c0-0.5-0.1-0.9-0.2-1.3s-0.3-0.8-0.5-1.1
	c-0.2-0.3-0.4-0.6-0.7-0.9c-0.2-0.3-0.5-0.5-0.8-0.8l-1.9-1.6c-0.4-0.3-0.7-0.7-0.9-1c-0.2-0.3-0.3-0.7-0.3-1.1s0.1-0.7,0.3-0.9
	c0.2-0.2,0.5-0.4,0.9-0.4c0.2,0,0.4,0,0.6,0.1s0.3,0.2,0.4,0.3s0.2,0.3,0.2,0.5c0.1,0.2,0.1,0.4,0.1,0.6s0,0.5,0.1,0.8l2.2-0.4
	c0-0.4-0.1-0.9-0.2-1.2c-0.1-0.4-0.2-0.7-0.4-1.1c-0.2-0.3-0.4-0.6-0.7-0.9c-0.3-0.2-0.6-0.4-1-0.5s-0.9-0.2-1.4-0.2
	c-1.1,0-2,0.3-2.7,0.9c-0.7,0.6-1,1.5-1,2.6c0,0.8,0.1,1.4,0.4,2c0.3,0.5,0.7,1,1.2,1.5l1.9,1.6c0.4,0.3,0.6,0.6,0.8,0.8
	c0.2,0.2,0.4,0.5,0.5,0.8s0.2,0.7,0.2,1.1s-0.1,0.7-0.3,1c-0.2,0.2-0.5,0.4-0.9,0.4c-1,0-1.6-0.9-1.6-2.8l-2.3,0.5
	c0.1,2.9,1.5,4.4,4,4.4C435.5,27.8,436.4,27.4,437,26.8 M435.3,42.1h-1.9l1-5.9L435.3,42.1z M436.2,47.1h2.4l-2.9-14.3H433
	l-2.9,14.3h2.5l0.6-3.3h2.5L436.2,47.1z M447.2,24.8c0.1-0.4,0.1-0.9,0.1-1.4v-1.2h-2.5v1.3c0,0.2,0,0.4,0,0.5s0,0.3,0,0.5
	s0,0.3-0.1,0.4c0,0.1-0.1,0.2-0.2,0.3c-0.1,0.1-0.1,0.2-0.2,0.3c-0.1,0.1-0.2,0.1-0.4,0.2c-0.1,0-0.3,0.1-0.5,0.1
	c-0.5,0-0.9-0.2-1.1-0.5c-0.2-0.4-0.3-1-0.3-1.8v-6.1c0-0.3,0-0.5,0-0.7s0-0.4,0.1-0.6c0-0.2,0.1-0.4,0.1-0.5
	c0.1-0.1,0.1-0.2,0.3-0.4c0.1-0.1,0.2-0.2,0.4-0.2c0.2-0.1,0.4-0.1,0.6-0.1h0.1c0.6,0,0.9,0.3,1.1,0.8c0.1,0.2,0.1,0.7,0.1,1.4v1.2
	h2.5v-1.2c0-0.7-0.1-1.2-0.2-1.7s-0.3-0.9-0.6-1.3c-0.3-0.4-0.7-0.6-1.2-0.8s-1.1-0.3-1.8-0.3c-0.6,0-1.2,0.1-1.6,0.2
	c-0.5,0.2-0.9,0.4-1.2,0.6c-0.3,0.3-0.6,0.6-0.7,1c-0.2,0.4-0.3,0.9-0.4,1.3c-0.1,0.5-0.1,1-0.1,1.7v5c0,0.6,0,1.1,0.1,1.6
	s0.2,0.9,0.4,1.3c0.2,0.4,0.4,0.8,0.8,1c0.3,0.3,0.7,0.5,1.2,0.6c0.5,0.2,1,0.2,1.6,0.2s1.1-0.1,1.6-0.2c0.4-0.1,0.8-0.3,1.1-0.6
	c0.3-0.2,0.5-0.6,0.7-0.9C447,25.7,447.1,25.3,447.2,24.8 M445.8,47.1h1.7V32.8h-2.2v8.1l-3.5-8.1H440v14.3h2.2v-8.5L445.8,47.1z
	 M454.6,27.6h2.6V13.2h-2.6v6h-2.9v-6h-2.6v14.3h2.6V21h2.9V27.6z M454.9,42.4c0,0.3,0,0.6,0,0.8s0,0.4,0,0.6c0,0.2-0.1,0.4-0.1,0.5
	s-0.1,0.3-0.2,0.4c-0.1,0.1-0.2,0.2-0.3,0.3c-0.1,0.1-0.3,0.1-0.5,0.2c-0.2,0-0.4,0.1-0.7,0.1h-0.7V34.7h0.7c0.3,0,0.5,0,0.8,0.1
	c0.2,0,0.4,0.1,0.5,0.2c0.1,0.1,0.2,0.2,0.3,0.3c0.1,0.1,0.1,0.3,0.2,0.5c0,0.2,0.1,0.4,0.1,0.6c0,0.2,0,0.5,0,0.8L454.9,42.4
	L454.9,42.4z M457.3,44.5c0.1-0.6,0.2-1.3,0.2-2.1v-5.2c0-0.8-0.1-1.5-0.2-2s-0.4-1-0.7-1.4c-0.4-0.4-0.8-0.6-1.4-0.8
	s-1.3-0.3-2.2-0.3h-3.3V47h3.4c0.8,0,1.5-0.1,2.1-0.3s1-0.5,1.4-0.9C456.9,45.6,457.1,45.1,457.3,44.5 M464.8,23.7
	c0,0.3,0,0.5,0,0.7s-0.1,0.4-0.1,0.6c-0.1,0.2-0.1,0.4-0.3,0.5c-0.1,0.1-0.2,0.2-0.4,0.3c-0.2,0.1-0.4,0.1-0.6,0.1s-0.5,0-0.7-0.1
	s-0.3-0.2-0.4-0.3c-0.1-0.1-0.2-0.3-0.2-0.5c-0.1-0.2-0.1-0.4-0.1-0.6s0-0.4,0-0.7v-6.5c0-0.3,0-0.6,0.1-0.9c0-0.2,0.1-0.5,0.2-0.7
	s0.2-0.4,0.5-0.5c0.2-0.1,0.5-0.2,0.8-0.2s0.6,0.1,0.8,0.2c0.2,0.1,0.4,0.3,0.5,0.5s0.2,0.4,0.2,0.7c0,0.2,0.1,0.5,0.1,0.9v6.5
	H464.8z M467.2,25c0.1-0.6,0.2-1.2,0.2-2v-5.3c0-1.5-0.3-2.7-1-3.5c-0.6-0.8-1.7-1.2-3.2-1.2c-0.8,0-1.4,0.1-1.9,0.3s-1,0.5-1.3,0.9
	s-0.6,0.9-0.7,1.5s-0.2,1.2-0.2,2V23c0,1.5,0.3,2.7,1,3.5c0.6,0.8,1.7,1.2,3.2,1.2c0.8,0,1.4-0.1,1.9-0.3c0.5-0.2,1-0.5,1.3-0.9
	C466.9,26.1,467.1,25.6,467.2,25 M470.9,32.8l-2.1,10.1l-2.1-10.1H464l-0.2,14.3h2l0.2-9.9l2.1,9.9h1.5l2.1-9.9l0.2,9.9h2l-0.2-14.3
	H470.9z M474.7,23.7c0,0.3,0,0.5,0,0.7s-0.1,0.4-0.1,0.6c-0.1,0.2-0.1,0.4-0.2,0.5s-0.3,0.2-0.4,0.3c-0.2,0.1-0.4,0.1-0.6,0.1
	s-0.5,0-0.7-0.1s-0.3-0.2-0.4-0.3c-0.1-0.1-0.2-0.3-0.2-0.5c-0.1-0.2-0.1-0.4-0.1-0.6s0-0.4,0-0.7v-6.5c0-0.3,0-0.6,0.1-0.9
	c0-0.2,0.1-0.5,0.2-0.7s0.3-0.4,0.5-0.5s0.5-0.2,0.8-0.2s0.6,0.1,0.8,0.2c0.2,0.1,0.4,0.3,0.5,0.5s0.2,0.4,0.2,0.7
	c0,0.2,0.1,0.5,0.1,0.9v6.5H474.7z M477.2,25c0.1-0.6,0.2-1.2,0.2-2v-5.3c0-1.5-0.3-2.7-1-3.5c-0.6-0.8-1.7-1.2-3.2-1.2
	c-0.8,0-1.4,0.1-1.9,0.3s-1,0.5-1.3,0.9s-0.6,0.9-0.7,1.5s-0.2,1.2-0.2,2V23c0,1.5,0.3,2.7,1,3.5c0.6,0.8,1.7,1.2,3.2,1.2
	c0.8,0,1.4-0.1,1.9-0.3c0.5-0.2,1-0.5,1.3-0.9C476.8,26.1,477,25.6,477.2,25 M480.4,42.1h-1.9l1-5.9L480.4,42.1z M480.8,32.8H478
	l-2.9,14.3h2.5l0.6-3.3h2.5l0.6,3.3h2.4L480.8,32.8z M479.3,27.6h6v-1.8h-3.4V13.2h-2.6V27.6z M490.4,32.8v8.1l-3.5-8.1h-1.8v14.3
	h2.2v-8.5l3.5,8.5h1.7V32.8H490.4z M496.5,23.7c0,0.3,0,0.5,0,0.7s-0.1,0.4-0.1,0.6c-0.1,0.2-0.1,0.4-0.2,0.5s-0.3,0.2-0.4,0.3
	c-0.2,0.1-0.4,0.1-0.6,0.1s-0.5,0-0.7-0.1s-0.3-0.2-0.4-0.3c-0.1-0.1-0.2-0.3-0.2-0.5c-0.1-0.2-0.1-0.4-0.1-0.6s0-0.4,0-0.7v-6.5
	c0-0.3,0-0.6,0.1-0.9c0-0.2,0.1-0.5,0.2-0.7s0.3-0.4,0.5-0.5s0.5-0.2,0.8-0.2s0.6,0.1,0.8,0.2c0.2,0.1,0.4,0.3,0.5,0.5
	s0.2,0.4,0.2,0.7c0,0.2,0.1,0.5,0.1,0.9v6.5H496.5z M498.9,25c0.1-0.6,0.2-1.2,0.2-2v-5.3c0-1.5-0.3-2.7-1-3.5
	c-0.6-0.8-1.7-1.2-3.2-1.2c-0.8,0-1.4,0.1-1.9,0.3s-1,0.5-1.3,0.9s-0.6,0.9-0.7,1.5s-0.2,1.2-0.2,2V23c0,1.5,0.3,2.7,1,3.5
	c0.6,0.8,1.7,1.2,3.2,1.2c0.7,0,1.4-0.1,1.9-0.3c0.5-0.2,1-0.5,1.3-0.9C498.5,26.1,498.7,25.6,498.9,25 M499.2,42.1h-1.9l1-5.9
	L499.2,42.1z M502.5,47.1l-2.9-14.3h-2.7L494,47.1h2.5l0.6-3.3h2.5l0.6,3.3H502.5z M503.6,15.1h3.3v-1.8H501v14.3h2.6v-6.5h2.6v-1.8
	h-2.6V15.1z M510.1,47.1h1.7v-7.3h-3.9v1.7h1.5v1.2c0,0.4,0,0.8-0.1,1.1s-0.1,0.6-0.3,0.8c-0.1,0.2-0.3,0.4-0.5,0.5
	s-0.5,0.2-0.8,0.2c-0.6,0-1-0.2-1.2-0.6c-0.2-0.4-0.3-1-0.3-1.9V37c0-0.2,0-0.4,0-0.6c0-0.2,0-0.3,0-0.5s0.1-0.4,0.1-0.5
	s0.1-0.3,0.2-0.4c0.1-0.1,0.2-0.2,0.3-0.3c0.1-0.1,0.2-0.1,0.4-0.2c0.2-0.1,0.3-0.1,0.5-0.1c0.3,0,0.5,0,0.7,0.1s0.3,0.2,0.4,0.3
	s0.2,0.3,0.2,0.5c0.1,0.2,0.1,0.4,0.1,0.6c0,0.2,0,0.5,0,0.8v0.7h2.5v-0.7c0-1.4-0.3-2.5-0.9-3.2s-1.6-1-3.1-1c-0.8,0-1.4,0.1-2,0.3
	c-0.5,0.2-1,0.6-1.3,1s-0.5,1-0.7,1.6c-0.1,0.6-0.2,1.3-0.2,2.1v4.7c0,1.6,0.3,2.9,0.9,3.7s1.6,1.3,2.9,1.3c1.2,0,2-0.5,2.4-1.6
	L510.1,47.1z M518.3,23.4c0,0.8-0.2,1.4-0.5,1.8s-0.8,0.5-1.6,0.5h-1v-4.8h0.8c0.8,0,1.4,0.2,1.7,0.6
	C518.1,21.9,518.3,22.5,518.3,23.4 M518.1,16.9c0,0.8-0.1,1.3-0.4,1.7c-0.3,0.3-0.8,0.5-1.6,0.5h-0.8v-4h0.4c0.5,0,0.8,0,1.1,0.1
	c0.3,0,0.5,0.1,0.8,0.3c0.2,0.1,0.4,0.3,0.5,0.6C518,16.2,518.1,16.5,518.1,16.9 M520.1,21c-0.4-0.6-1.1-1-1.9-1.1
	c1.4-0.2,2.1-1.2,2.1-3c0-0.7-0.1-1.3-0.3-1.8s-0.5-0.9-0.9-1.1c-0.4-0.3-0.8-0.5-1.3-0.6s-1.1-0.2-1.7-0.2h-3.5v14.3h4.1
	c1.3,0,2.3-0.4,3-1.1s1-1.7,1-3.1C520.8,22.4,520.5,21.6,520.1,21 M530.3,24.5c0.1-0.5,0.1-1.1,0.1-1.7v-9.5h-2.5V23
	c0,0.3,0,0.6,0,0.9c0,0.2-0.1,0.5-0.1,0.7c-0.1,0.3-0.1,0.5-0.2,0.6c-0.1,0.2-0.2,0.3-0.4,0.4s-0.4,0.2-0.7,0.2s-0.5-0.1-0.7-0.2
	s-0.3-0.2-0.4-0.4c-0.1-0.2-0.2-0.4-0.2-0.6c-0.1-0.3-0.1-0.5-0.1-0.7s0-0.5,0-0.9v-9.8h-2.5v9.5c0,0.7,0,1.2,0.1,1.7s0.2,1,0.4,1.4
	s0.4,0.8,0.7,1c0.3,0.3,0.7,0.5,1.2,0.6c0.5,0.2,1,0.2,1.7,0.2c0.6,0,1.2-0.1,1.7-0.2s0.9-0.4,1.2-0.6c0.3-0.3,0.5-0.6,0.7-1
	C530.1,25.4,530.2,25,530.3,24.5 M529.3,47.1h2L531,32.8h-2.6l-2.1,10.1l-2.1-10.1h-2.7l-0.2,14.3h2l0.2-9.9l2.1,9.9h1.5l2.1-9.9
	L529.3,47.1z M538.7,26.8c0.7-0.7,1-1.5,1-2.5c0-0.5-0.1-0.9-0.2-1.3c-0.1-0.4-0.3-0.8-0.5-1.1c-0.2-0.3-0.4-0.6-0.7-0.9
	c-0.2-0.3-0.5-0.5-0.8-0.8l-1.9-1.6c-0.4-0.3-0.7-0.7-0.9-1s-0.3-0.7-0.3-1.1s0.1-0.7,0.3-0.9s0.5-0.4,0.9-0.4c0.2,0,0.4,0,0.6,0.1
	c0.2,0.1,0.3,0.2,0.4,0.3c0.1,0.1,0.2,0.3,0.2,0.5c0.1,0.2,0.1,0.4,0.1,0.6s0,0.5,0.1,0.8l2.2-0.4c0-0.4-0.1-0.9-0.2-1.2
	c-0.1-0.4-0.2-0.7-0.4-1.1c-0.2-0.3-0.4-0.6-0.7-0.9c-0.3-0.2-0.6-0.4-1-0.5s-0.9-0.2-1.4-0.2c-1.1,0-2,0.3-2.7,0.9
	c-0.7,0.6-1,1.5-1,2.6c0,0.8,0.1,1.4,0.4,2c0.3,0.5,0.7,1,1.2,1.5l1.9,1.6c0.4,0.3,0.6,0.6,0.8,0.8c0.2,0.2,0.4,0.5,0.5,0.8
	s0.2,0.7,0.2,1.1s-0.1,0.7-0.3,1c-0.2,0.2-0.5,0.4-0.9,0.4c-1,0-1.6-0.9-1.6-2.8l-2.3,0.5c0.1,2.9,1.5,4.4,4,4.4
	C537.1,27.8,538,27.4,538.7,26.8 M542.7,32.8h-1.8v14.3h2.2v-8.5l3.5,8.5h1.7V32.8h-2.2v8.1L542.7,32.8z M541.3,13.2h2.6v14.4h-2.6
	V13.2z M551.8,27.6h1.7V13.2h-2.2v8.1l-3.5-8.1H546v14.3h2.2V19L551.8,27.6z M555.7,27.6h6v-1.8h-3.4v-4.7h2.7v-1.8h-2.7v-4.1h3.4
	v-1.8h-6V27.6z M569.4,26.8c0.7-0.7,1-1.5,1-2.5c0-0.5-0.1-0.9-0.2-1.3c-0.1-0.4-0.3-0.8-0.5-1.1c-0.2-0.3-0.4-0.6-0.7-0.9
	c-0.2-0.3-0.5-0.5-0.8-0.8l-1.9-1.6c-0.4-0.3-0.7-0.7-0.9-1s-0.3-0.7-0.3-1.1s0.1-0.7,0.3-0.9s0.5-0.4,0.9-0.4c0.2,0,0.4,0,0.6,0.1
	c0.2,0.1,0.3,0.2,0.4,0.3c0.1,0.1,0.2,0.3,0.2,0.5c0.1,0.2,0.1,0.4,0.1,0.6s0,0.5,0.1,0.8l2.2-0.4c0-0.4-0.1-0.9-0.2-1.2
	c-0.1-0.4-0.2-0.7-0.4-1.1c-0.2-0.3-0.4-0.6-0.7-0.9c-0.3-0.2-0.6-0.4-1-0.5s-0.9-0.2-1.4-0.2c-1.1,0-2,0.3-2.7,0.9
	c-0.7,0.6-1,1.5-1,2.6c0,0.8,0.1,1.4,0.4,2c0.3,0.5,0.7,1,1.2,1.5l1.9,1.6c0.4,0.3,0.6,0.6,0.8,0.8c0.2,0.2,0.4,0.5,0.5,0.8
	s0.2,0.7,0.2,1.1s-0.1,0.7-0.3,1c-0.2,0.2-0.5,0.4-0.9,0.4c-1,0-1.6-0.9-1.6-2.8l-2.3,0.5c0.1,2.9,1.5,4.4,4,4.4
	C567.9,27.8,568.8,27.4,569.4,26.8 M574.2,17.5c-0.2-0.3-0.3-0.7-0.3-1.1s0.1-0.7,0.3-0.9s0.5-0.4,0.9-0.4c0.2,0,0.4,0,0.6,0.1
	c0.2,0.1,0.3,0.2,0.4,0.3c0.1,0.1,0.2,0.3,0.2,0.5c0.1,0.2,0.1,0.4,0.1,0.6s0,0.5,0.1,0.8l2.2-0.4c0-0.4-0.1-0.9-0.2-1.2
	c-0.1-0.4-0.2-0.7-0.4-1.1c-0.2-0.3-0.4-0.6-0.7-0.9c-0.3-0.2-0.6-0.4-1-0.5s-0.9-0.2-1.4-0.2c-1.1,0-2,0.3-2.7,0.9
	c-0.7,0.6-1,1.5-1,2.6c0,0.8,0.1,1.4,0.4,2c0.3,0.5,0.7,1,1.2,1.5l1.9,1.6c0.4,0.3,0.6,0.6,0.8,0.8c0.2,0.2,0.4,0.5,0.5,0.8
	s0.2,0.7,0.2,1.1s-0.1,0.7-0.3,1c-0.2,0.2-0.5,0.4-0.9,0.4c-1,0-1.6-0.9-1.6-2.8l-2.3,0.5c0.1,2.9,1.5,4.4,4,4.4
	c1.1,0,1.9-0.3,2.6-1c0.7-0.7,1-1.5,1-2.5c0-0.5-0.1-0.9-0.2-1.3c-0.1-0.4-0.3-0.8-0.5-1.1c-0.2-0.3-0.4-0.6-0.7-0.9
	c-0.2-0.3-0.5-0.5-0.8-0.8l-1.9-1.6C574.7,18.1,574.4,17.8,574.2,17.5"/>
</svg>
