<?xml version="1.0" encoding="utf-8"?>
<!-- Generator: Adobe Illustrator 17.1.0, SVG Export Plug-In . SVG Version: 6.00 Build 0)  -->
<!DOCTYPE svg PUBLIC "-//W3C//DTD SVG 1.1//EN" "http://www.w3.org/Graphics/SVG/1.1/DTD/svg11.dtd">
<svg version="1.1" id="Layer_1" xmlns="http://www.w3.org/2000/svg" xmlns:xlink="http://www.w3.org/1999/xlink" x="0px" y="0px"
	 viewBox="214.5 213.6 211.1 43.4" enable-background="new 214.5 213.6 211.1 43.4" xml:space="preserve">
<path fill="#FFFFFF" d="M405.5,213.4c-0.3-0.1-1-0.1-1.5-0.1l-6.7,0.1c-0.2,0-0.3,0-0.4,0.1s-0.1,0.2,0,0.5s0.3,0.3,1,0.3l0,0
	c0.1,0,0.2,0,0.2,0c0.1,0,0.1,0,0.7,0.1h0.2l0.1,0.1c0.2,0.2,0.3,0.6,0.5,1.1c0.3,1.3,0.6,6.2,0.6,8.6v0.3c0.2,1.9,0.3,9.9,0.3,13.7
	v1.8l-1-1.5c-11.7-16.3-17.7-24.6-18.5-25.2c-0.2,0-0.9-0.1-3.2,0h-0.1l-2.3-0.1c0,0-0.3,0-0.4,0l0,0c-0.2,0.1-0.3,0.2-0.3,0.4l0,0
	c0,0,0,0.3,0.4,0.3h0.2c0.9,0.1,2,0.2,2.4,0.4l0.1,0.1l0.1,0.1c0.1,0.1,0.3,0.5,0.5,2.5c0.1,1.3,0.3,7.5,0.3,8.1l0,0l0,0
	c0,0.2,0,0.4,0,0.8v0.8c0,1.9,0.1,5.4,0.1,8.6c0,3.1-0.1,5-0.2,5.8c0,0.7-0.1,1.2-0.3,1.6l-0.1,0.2l-0.9,0.6h-1.2l0,0
	c-0.5,0-0.7,0-0.9,0.2c-0.2,0.3-0.1,0.5-0.1,0.6c0.1,0.2,0.4,0.2,0.8,0.2l3.5-0.1h3.7c0.3,0,0.5,0,0.7,0l0,0c0,0,0.2,0,0.4,0l0,0
	c0.2-0.1,0.4-0.2,0.4-0.5c0,0,0-0.1,0-0.2c-0.1-0.1-0.1-0.1-0.2-0.1c-0.3,0-1.1-0.1-1.1-0.1h-0.5h-0.1l-1-0.5l-0.1-0.2
	c-0.2-0.4-0.3-1-0.5-1.7c-0.6-3.4-0.9-18.1-0.9-22v-1.8l1.1,1.5c0.8,1,18.5,25.6,19,26.6c0.2,0.4,0.6,0.4,0.7,0.3l0,0
	c0.1-0.1,1-0.7,1-0.7l0,0c0.2-0.1,0.6-0.3,0.6-0.5l-0.4-6.5c-0.1-1.4-0.5-11.6-0.5-16.9c0-1.5,0-2.5,0.1-3l0.1-1.4
	c0.1-1.4,0.2-2.2,0.8-2.7l0.1-0.1l0.3-0.1h0.1c0.8-0.1,1.3,0,1.5,0h0.3l0,0C405.2,213.8,405.5,213.6,405.5,213.4c0-0.1,0-0.2,0-0.3
	C405.6,213.5,405.5,213.5,405.5,213.4L405.5,213.4z"/>
<path fill="#FFFFFF" d="M406.9,246.5C406.9,246.5,406.9,246.4,406.9,246.5h0.1H406.9z"/>
<path fill="#FFFFFF" d="M375.5,248.8c-0.1,0-0.1,0-0.1,0c-0.2,0-0.5,0.2-0.6,0.3c-0.3,0.3-2,1.5-3.2,2.1c-3.4,1.8-6.6,2.4-8.5,2.7
	s-6.9,1.1-13.9-1c-4.2-1.3-7.6-3.4-10.9-6.8c-1.1-0.9-5.1-6.4-10.7-14.6l-2.3-3.2l0.9-0.2c0.9-0.2,2.6-0.5,3.7-1.2l0,0h0.1
	c2.4-0.9,4.2-4.2,4.2-6.1v-0.1c-0.1-1.8-0.3-5-4.5-6.4c-1.9-0.6-3.8-0.6-4.9-0.5c0,0-0.3,0-0.2,0l-3.4,0.2h-3.4h-0.1l0,0l-0.8-0.1
	l-1.6-0.2c-0.7-0.1-1.2-0.2-1.5-0.1c-0.1,0.1-0.5,0.3-0.5,0.3s-0.1,0-0.1,0.1v0.1l0.1,0.2l0,0c0.1,0.2,0.3,0.2,0.6,0.2l0,0l1.1,0.2
	c0.6,0,1,0.1,1.2,0.3l0.1,0.1l0.2,0.4l0,0c0.2,0.8,0.4,2.6,0.5,3.2l0,0c0,0.1,0,0.3,0.1,0.5l0.1,2.4v0.1l0,0c0,0,0,0.1,0,0.3
	c0,1.1,0.1,4.5,0.1,4.8v0.1l0,0c0,0.2,0.1,2.8,0.1,4.5c0,1,0,5.1,0,7.1c0,0.6,0,1,0,1.1l0,0c0,0,0,0,0,0.1c0,0.2,0,0.3,0,0.6
	c-0.2,2.2-0.2,2.8-0.3,3.1v0.1l-0.1,0.2l-0.3,0.5c0,0-0.1-0.1-0.2-0.2h-0.1c-1.9,0-2,0.1-2.1,0.2c-0.1,0.1-0.2,0.2-0.2,0.4v0.1
	c0,0.1,0.1,0.2,0.3,0.2c0.1,0,0.8,0,0.8,0s0.4,0,0.5,0l5.5-0.1h0.5h0.8c1.8,0.1,2.1,0.1,2.3,0c0.2-0.2,0.3-0.3,0.2-0.6
	c0-0.2-0.1-0.4-0.9-0.3h-1.4h-0.1l-0.2-0.1h-0.1l-0.5-0.2l-0.4-0.9l0,0c-0.3-1.1-0.6-10.3-0.7-13.2v-1.6l1,1.3
	c3.3,4,7.2,9.7,9.3,12.7c0,0,0.9,1.4,1,1.4c0.6,1,3.7,5.4,7.6,8.2c3.7,2.6,7.8,4.2,13.3,5.2c3.9,0.7,9.1,0.3,12.9-1.1l0.2-0.1
	c2.1-0.7,4.6-1.6,8.1-4.5C375.2,249.6,375.5,249,375.5,248.8c0.1-0.1,0.1-0.1,0.1-0.1C375.5,248.9,375.5,248.8,375.5,248.8z
	 M321.3,227.3L321.3,227.3h-0.1h-0.1l-0.5-0.2v-0.4c-0.1-1-0.1-2.4-0.1-4.1c0-3.1,0.1-6.3,0.1-6.3v-0.1l0.1-0.3l0.1-0.3l2.2-0.5l0,0
	c0.7-0.1,2.5-0.3,4.2,0.1l0,0l0,0c2.8,1.1,3,2.7,3.3,4.8v0.2v0.1v0.7c0,1.3-0.1,3.4-2.5,5.2l0,0l0,0
	C326.4,227,324,227.5,321.3,227.3z"/>
<path fill="#FFFFFF" d="M315,244.8L315,244.8L315,244.8z"/>
<path fill="#FFFFFF" d="M214.6,227.9L214.6,227.9L214.6,227.9L214.6,227.9L214.6,227.9L214.6,227.9L214.6,227.9L214.6,227.9
	L214.6,227.9z"/>
<path fill="#FFFFFF" d="M223.9,214.8c1.8-0.2,3.9-0.2,5.4,1c1,1,2.1,2.5,2.1,5.6c0,0.1,0,0.3,0,0.5c-0.1,3.2-1.1,4.5-2.8,5.7
	c-0.7,0.4-1.9,0.9-4.2,1.1l0,0l0,0l0,0h-0.7c-0.5,0-0.8,0-0.9,0.1l0,0l-0.2,0.2l-0.1,0.1l0.1,0.1c0.1,0.2,0.4,0.3,0.7,0.3
	c0.9,0,3.3-0.1,3.7-0.1c3.5-0.5,5.5-2.3,6.6-3.8c1-1.8,1.5-3.1,1.5-4.6c0-0.6-0.1-1.3-0.2-2c-0.4-1.9-2.5-4.4-4.7-4.9l0,0
	c-2.1-0.6-5-0.5-5.1-0.5l-2.9,0.2l-1.7,0.1h-1h-0.1l-1.3-0.1c0,0,0,0-0.1,0l0,0c0,0-0.8-0.1-0.8,0l-1.6-0.2l0,0
	c-0.6-0.1-1-0.1-1.1,0l0,0l0,0c-0.1,0-0.2,0.1-0.2,0.4c0,0.3,0.1,0.5,0.3,0.5l0,0l0,0c0.3,0.2,1.6,0.1,2.2,0.1h0.1l0.8,0.2l0.1,0.3
	c0.4,1.3,0.5,5.4,0.5,9.4l0.1,13.2c0,1.7,0,2,0,2v0.8c0,0.9-0.1,2-0.2,2.6l-0.1,0.3l-0.2,0.1c-0.3,0.2-0.9,0.4-1.3,0.4h-0.3
	c-0.8,0-1,0-1.1,0.1s-0.2,0.2-0.1,0.3c0,0.2,0.1,0.4,0.3,0.5s0.5,0.1,1.6,0l0,0h1h2h4c0,0,1,0,1.1,0c0.3-0.1,0.3-0.2,0.4-0.2
	s0-0.1,0-0.2c0-0.1,0-0.2-0.1-0.3c-0.2-0.3-0.3-0.3-0.6-0.2h-0.1c0,0-1.2,0-1.3,0h-0.5h-0.2l-0.1-0.1l-0.3-0.2l-0.3-1.5l0,0
	c-0.1-0.9-0.5-9.7-0.5-12.5v-2.2v0.1c0-3.5,0.1-10.2,0.2-10.9C221.9,215.3,222.3,215,223.9,214.8z"/>
<path fill="#FFFFFF" d="M263.4,214.8c1.8-0.2,3.9-0.2,5.4,1c1,1,2.1,2.5,2.1,5.6c0,0.1,0,0.3,0,0.5c-0.1,3.2-1.1,4.5-2.8,5.7
	c-0.7,0.4-1.9,0.9-4.2,1.1l0,0l0,0l0,0h-0.7c-0.5,0-0.8,0-0.9,0.1l0,0l-0.2,0.2H262l0.1,0.1c0.1,0.2,0.4,0.3,0.7,0.3
	c0.9,0,3.3-0.1,3.7-0.1c3.5-0.5,5.5-2.3,6.6-3.8c1-1.8,1.5-3.1,1.5-4.6c0-0.6-0.1-1.3-0.2-2c-0.4-1.9-2.5-4.4-4.7-4.9l0,0
	c-2.1-0.6-5-0.5-5.1-0.5l-2.9,0.2l-1.7,0.1h-1h-0.1l-1.3-0.1c0,0,0,0-0.1,0l0,0c0,0-0.8-0.1-0.8,0l-1.5-0.1l0,0
	c-0.6-0.1-1-0.1-1.1,0l0,0l0,0c-0.1,0-0.2,0.1-0.2,0.4c0,0.3,0.1,0.5,0.3,0.5l0,0l0,0c0.3,0.2,1.6,0.1,2.2,0.1h0.1l0.8,0.2l0.1,0.3
	c0.4,1.3,0.5,5.4,0.5,9.4l0.1,13.2c0,1.7,0,2,0,2v0.8c0,0.9-0.1,2-0.2,2.6l-0.1,0.3l-0.2,0.1c-0.3,0.2-0.9,0.4-1.3,0.4h-0.3
	c-0.8,0-1,0-1.1,0.1s-0.2,0.2-0.1,0.3c0,0.2,0.1,0.4,0.3,0.5s0.5,0.1,1.6,0l0,0h1h2h4c0,0,1,0,1.1,0c0.3-0.1,0.3-0.2,0.4-0.2
	c0-0.1,0-0.1,0-0.2c0-0.1,0-0.2-0.1-0.3c-0.2-0.3-0.3-0.3-0.6-0.2h-0.1c0,0-1.2,0-1.3,0h-0.5h-0.2l-0.1-0.1l-0.3-0.2l-0.3-1.5l0,0
	c-0.1-0.9-0.5-9.7-0.5-12.5v-2.2v0.1c0-3.5,0.1-10.2,0.2-10.9C261.4,215.3,261.8,215,263.4,214.8z"/>
<path fill="#FFFFFF" d="M283.2,214.8c1.8-0.2,3.9-0.2,5.4,1c1,1,2.1,2.5,2.1,5.6c0,0.1,0,0.3,0,0.5c-0.1,3.2-1.1,4.5-2.8,5.7
	c-0.7,0.4-1.9,0.9-4.2,1.1l0,0l0,0l0,0H283c-0.5,0-0.8,0-0.9,0.1l0,0L282,229l-0.1,0.1l0.1,0.1c0.1,0.2,0.4,0.3,0.7,0.3
	c0.9,0,3.3-0.1,3.7-0.1c3.5-0.5,5.5-2.3,6.6-3.8c1-1.8,1.5-3.1,1.5-4.6c0-0.6-0.1-1.3-0.2-2c-0.4-1.9-2.5-4.4-4.7-4.9l0,0
	c-2.1-0.6-5-0.5-5.1-0.5l-2.9,0.2l-1.7,0.1h-1h-0.1l-1.3-0.1c0,0,0,0-0.1,0l0,0c0,0-0.8-0.1-0.8,0l-1.5-0.1l0,0
	c-0.6-0.1-1-0.1-1.1,0l0,0l0,0c-0.1,0-0.2,0.1-0.2,0.4c0,0.3,0.1,0.5,0.3,0.5l0,0l0,0c0.3,0.2,1.6,0.1,2.2,0.1h0.1l0.8,0.2l0.1,0.3
	c0.4,1.3,0.5,5.4,0.5,9.4l0.1,13.2c0,1.7,0,2,0,2v0.8c0,0.9-0.1,2-0.2,2.6l-0.1,0.3l-0.2,0.1c-0.3,0.2-0.9,0.4-1.3,0.4h-0.3
	c-0.8,0-1,0-1.1,0.1s-0.2,0.2-0.1,0.3c0,0.2,0.1,0.4,0.3,0.5c0.2,0.1,0.5,0.1,1.6,0l0,0h1h2h4c0,0,1,0,1.1,0
	c0.3-0.1,0.3-0.2,0.4-0.2c0-0.1,0-0.1,0-0.2c0-0.1,0-0.2-0.1-0.3c-0.2-0.3-0.3-0.3-0.6-0.2h-0.1c0,0-1.2,0-1.3,0h-0.5h-0.2l-0.1-0.1
	l-0.3-0.2l-0.3-1.5l0,0c-0.1-0.9-0.5-9.7-0.5-12.5v-2.2v0.1c0-3.5,0.1-10.2,0.2-10.9C281.3,215.3,281.6,215,283.2,214.8z"/>
<path fill="#FFFFFF" d="M425.4,237.4L425.4,237.4c-0.2,0-0.4,0.1-0.5,0.5l-0.2,0.8l-0.4,1.5v0.1l-0.3,0.6l0,0
	c-1.1,1.2-2.6,2-4.5,2.1c-1.7,0.2-5.7,0.6-6.5-0.2l-0.1-0.1v-0.1c-0.1-0.1-0.3-0.6-0.5-4.6v-0.5c0-0.3-0.1-7.2-0.2-7.7l0,0
	c0-0.1,0-0.2,0-0.2v-0.3v-0.5l0.8-0.1l0,0c1.2-0.1,5.1-0.1,5.6,0l0,0l0,0h0.1c0.5,0.1,0.8,0.2,1,0.4l0.2,0.1l0.2,0.7v0.1l0.1,1
	c0,0.5,0,0.7,0.2,0.9c0.1,0.1,0.3,0.1,0.3,0.1c0.3-0.1,0.5-0.3,0.4-1c0-0.3-0.5-4.7,0-6.4c0.1-0.5,0-0.8-0.2-0.9
	c-0.1-0.1-0.3-0.1-0.5,0h-0.1c0,0.1-0.1,0.3-0.2,1c0,0,0,0.4,0,0.5l-0.2,1.3l-0.1,0.1c-0.1,0.1-0.3,0.3-0.7,0.4
	c-1.1,0.2-5.3,0.4-6.6,0.3H412v-0.5c0-0.7-0.1-2.1-0.1-4c0-2.2,0-5.7,0.1-6.2l0,0c0-0.1,0-0.2,0-0.3c0.1-0.8,0.5-1.1,1.7-1.4
	c1.7-0.3,3.9-0.2,4.9-0.1c0.3,0,1.2,0.1,2,0.5h0.1l0.1,0.1l0.3,0.2l0.3,0.5l0,0l0.2,1.4v0.1l-0.1,0.8v0.9l0,0
	c0.1,0.2,0.4,0.3,0.6,0.2c0.2,0,0.3-0.2,0.3-0.3s0.2-2.3,0.2-2.3l0,0c0-0.2,0-0.4,0.1-0.7l0.1-0.7l0,0c0.1-0.4,0.1-0.8,0.1-1.1
	c0-0.2,0-0.3-0.1-0.3c-0.3-0.2-1.1-0.5-2.1-0.5c-1-0.1-4.5,0-5.8,0.1s-6.8,0.2-7.4,0.1l0,0l0,0c-0.6-0.1-0.8-0.1-0.9,0l0,0l0,0
	c0,0.1-0.2,0.3-0.2,0.5l0,0c0.1,0.1,0.2,0.2,0.2,0.2c0.3,0.2,0.9,0.5,1.1,1.5c0.6,2,0.8,11.2,0.8,13.3v2.3c0,1.8,0,3.3,0,4.7
	c0,2.6,0,4.4-0.2,4.9c-0.3,1.7-1.3,3-1.4,3.1l0,0l0,0c0,0.1-0.1,0.1-0.1,0.2c0,0.1,0,0.2,0.1,0.2c0.1,0.1,0.4,0.2,1,0l0,0l0,0
	c1.1-0.2,2.7-0.1,3.5-0.1h0.4h1.8c2.3,0.1,5.7,0.2,6.4,0.1h0.4c1.3-0.1,2.4-0.1,2.7-0.4c0.1-0.1,0.5-0.8,0.5-0.8l0,0l0.2-0.3
	l0.3-0.7c0-0.1,0.5-2.5,0.5-2.5c0.3-1.4,0.3-1.9,0.3-2l0,0C425.8,237.7,425.6,237.4,425.4,237.4z"/>
<path fill="#FFFFFF" d="M253.5,238.1c-0.1,0-0.2,0.1-0.3,0.3l-0.1,0.5l-0.4,1.5v0.1l-0.7,0.9l-0.1,0.1h-0.1l-0.1,0.1
	c-0.8,0.6-1.8,1.3-4.9,1.3h-0.4c-3.3,0.1-4.2,0.1-4.6-0.5c-0.5-0.7-0.6-3.5-0.6-3.5c0-0.7-0.1-8.1-0.1-10.1v-0.1v-0.6
	c0,0,5.1-0.1,5.2-0.1c1.4,0,2.4,0.1,2.8,0.4l0.2,0.1l0.1,0.2c0.2,0.7,0.3,1.9,0.3,2.2c0,0,0,0,0,0.1s0,0,0,0.1s0,0.2,0.1,0.4
	c0.2,0.1,0.4,0.1,0.5,0.2l0,0c0.2,0,0.4-0.1,0.4-0.5l0,0v-0.9v-0.5v-1c0-1.6,0-4.7,0.1-5.2l0,0c0-0.1,0-0.1,0-0.2
	c0-0.1-0.1-0.2-0.1-0.4c-0.1-0.1-0.3-0.1-0.5-0.1c-0.2,0.1-0.4,0.2-0.5,0.4c-0.2,1.1-0.3,2-0.5,2.4l-0.1,0.2l-0.2,0.1
	c-0.4,0.2-1.2,0.4-3.3,0.4h-1.9c-1.6,0-2.1,0-2.4-0.2l-0.2-0.1v-0.2c-0.2-0.8-0.1-8-0.1-8.1c0.1-1.8,0.8-2.9,2-3
	c1.9-0.1,4.2,0,5,0.2c0.8,0.1,1.6,0.3,2.1,0.9l0.1,0.1v0.7v1.6v0.3c0,0.5,0.1,0.6,0.2,0.7c0,0,0.3,0.2,0.6,0.1c0,0,0,0,0.1,0
	l0.1-0.1c0,0,0-0.1,0.1-0.1c0-0.2,0.1-0.9,0.1-0.9l0.1-2.3v-0.1c0.1-0.4,0.2-1,0.2-1.5c0-0.3,0-0.3-0.1-0.4
	c-0.2-0.2-0.5-0.8-2.4-0.7l-6.2,0.2c-3.7-0.1-6.6-0.1-7.1,0.1l0,0l0,0c-0.1,0.2-0.1,0.2-0.1,0.3c0,0,0,0,0,0.1l0,0
	c0.1,0,0.3,0,0.3,0c0.3,0,0.6,0.1,0.8,0.6c0.3,0.8,0.6,4.1,0.7,6.1v0.3c0.1,5.5,0.3,12.1,0.3,14.2c0,0.4,0,0.6,0,0.7l0,0v0.1
	c0,0.2,0,0.3,0,0.6v0.7c-0.1,2.3-0.2,3.9-0.5,4.5c-0.4,1.2-1.1,1.5-1.5,1.6c0,0-0.1,0.1-0.2,0.1l-0.1,0.1l0,0c0,0.2,0.1,0.4,0.2,0.5
	l0,0c0.5,0,1.6,0,1.6,0s0.3,0,0.4,0c2.5-0.3,7.8-0.1,10.6,0.1c2.4,0.1,3.8-0.1,4.1-0.3s0.6-0.8,0.8-1.6v-0.1l0.1-0.3
	c0,0,0.1-0.5,0.2-0.5c0-0.1,0.3-1.6,0.3-1.6c0.2-1,0.3-1.5,0.3-1.8c0-0.1,0-0.2-0.1-0.3C253.8,238,253.6,238.1,253.5,238.1z"/>
<path fill="#FFFFFF" d="M313.1,237.9L313.1,237.9c-0.2,0-0.3,0.1-0.3,0.2l0,0c-0.1,0.3-0.3,1.2-0.3,1.2l-0.4,1.8l-0.1,0.1
	c-0.3,0.5-0.9,1.4-3.1,1.6c-2.5,0.2-6.3,0.2-6.9,0.1l0,0l0,0c-0.6-0.2-1-0.7-1.2-2.3c-0.2-1.9-0.5-9.2-0.5-11.2v-0.1v-0.6h5.7l0,0
	h0.1c0.3,0,1,0.1,1.5,0.3l0.2,0.1l0.1,0.2l0.2,0.5l0,0l0.1,1.2c0,0.7,0.1,0.9,0.2,1.1c0.2,0.2,0.3,0.2,0.5,0.2
	c0.1,0,0.2-0.1,0.2-0.3s0-0.9-0.1-2.8v-0.3c0-0.7,0-4,0.1-4.4l0,0l0,0c0.1-0.4,0.1-0.7,0-0.9c-0.1-0.1-0.2-0.1-0.3-0.1
	c-0.5,0-0.6,0.2-0.6,0.9v0.5c0,1-0.2,1.6-0.6,1.9h-0.1h-0.1c-1.5,0.4-3.9,0.5-4.9,0.5h-0.6h-1.8l-0.1-0.6l0,0c0-0.1,0-0.3,0-0.5
	c0-0.1,0-0.3,0-0.5c0-0.9,0-1.7,0-2.4c0-6.4,0.3-7,0.3-7.2V216v-0.1c0.5-0.6,1-0.8,2.5-0.9c1.5-0.1,3.1,0,3.9,0.1
	c1,0.1,2.3,0.8,2.6,1l0,0c0.1,0.1,0.2,0.1,0.2,0.2c0.2,0.2,0.5,0.9,0.5,1.9c0,0.1,0,0.2,0,0.4c0,0.1,0,0.1,0,0.2
	c0,0.4,0.1,0.8,0.4,0.9c0.3,0,0.5-0.3,0.5-0.6c0-0.2,0-1.9,0-1.9v-0.7v-0.1v-0.5c0-1.1,0-1.5,0-1.6c-0.1-0.1-0.8-0.7-2.4-0.7
	c0,0-4.2,0.2-4.2,0.1c-2.1,0.2-5.2,0.2-5.8,0.1l-1.4-0.1l0,0c0,0-2.4-0.1-2.5-0.2c-0.1,0-0.3,0.2-0.3,0.4l0,0c0,0.1,0.1,0.2,0.2,0.3
	c0.3,0.1,1.3,0.5,1.6,1c0.3,0.7,0.6,1.7,0.7,2.8l0.3,10c0,0.6,0.1,6.8,0.1,9.8c0,0.7,0,1.3,0,1.5v0.4c-0.1,2.5-0.3,3.3-0.5,3.6
	l-0.1,0.1l-0.1,0.1c-0.5,0.2-0.7,0.5-0.7,0.8l0,0c0,0.1,0.1,0.3,0.2,0.3c0.2,0.1,0.6,0,1-0.1l0.6-0.1c0.6-0.1,3.5-0.1,4.9-0.1h2.1
	l4,0.1c1.9,0.1,3.2,0,3.5-0.3s0.6-0.7,0.7-1.1l0,0c0.1-0.2,0.6-3.1,0.9-4.8l0,0l0,0C313.5,238.2,313.3,237.9,313.1,237.9z"/>
<path fill="#FFFFFF" d="M373.9,244c-0.1,0-0.8-0.1-0.9-0.1c-0.5,0-0.8,0-1.1-0.2l-0.7-0.4l-0.1-0.2c-0.2-0.4-0.2-1-0.3-2
	c-0.1-2.3-0.5-16.2-0.5-22.2c0-2.5,0.1-2.8,0.1-2.9c0-0.2,0.2-0.8,0.4-1.2l0.1-0.2l0.5-0.1l0,0c0.2,0,0.5-0.1,0.9-0.1h0.8l0,0
	c0.1,0,0.4-0.2,0.4-0.5c0-0.1,0-0.2-0.2-0.3c-0.4-0.1-1.8-0.1-4.3-0.1h-0.4h-0.7c-1.8-0.1-3.9-0.1-4.2,0.1v0.1v0.1v0.1v0.1
	c0.1,0.2,0.2,0.2,0.5,0.3h0.5l0,0c1.2,0,1.5,0.1,1.7,0.2h0.1l0.1,0.1c0.3,0.3,0.6,0.7,0.6,3.3v1.1c0.2,9.8,0.3,16.4,0.3,19.5
	c0,1.1,0,1.8,0,2.1v0.5c0,0.8,0,1.6-0.2,2.1l-0.1,0.2l-0.7,0.5l-0.1,0.1h-0.9c-0.8,0-1,0.1-1.1,0.2c0,0.1-0.1,0.3-0.2,0.5v0.1
	c0.1,0.2,0.3,0.2,0.3,0.3l0,0c0.3,0,1.4,0,1.4,0l1.3-0.1h6.8l0,0c0.3,0,0.5-0.1,0.5-0.4C374.3,244.2,374.2,244,373.9,244z"/>
<path fill="#FFFFFF" d="M335.3,214.7h0.6l1.4,0.1h0.2l0.5,0.1l0.3,0.1l0.2,0.6c0.5,1.7,0.8,14.9,0.8,20.2v2.4v0.9
	c0,1.6-0.1,3.1-0.3,3.9v0.1v0.1c-0.3,0.5-0.6,1.4-0.6,1.4v0.1c0,0,0.3,0.3,2.1,0.1l0,0h2.5c0,0,1.5,0,1.4,0h1.1
	c1.5,0,3.2-0.1,3.6-0.1c2.6-0.4,9-2,12.4-7.4c4.2-6.7,2.3-13.1,1.9-14.3c-0.6-1.8-2.4-7.1-10.7-8.8c-2.4-0.6-5.7-0.3-7.6-0.1
	c0,0-1.3,0.1-1.4,0.1l-1.4,0.1H342c0,0-2.5-0.1-2.4-0.1H338h-1.1h-0.6c-0.8,0-1,0-1.1,0.1c0,0.1-0.1,0.2-0.2,0.5l0,0
	C335,214.5,335.1,214.6,335.3,214.7z M342.2,218c0-1,0.1-1.7,0.4-2c0,0,0.2-0.1,0.2-0.2l0,0l0,0l0,0c0.6-0.3,2.2-0.9,7.1-0.6
	c7.6,0.4,10.3,7.1,10.3,13.1c-0.2,11.9-6.9,13.6-9.1,14.1l0,0l-0.3,0.1c-0.8,0.2-2.6,0.3-5.3,0.3h-0.2l0,0c-0.4,0-1.7-0.3-2.1-0.5
	l-0.3-0.1l-0.1-0.3c-0.1-0.3-0.1-1-0.2-1.9l-0.1-0.9c-0.1-1.7-0.3-16.7-0.3-20.6V218z"/>
</svg>
