<?xml version="1.0" encoding="utf-8"?>
<!-- Generator: Adobe Illustrator 17.1.0, SVG Export Plug-In . SVG Version: 6.00 Build 0)  -->
<!DOCTYPE svg PUBLIC "-//W3C//DTD SVG 1.1//EN" "http://www.w3.org/Graphics/SVG/1.1/DTD/svg11.dtd">
<svg version="1.1" id="Layer_1" xmlns="http://www.w3.org/2000/svg" xmlns:xlink="http://www.w3.org/1999/xlink" x="0px" y="0px"
	 viewBox="80.8 1.4 478.6 477.3" enable-background="new 80.8 1.4 478.6 477.3" xml:space="preserve">
<g id="Cloud" opacity="0.7">
	<path fill="none" stroke="#FFFFFF" d="M215.9,230.5"/>
	<path fill="none" stroke="#FFFFFF" d="M184.6,212.5c1.2,2.5,2.2,5.5,2.7,8.8c2.7-2,11.3-1,18.4,1.6"/>
	<path fill="none" stroke="#FFFFFF" d="M149,199.6c4.7-2.3,16.4-2.7,25.6,2.7"/>
	<path fill="none" stroke="#FFFFFF" d="M371.9,182.2c7.4,0.6,16.4,3.7,25.2,11.3c7.4-4.5,24.4,3.7,23.7,15.4"/>
	<path fill="none" stroke="#FFFFFF" d="M337.7,178.3c5.5,0.6,11.1,2.7,16,7.8c1.8-1.2,4.1-2.2,6.8-2.9"/>
	<path fill="none" stroke="#FFFFFF" d="M315,187.5"/>
	<path fill="none" stroke="#FFFFFF" d="M263.4,194.7c2,1.4,3.3,3.1,4.3,5.1c4.5-9.8,16.6-19.2,34.2-16.4"/>
	<path fill="none" stroke="#FFFFFF" d="M235.8,186.3c0.6,1.4,1.2,3.1,1.8,4.7c3.5-2.5,10.9-2.5,17.8-0.4"/>
	<path fill="none" stroke="#FFFFFF" d="M196.3,170.9c0.6,1.6,1,3.1,1.2,4.9c7.4-4.5,22.7-7.8,32.7,2.3"/>
	<path fill="none" stroke="#FFFFFF" d="M163.1,159.5c5.9-3.3,16.8-2.7,24.8,2"/>
	<path fill="none" stroke="#000000" stroke-width="0.75" d="M490.8,198.5"/>
	<path fill="none" stroke="#FFFFFF" d="M172.1,146.4"/>
	<path fill="none" stroke="#FFFFFF" d="M260.5,133.9c-1.6,1.6-3.1,3.1-4.7,5.1c-2.5-1.4-10.4-2.5-19-1.6
		c-9.6,1.2-20.1,4.9-26.2,13.9c-0.6-1.6-4.9-6.3-11.3-9.2"/>
	<path fill="none" stroke="#FFFFFF" d="M305.2,122.2c-9.8-3.9-21.5-4.3-34,3.1"/>
	<path fill="none" stroke="#FFFFFF" d="M343.2,141.8c-2.2,1.2-4.3,2.5-6.6,4.1"/>
	<path fill="none" stroke="#FFFFFF" d="M376.6,143.9c-5.5-5.3-13.5-9-24.8-5.9"/>
	<path fill="none" stroke="#FFFFFF" d="M479.4,207.1c-0.8-2.7-10-21.7-31.5-20.7c-3.5-6.5-14.3-23.9-40.7-17.6
		c-0.4-4.5-10.2-15.1-22.3-9.4c0-1.2-0.6-3.3-2-6.1"/>
</g>
<g id="Layer_1_1_" opacity="0.7">
	<g>
		<path fill="none" stroke="#FFFFFF" stroke-width="1.6582" d="M462.8,301.7"/>
		<path fill="none" stroke="#FFFFFF" stroke-width="1.6582" d="M492.9,276.7c-4.7-0.8-12.3-1.8-13.7-0.4"/>
		<path fill="none" stroke="#FFFFFF" stroke-width="1.6582" d="M476.7,207.3c5.3-1.4,11.1-2.3,16.8-2.5"/>
		<path fill="none" stroke="#FFFFFF" stroke-width="1.6582" d="M417.1,211.4c14.7-8,20.5,1,32.5,5.7c1.2-0.2,4.3-1.6,8.4-3.3"/>
		<path fill="none" stroke="#FFFFFF" stroke-width="1.6582" d="M341.2,251.4c21.7-8.2,49.7-24.8,66.1-34.6"/>
		<path fill="none" stroke="#FFFFFF" stroke-width="1.6582" d="M324.6,256.1"/>
		<path fill="none" stroke="#FFFFFF" stroke-width="1.6582" d="M174.2,340.6c0,0,10.4-7.6,12.1-11.7c1.8-4.1-1.8-20.3-5.3-27.2
			s-5.1-15.4-16.4-25.4c-0.4-0.4-0.8-2-2.3-2c11.1-8.6,36.4-28,74.3-48.9c26.6-14.7,45.4,4.9,62.6,19"/>
		<path fill="none" stroke="#FFFFFF" stroke-width="1.6582" d="M322.1,418.4"/>
		<path fill="none" stroke="#FFFFFF" stroke-width="1.6582" d="M457.5,328.9c1.8,4.1,12.1,11.7,12.1,11.7"/>
		<path fill="#FFFFFF" stroke="#000000" stroke-width="1.3129" d="M320.1,240.1"/>
		<path fill="#FFFFFF" stroke="#000000" stroke-width="1.6582" d="M320.1,240.1"/>
		<path fill="#FFFFFF" stroke="#000000" stroke-width="1.3129" d="M320.1,240.1"/>
		<path fill="#FFFFFF" stroke="#000000" stroke-width="1.3129" d="M320.1,240.1"/>
		<path fill="#FFFFFF" stroke="#000000" stroke-width="1.3129" d="M320.1,240.1"/>
		<path fill="#FFFFFF" stroke="#000000" stroke-width="1.6582" d="M320.1,240.1"/>
		<path fill="#FFFFFF" stroke="#000000" stroke-width="1.6582" d="M320.1,240.1"/>
		<path fill="none" stroke="#FFFFFF" stroke-width="1.3129" d="M472.8,323c-0.8-0.4-1-0.4-1-0.4c2.2,7-4.1,14.3-4.1,14.3
			c-31.7,47.7-85.8,79.4-147.6,79.4s-115.9-31.5-147.6-79.4c0,0-6.3-7.2-4.1-14.3c0,0-52.8,22.9-54.9,25.4
			c-2.2,2.5-6.1,3.1,2.9,17.6c42.2,67.8,117.7,113,203.7,113s161.5-45.2,203.7-113c9-14.5,5.1-15.1,2.9-17.6
			C524.6,345.5,480.2,326.1,472.8,323z"/>
		<path fill="#FFFFFF" stroke="#000000" stroke-width="1.6582" d="M320.1,240.1"/>
		<path fill="#FFFFFF" stroke="#000000" stroke-width="1.3129" d="M320.1,240.1"/>
		<path fill="#FFFFFF" stroke="#000000" stroke-width="1.3129" d="M320.1,240.1"/>
		<path fill="#FFFFFF" stroke="#000000" stroke-width="1.3129" d="M320.1,240.1"/>
		<path fill="none" stroke="#FFFFFF" stroke-width="1.3129" d="M320.1,64.1c97.6,0,176.6,78.8,176.6,176c0,12.9-1.8,25.2-3.9,37.3
			c-0.6,2.7-4.3,12.3-7.6,12.9c0,0,33.8,10.8,49.3,18.8c15.4,8,17.2-7,18.6-12.9c4.7-18,6.6-37,6.6-56.3
			c0-131.8-107.1-238.5-239.3-238.5C187.9,1.4,80.8,108.3,80.8,240.1c0,19.4,2.2,38.3,6.6,56.3c1.6,5.9,3.3,20.9,18.6,12.9
			c15.4-8,49.3-18.8,49.3-18.8c-3.3-0.6-7.2-10.2-7.6-12.9c-2.3-12.1-3.9-24.6-3.9-37.3C143.5,142.9,222.7,64.1,320.1,64.1z"/>
		<path fill="#FFFFFF" stroke="#000000" stroke-width="1.3129" d="M320.1,240.1"/>
		<path fill="#FFFFFF" stroke="#000000" stroke-width="1.6582" d="M320.1,240.1"/>
		<path fill="#FFFFFF" stroke="#000000" stroke-width="1.6582" d="M320.1,240.1"/>
		<path fill="#FFFFFF" stroke="#000000" stroke-width="1.6582" d="M320.1,240.1"/>
		<path fill="#FFFFFF" stroke="#000000" stroke-width="1.3129" d="M320.1,240.1"/>
		<path fill="#FFFFFF" stroke="#000000" stroke-width="1.3129" d="M320.1,240.1"/>
		<path fill="#FFFFFF" stroke="#000000" stroke-width="1.3129" d="M320.1,240.1"/>
		<path fill="#FFFFFF" stroke="#000000" stroke-width="1.3129" d="M320.1,240.1"/>
		<path fill="#FFFFFF" stroke="#000000" stroke-width="1.6582" d="M320.1,240.1"/>
		<path fill="#FFFFFF" stroke="#000000" stroke-width="1.6582" d="M320.1,240.1"/>
		<path fill="#FFFFFF" stroke="#000000" stroke-width="1.6582" d="M320.1,240.1"/>
		<path fill="#FFFFFF" stroke="#000000" stroke-width="1.3129" d="M320.1,240.1"/>
		<path fill="#FFFFFF" stroke="#000000" stroke-width="1.3129" d="M320.1,240.1"/>
		<path fill="#FFFFFF" stroke="#000000" stroke-width="1.3129" d="M320.1,240.1"/>
		<path fill="#FFFFFF" stroke="#000000" stroke-width="1.3129" d="M320.1,240.1"/>
		<path fill="#FFFFFF" stroke="#000000" stroke-width="1.6582" d="M320.1,240.1"/>
		<path fill="#FFFFFF" stroke="#000000" stroke-width="1.6582" d="M320.1,240.1"/>
		<path fill="#FFFFFF" stroke="#000000" stroke-width="1.6582" d="M320.1,240.1"/>
		<path fill="#FFFFFF" stroke="#000000" stroke-width="1.3129" d="M320.1,240.1"/>
		<path fill="#FFFFFF" stroke="#000000" stroke-width="1.3129" d="M320.1,240.1"/>
		<path fill="#FFFFFF" stroke="#000000" stroke-width="1.3129" d="M320.1,240.1"/>
		<path fill="#FFFFFF" stroke="#000000" stroke-width="1.3129" d="M320.1,240.1"/>
		<path fill="#FFFFFF" stroke="#000000" stroke-width="1.6582" d="M320.1,240.1"/>
		<path fill="#FFFFFF" stroke="#000000" stroke-width="1.6582" d="M320.1,240.1"/>
		<path fill="#FFFFFF" stroke="#000000" stroke-width="1.6582" d="M320.1,240.1"/>
		<path fill="#FFFFFF" stroke="#000000" stroke-width="1.3129" d="M320.1,240.1"/>
		<path fill="#FFFFFF" stroke="#000000" stroke-width="1.3129" d="M320.1,240.1"/>
		<path fill="#FFFFFF" stroke="#000000" stroke-width="1.3129" d="M320.1,240.1"/>
		<path fill="#FFFFFF" stroke="#000000" stroke-width="1.3129" d="M320.1,240.1"/>
		<path fill="#FFFFFF" stroke="#000000" stroke-width="1.6582" d="M320.1,240.1"/>
		<path fill="#FFFFFF" stroke="#000000" stroke-width="1.6582" d="M320.1,240.1"/>
		<path fill="#FFFFFF" stroke="#000000" stroke-width="1.6582" d="M320.1,240.1"/>
		<path fill="#FFFFFF" stroke="#000000" stroke-width="1.3129" d="M320.1,240.1"/>
		<path fill="#FFFFFF" stroke="#000000" stroke-width="1.3129" d="M320.1,240.1"/>
		<path fill="#FFFFFF" stroke="#000000" stroke-width="1.3129" d="M320.1,240.1"/>
		<path fill="#FFFFFF" stroke="#000000" stroke-width="1.3129" d="M320.1,240.1"/>
		<path fill="#FFFFFF" stroke="#000000" stroke-width="1.6582" d="M320.1,240.1"/>
		<path fill="#FFFFFF" stroke="#000000" stroke-width="1.6582" d="M320.1,240.1"/>
		<path fill="#FFFFFF" stroke="#000000" stroke-width="1.6582" d="M320.1,240.1"/>
		<path fill="#FFFFFF" stroke="#000000" stroke-width="1.3129" d="M320.1,240.1"/>
		<path fill="#FFFFFF" stroke="#000000" stroke-width="1.3129" d="M320.1,240.1"/>
		<path fill="#FFFFFF" stroke="#000000" stroke-width="1.3129" d="M320.1,240.1"/>
		<g>
			<path fill="none" stroke="#FFFFFF" stroke-width="1.6582" d="M320.1,470c82.9,0,155.6-43.6,196.3-109.1c8.8-14.1,4.9-14.5,2.7-17
				c-1.6-1.8-26-12.1-41.1-18.8c0,0,0.4,0.4,0.8,1.2c2.3,7.4-4.3,14.9-4.3,14.9c-33,50.1-89.9,83.1-154.5,83.1s-121.4-33-154.5-83.1
				c0,0-6.5-7.6-4.3-14.9c0.4-0.8,0.8-1.2,0.8-1.2c-15.1,6.6-39.7,17.2-41.3,19c-2.2,2.5-5.9,2.9,2.7,17
				C164.5,426.4,237.2,470,320.1,470z"/>
			<path fill="none" stroke="#FFFFFF" stroke-width="1.6582" d="M320.1,55.9c102.1,0,184.8,82.5,184.8,184.2
				c0,13.5-1.8,26.4-4.1,39.1c-0.6,2.9-4.5,12.9-8,13.5l-0.6,0.2c10.8,3.7,26.4,8.6,35.2,13.1c14.9,7.8,15.8-6.1,17.2-11.7
				c4.5-17.4,6.5-35.6,6.5-54.2C551,113,447.6,10.2,320.1,10.2C192.6,10,89.4,113,89.4,240.1c0,18.6,2,37,6.5,54.2
				c1.4,5.7,1.8,19.7,16.6,11.9c8.8-4.7,25-9.6,35.8-13.3l-0.6-0.2c-3.5-0.6-7.4-10.6-8-13.5c-2.3-12.7-4.1-25.6-4.1-39.1
				C135.3,138.2,218,55.9,320.1,55.9z"/>
		</g>
		<path fill="#FFFFFF" stroke="#000000" stroke-width="1.3129" d="M320.1,240.1"/>
		<path fill="#FFFFFF" stroke="#000000" stroke-width="1.6582" d="M320.1,240.1"/>
		<path fill="#FFFFFF" stroke="#000000" stroke-width="1.6582" d="M320.1,240.1"/>
		<path fill="#FFFFFF" stroke="#000000" stroke-width="1.6582" d="M320.1,240.1"/>
		<path fill="none" stroke="#FFFFFF" stroke-width="1.3129" d="M111.5,307.6c2.3,2.2,13.9,18.2,14.9,33.4"/>
		<g>
			<path fill="none" stroke="#FFFFFF" stroke-width="1.3129" d="M133.8,337.5c-1.2-15.3-13.1-31.7-15.6-34l39.7-14.1
				c2.3-2,1.8-7,1.8-9.4s1.6-9.4,8.8-1.2c9.6,10.9,17.8,33.2,18,44.2c0.2,10.4-5.3,4.7-7.8,2c-2.5-2.5-7-4.9-10.2-2.5
				S133.8,337.5,133.8,337.5z"/>
		</g>
		<path fill="none" stroke="#FFFFFF" stroke-width="1.6582" d="M179.1,325.5c-0.2-0.2-0.4-0.4-0.4-0.4c-2.5-2.5-7-4.9-10.2-2.5
			S134,337.5,134,337.5c-1.2-15.3-13.1-31.7-15.4-34l39.7-14.1c1.8-1.6,2.2-3.9,2.2-6.5v-0.8c10,9.6,17.6,28.5,19.6,43.4
			L179.1,325.5z"/>
		<path fill="none" stroke="#FFFFFF" stroke-width="1.3129" d="M147.6,276.7c0,0,9.2-2.3,14.7-1.8"/>
		<path fill="none" stroke="#FFFFFF" stroke-width="1.3129" d="M529.3,307c-2.3,2.2-14.3,18.8-15.4,34.2"/>
		<g>
			<path fill="none" stroke="#FFFFFF" stroke-width="1.3129" d="M506.4,337.5c1.2-15.3,12.9-31.9,15.3-34l-39.5-14.1
				c-2.3-2-1.8-7-1.8-9.4s-1.6-9.4-8.8-1.2c-9.6,10.9-17.8,33.2-18,44.2c-0.2,10.4,5.3,4.7,7.8,2c2.5-2.5,7-4.9,10.2-2.5
				C474.9,324.8,506.4,337.5,506.4,337.5z"/>
		</g>
		<path fill="none" stroke="#FFFFFF" stroke-width="1.6582" d="M461.3,325.5c0.2-0.2,0.4-0.4,0.4-0.4c2.5-2.5,7-4.9,10.2-2.5
			c3.1,2.3,34.6,14.9,34.6,14.9c1.2-15.3,12.9-31.9,15.3-34l-39.5-14.1c-1.8-1.6-2.2-4.3-2.2-6.8v-0.4c-10,9.6-17.6,28.5-19.6,43.4
			L461.3,325.5z"/>
		<path fill="#FFFFFF" stroke="#FFFFFF" stroke-width="1.3129" d="M492.5,276.7c0,0-9.2-2.3-14.7-1.8"/>
		<path fill="#FFFFFF" stroke="#000000" stroke-width="1.6582" d="M320.1,240.1"/>
		<path fill="#FFFFFF" stroke="#000000" stroke-width="1.3129" d="M320.1,240.1"/>
		<polygon fill="none" stroke="#FFFFFF" stroke-width="1.3129" points="323.2,91.1 326.7,298.6 343.2,291.9 334.2,105.4 		"/>
		<path fill="none" stroke="#FFFFFF" stroke-width="1.3129" d="M323.2,83.1l14.7-17.8c2.9,0.4,7.6,0.6,12.1,1.6L323.2,88V83.1z"/>
		<path fill="none" stroke="#FFFFFF" stroke-width="1.3129" d="M323.8,92.7L365.1,70c2.3,0.4,10.6,3.3,14.1,4.3l-52.8,21.1
			L323.8,92.7z"/>
		<path fill="none" stroke="#FFFFFF" stroke-width="1.3129" d="M331.4,101.9L396,81.3c2.9,1.4,11.9,6.3,13.7,7.2l-75.1,17
			L331.4,101.9z"/>
		<path fill="none" stroke="#FFFFFF" stroke-width="1.3129" d="M334.6,110.5l94.2-9c2.7,1.8,12.1,10.4,13.5,11.7l-107.5,3.5
			L334.6,110.5z"/>
		<path fill="none" stroke="#FFFFFF" stroke-width="1.3129" d="M335,123.2l123.2,7.6c3.1,2.9,10.4,13.9,10.8,14.9l-133.5-17.8
			L335,123.2z"/>
		<path fill="none" stroke="#FFFFFF" stroke-width="1.3129" d="M335.5,134.3l145.5,34c2,2.5,5.5,13.7,6.1,15.1l-151.3-43.8
			L335.5,134.3z"/>
		<path fill="none" stroke="#FFFFFF" stroke-width="1.3129" d="M336.1,146.1l158.6,69.2c1,4.9,1.6,16.4,1.6,18.2l-160.1-81.7V146.1z
			"/>
		<path fill="none" stroke="#FFFFFF" stroke-width="1.3129" d="M336.7,159.5c0,0,157.8,101.9,158.4,102.3c-0.4,3.1-2,13.5-2.3,14.7
			c-0.8,0-1.2-0.2-3.3-0.6L336.9,165.8L336.7,159.5z"/>
		<path fill="#FFFFFF" stroke="#000000" stroke-width="1.3129" d="M320.1,240.1"/>
		<polygon fill="none" stroke="#FFFFFF" stroke-width="1.3129" points="317.4,91.1 313.5,301.7 296.6,304 306,105.4 		"/>
		<polygon fill="#FFFFFF" stroke="#FFFFFF" stroke-width="1.3129" points="320.1,203.9 315.4,203.9 317.2,120.4 309.1,120.4 
			309.1,118.1 317.2,118.1 317.4,104 320.1,104 322.8,104 323.2,118.1 331,118.1 331,120.4 323.2,120.4 324.8,203.9 		"/>
		<path fill="none" stroke="#FFFFFF" stroke-width="1.3129" d="M317.4,83.5l-15.1-18.2c-2.9,0.4-7.6,0.6-12.1,1.6l27,21.5v-4.9
			H317.4z"/>
		<path fill="none" stroke="#FFFFFF" stroke-width="1.3129" d="M316.4,92.7L275.1,70c-2.3,0.4-10.6,3.3-14.1,4.3l52.8,21.1
			L316.4,92.7z"/>
		<path fill="none" stroke="#FFFFFF" stroke-width="1.3129" d="M308.8,101.9l-64.5-20.5c-2.9,1.4-11.9,6.3-13.7,7.2l75.1,17
			L308.8,101.9z"/>
		<path fill="none" stroke="#FFFFFF" stroke-width="1.3129" d="M305.8,110.5l-94.2-9c-2.7,1.8-12.1,10.4-13.5,11.7l107.5,3.5
			L305.8,110.5z"/>
		<path fill="none" stroke="#FFFFFF" stroke-width="1.3129" d="M305.2,123.2l-123.2,7.6c-3.1,2.9-10.4,13.9-10.8,14.9L305,127.9
			L305.2,123.2z"/>
		<path fill="none" stroke="#FFFFFF" stroke-width="1.3129" d="M304.7,134.3l-145.5,34c-2,2.5-5.5,13.7-6.1,15.1l151.3-43.8
			L304.7,134.3z"/>
		<path fill="none" stroke="#FFFFFF" stroke-width="1.3129" d="M304.1,146.1l-158.6,69c-1.2,4.9-1.8,16.2-1.6,18.2l160.1-81.7V146.1
			z"/>
		<path fill="none" stroke="#FFFFFF" stroke-width="1.3129" d="M303.5,159.5L145.1,261.8c0,0,2,13.5,2.3,14.7c0.8,0,1.2-0.2,3.3-0.6
			l152.5-110.1L303.5,159.5z"/>
		<g>
			<rect x="317.8" y="64.1" fill="none" stroke="#FFFFFF" stroke-width="1.0193" width="5.1" height="38.5"/>
		</g>
		<path fill="none" stroke="#FFFFFF" stroke-width="1.6" stroke-linecap="round" stroke-linejoin="round" d="M184.8,309.5
			c-0.2-1-1.4-4.9-2.2-6.1c7.6-4.1,25-11.7,45.4-11.7c20.1,0,51.6,12.5,64.3,12.5c12.7,0,39.1-5.3,52.4-13.5
			c16.4-10.2,42.4-8.4,62.6,0c16.2,6.8,34,0.8,39.3-1.4c5.3-2.2,23.1-10.9,26.2-12.1c-2.5,2-7,7-9.4,11.3c-7,3.5-13.7,6.6-16.6,7.8
			c-5.3,2.2-23.1,8-39.3,1.4c-20.1-8.4-46.1-10.2-62.6,0c-13.5,8.4-39.7,13.5-52.4,13.5c-12.7,0-44.2-12.5-64.3-12.5
			C209.6,298.8,193.4,305.2,184.8,309.5z"/>
		<path fill="#FFFFFF" stroke="#000000" stroke-width="1.6582" d="M416.7,352.1"/>
		<path fill="none" stroke="#FFFFFF" stroke-width="1.6582" d="M459.9,347.4c-16.6-5.9-28-12.1-41.8-12.1c-20.3,0-28,13.9-30.5,19.4
			c-31.7-6.1-47.5-19.4-67.5-19.4c-20.3,0-28,13.9-30.5,19.4c-31.3-6.1-47.5-19.4-67.5-19.4c-15.3,0-23.7,8-27.8,14.3l-18-8.6
			c3.9,6.3,17.8,21.7,29.5,21.7c8.2,0,14.1-4.3,12.5-10.6c-1-3.5-3.9-5.7-12.9-2.5c-2.9,1-0.4-1.6-0.4-1.6l-0.2-0.2
			c3.1-2.5,7.2-6.1,17.4-6.1c22.1,0,48.9,20.9,81.7,20.9c8.2,0,16.4-4.3,14.9-10.6c-1-3.5-4.1-7-15.4-2.5c-2.9,1.2-0.6-1.8-0.6-1.8
			c3.1-2.5,7.2-6.1,17.4-6.1c22.1,0,49.1,20.9,81.7,20.9c8.2,0,16.4-4.3,14.9-10.6c-1-3.5-4.1-7-15.4-2.5c-2.9,1.2-0.4-1.6-0.4-1.6
			l0.2-0.2c3.1-2.5,7.2-6.1,17.4-6.1c11.5,0,23.1,5.3,37.5,10.8L459.9,347.4z"/>
		<g>
			<g>
				<path fill="none" stroke="#FFFFFF" d="M293.5,372.5c2,0.8,4.3,2.9,0.8,4.3c-4.1,1.6-7.2-0.6-8.4,3.5c0,0-0.6,7.6-1,10.4
					c-1.8,0-13.1-3.5-13.1-3.5l6.3-18.6C278.1,368.4,291.7,371.7,293.5,372.5z"/>
			</g>
			<g>
				<path fill="none" stroke="#FFFFFF" stroke-width="1.6582" d="M293.5,372.5c2,0.8,4.3,2.9,0.8,4.3c-4.1,1.6-7.2-0.6-8.4,3.5
					c0,0-0.6,7.6-1,10.4c-1.8,0-13.1-3.5-13.1-3.5l6.3-18.6C278.1,368.4,291.7,371.7,293.5,372.5z"/>
			</g>
			<g>
				<path fill="none" stroke="#FFFFFF" stroke-width="1.3129" d="M293.5,372.5c2,0.8,4.3,2.9,0.8,4.3c-4.1,1.6-7.2-0.6-8.4,3.5
					c0,0-0.6,7.6-1,10.4c-1.8,0-13.1-3.5-13.1-3.5l6.3-18.6C278.1,368.4,291.7,371.7,293.5,372.5z"/>
			</g>
		</g>
		<g>
			<g>
				<path fill="none" stroke="#FFFFFF" d="M346.7,372.5c-2,0.8-4.3,2.9-0.8,4.3c4.1,1.6,7.2-0.6,8.4,3.5c0,0,0.6,7.6,1,10.4
					c1.8,0,13.1-3.5,13.1-3.5l-6.3-18.6C362.1,368.4,348.4,371.7,346.7,372.5z"/>
			</g>
			<g>
				<path fill="none" stroke="#FFFFFF" stroke-width="1.3129" d="M346.7,372.5c-2,0.8-4.3,2.9-0.8,4.3c4.1,1.6,7.2-0.6,8.4,3.5
					c0,0,0.6,7.6,1,10.4c1.8,0,13.1-3.5,13.1-3.5l-6.3-18.6C362.1,368.4,348.4,371.7,346.7,372.5z"/>
			</g>
		</g>
		<g>
			<path fill="none" stroke="#FFFFFF" stroke-width="1.3129" d="M320.1,406.9c13.9,0,22.3-0.8,33.4-3.5c1.6-0.4,4.1-2.3,3.5-4.9
				c-0.2-0.6-3.3-16-4.1-18.2c-0.4-1.2-1-1.4-2.7-1.2c-9.4,1.4-18.8,2-30.3,2c-11.5,0-20.9-0.4-30.3-2c-1.8-0.2-2.3,0-2.7,1.2
				c-0.6,2-3.9,17.4-4.1,18.2c-0.6,2.3,2,4.5,3.5,4.9C298,406.1,306.2,406.9,320.1,406.9z"/>
		</g>
		<path fill="#FFFFFF" d="M302.7,389.9L302.7,389.9l-0.2-0.8l0,0c0.6-0.2,1.4-0.4,2-0.8c1-0.4,1.8-0.8,2-1h0.2
			c0,2.5-0.2,4.1-0.2,4.5v3.1c0,1.2,0,2.2,0,2.9c0,0.4,0,0.6,0.2,0.8c0,0.2,0.2,0.2,0.4,0.2s0.6,0,1.6,0.2v0.6c-1.4,0-2.3,0-2.7,0
			c-0.2,0-1.2,0-2.9,0v-0.6c0.8,0,1.4,0,1.6-0.2c0.2,0,0.2,0,0.4-0.2l0.2-0.2c0-0.2,0-0.6,0.2-1.6c0-0.8,0-1.6,0-2v-3.3
			c0-1.4,0-2.2,0-2.5c0-0.2,0-0.2,0-0.2l0,0c0,0-0.2,0-0.4,0.2C303.7,389.5,303.1,389.9,302.7,389.9z"/>
		<path fill="#FFFFFF" d="M313.6,388.9c0.4-0.6,1-0.8,1.6-0.8c0.8,0,1.4,0.4,1.8,1c0.4,0.6,0.6,1.4,0.6,2.3s-0.2,1.6-0.6,2
			c-0.4,0.4-1,0.6-1.6,0.6c-0.4,0-1-0.2-1.4-0.4c-0.4-0.2-0.6-0.6-0.8-1.2c-0.2-0.4-0.2-1-0.2-1.4
			C313.1,390.3,313.3,389.5,313.6,388.9z M312.9,400c1-0.2,2.2-0.6,3.1-1.2c1.2-0.8,2-1.8,2.5-2.9c0.4-1,0.8-2.2,0.8-3.5
			c0-1-0.2-2-0.4-2.5c-0.4-0.6-0.8-1.2-1.4-1.6c-0.6-0.4-1.2-0.6-2-0.6c-1.2,0-2,0.4-2.7,1.2s-1.2,1.8-1.2,2.9c0,1,0.4,2,1,2.5
			c0.6,0.6,1.4,1,2.3,1c0.4,0,0.6,0,1-0.2c0.2,0,0.4-0.2,0.6-0.2c0.2,0,0.2-0.2,0.4-0.4c0.4-0.4,0.6-0.6,1-0.8c0,1-0.4,1.8-0.8,2.5
			c-0.4,1-1.2,1.6-2,2.2s-1.8,1-2.7,1.2v0.2L312.9,400z"/>
		<path fill="#FFFFFF" d="M321.7,399.4c0-0.4-0.2-0.8-0.2-1.2c0-0.2-0.2-0.6-0.4-1.4l0.4-0.2c0.4,1,0.8,1.6,1.2,2
			c0.4,0.4,1,0.6,1.8,0.6c0.6,0,1-0.2,1.4-0.4c0.4-0.2,0.6-0.6,1-1c0.2-0.4,0.4-1,0.4-1.6c0-0.8-0.2-1.4-0.6-1.8
			c-0.4-0.4-1-0.6-1.6-0.6c-0.2,0-0.4,0-0.6,0c-0.2,0-0.6,0.2-1,0.4h-0.2l0.2-1c0.4,0,0.8,0,1,0c0.8,0,1.2-0.2,1.6-0.8
			c0.4-0.6,0.6-1,0.6-1.8c0-0.6-0.2-1-0.6-1.4c-0.4-0.4-1-0.6-1.6-0.6c-0.4,0-0.8,0-1,0.2c-0.4,0.2-0.6,0.4-1,0.6
			c-0.2,0.2-0.2,0.6-0.4,1.2h-0.6l0.6-2.2c0.4-0.4,0.8-0.6,1.2-0.8c0.6-0.2,1.2-0.4,1.8-0.4c1,0,1.8,0.2,2.3,0.8
			c0.6,0.6,0.8,1.2,0.8,2c0,0.6-0.2,1-0.4,1.4c-0.2,0.4-0.8,1-1.6,1.6c0.6,0,1.2,0.2,1.6,0.4c0.4,0.2,0.6,0.6,0.8,0.8
			c0.2,0.4,0.4,0.8,0.4,1.2c0,0.6-0.2,1.4-0.6,2c-0.4,0.6-1,1.2-1.8,1.6c-0.8,0.4-1.6,0.6-2.5,0.6c-0.4,0-0.8,0-1.2-0.2
			C322.4,399.8,322.1,399.6,321.7,399.4z"/>
		<path fill="#FFFFFF" d="M332.4,399.6c0.2,0,0.6,0,0.8,0c0.2-0.6,0.6-1.4,1-2.2c0.6-1.2,1.2-2.3,1.8-3.5c1-1.8,1.6-2.9,2-3.5
			l1.2-2.2v-0.6c-1.8,0-3.1,0.2-3.9,0.2c-0.4,0-1,0-2,0c-0.8,0-1.4,0-2-0.2H331c0,0.6,0,1,0,1.4v2.3h0.6l0.2-2v-0.2c0,0,0,0,0.2-0.2
			c0.2,0,0.4,0,1-0.2c0.6,0,1.2,0,1.8,0h2.7l0,0c-0.2,0.2-0.2,0.4-0.4,0.6c-0.8,1.4-1.6,2.5-2,3.3c-1.2,2-2,3.1-2.3,3.7
			c-1,1.4-1.6,2.3-1.8,2.5l0.2,0.2C331.8,399.6,332,399.6,332.4,399.6z"/>
		<g>
			<g>
				<path fill="#FFFFFF" d="M106,238.7c-1.6,0-2.7,0-3.1,0.2c-0.4,0.2-0.6,0.6-0.8,1.6l-0.2,1.4h-1.4c0.2-2.5,0.4-4.7,0.4-6.1
					c0.2-2.7,0.2-5.3,0.2-8c0-4.1,1.4-7.6,6.1-7.4c5.3,0.2,8.2,4.3,8,9.4c0,0.8-0.2,1.4-0.4,2l-1.4,0.6l-0.4-0.4
					c0.2-0.6,0.2-1.2,0.4-1.6c0.2-2.7-2.3-4.1-4.9-4.3c-3.3-0.2-5.7,1-5.7,4.5c0,0.8,0,2,0.2,2.5l19.2,0.8c1.6,0,2.7,0,3.1-0.2
					c0.4-0.2,0.6-0.6,0.6-1.6l0.2-1.8h1.6c-0.2,2-0.2,4.1-0.4,6.5c0,2.3,0,4.5-0.2,6.1h-1.6v-1.4c0-1-0.2-1.4-0.6-1.6
					c-0.4-0.2-1.6-0.4-3.1-0.4L106,238.7z"/>
				<path fill="#FFFFFF" d="M115.6,204.5c0.2-0.8,0.4-1.8,0.6-2.5l0.4-2.5c0.2-1.4,0.4-2.2-0.4-2.3l-2.2-0.6l0.2-1.6
					c1.4,0.2,2.7,0.6,4.1,0.8c1.4,0.2,2.7,0.4,4.3,0.6l-0.2,1.6l-2-0.2c-1.2,0-1.6,0.6-1.8,2l-0.4,2.5c-0.2,0.8-0.2,1.8-0.4,2.5
					l10.4,2c0.4-1.6,0.8-3.3,1-4.9c0.4-1.8,0.6-4.7,0.2-4.9l-3.5-1.6l0.2-1.6l6.1,1.6l0.2,0.2c-0.2,2.5-1.2,7-1.6,9.6
					c-0.4,1.6-0.8,3.1-1,4.7c-0.4,1.6-0.6,3.3-0.8,4.7l-1-0.2l-0.4-1.4c-0.2-0.6-0.8-1-2.2-1.2l-17.4-3.1c-1.6-0.2-2.7-0.4-3.1-0.4
					c-0.4,0.2-0.8,0.4-1,1.6l-0.4,1.4l-1.4-0.2c0.6-2.5,1-4.5,1.2-6.1c0.6-3.7,1-6.3,1.4-8.6c0.4-2.2,0.6-3.9,1.2-5.7l0.4-0.2
					l5.5,1.6l-0.2,1.4l-3.1,0.2c-0.6,0-1.2,2.5-1.6,4.3s-0.6,3.3-0.8,4.9L115.6,204.5z"/>
				<path fill="#FFFFFF" d="M114.8,179.5c-1.6-0.6-2.5-0.8-3.1-0.8c-0.4,0-0.8,0.4-1.2,1.4l-0.6,1.4l-1.4-0.6
					c0.8-2.5,1.6-4.3,2.2-5.9c0.8-2.5,1.6-5.1,2.3-7.6c1.2-3.9,3.5-7,8-5.5c5.1,1.6,6.8,6.5,5.1,11.3c-0.2,0.6-0.6,1.4-1,2l-1.6,0.2
					l-0.2-0.6c0.2-0.6,0.6-1,0.8-1.6c1-2.7-1-4.7-3.5-5.5c-3.1-1-5.7-0.6-6.8,2.7c-0.2,0.8-0.6,1.8-0.4,2.5l18.2,6.1
					c1.6,0.6,2.5,0.8,3.1,0.8c0.4,0,0.6-0.4,1-1.4l0.8-1.8l1.6,0.6c-0.6,2-1.4,3.9-2.2,6.1c-0.8,2.2-1.4,4.3-1.8,5.9l-1.6-0.6
					l0.4-1.4c0.2-1,0.2-1.4,0-1.8c-0.4-0.4-1.4-0.8-2.9-1.2L114.8,179.5z"/>
				<path fill="#FFFFFF" d="M125.2,151.3c-1.6-0.8-2.5-1.2-2.9-1.2c-0.4,0-0.8,0.2-1.4,1.2l-0.6,1.2l-1.4-0.6
					c1.2-2.3,2.2-4.1,2.9-5.5c1.2-2.3,2.3-4.9,3.5-7.2c1.8-3.7,4.5-6.5,8.6-4.3c4.7,2.3,5.7,7.4,3.5,11.9c-0.4,0.6-0.8,1.2-1.2,1.8
					h-1.6l-0.2-0.6c0.4-0.4,0.8-1,1-1.4c1.2-2.5-0.4-4.7-2.5-5.9c-2.9-1.4-5.5-1.4-7,1.8c-0.4,0.8-0.8,1.8-0.8,2.3l17.2,8.6
					c1.6,0.8,2.5,1.2,2.9,1.2s0.8-0.4,1.2-1.2l1-1.6l1.4,0.8c-1,1.8-2,3.7-2.9,5.7c-1,2.2-2,4.1-2.7,5.5l-1.4-0.8l0.6-1.4
					c0.4-1,0.4-1.4,0.2-1.8c-0.4-0.4-1.2-1-2.7-1.8L125.2,151.3z"/>
				<path fill="#FFFFFF" d="M148,124.2c0.6-0.8,1-1.4,1.6-2.2l1.6-2.2c0.8-1.2,1.2-1.8,0.6-2.3l-1.8-1.6l1-1.4
					c1.2,0.8,2.2,1.8,3.3,2.5c1.2,0.8,2.3,1.6,3.5,2.3l-1,1.4l-1.8-1c-1-0.6-1.8-0.2-2.5,1l-1.2,2.3c-0.6,0.8-1,1.4-1.4,2.2l8.6,5.9
					c1-1.4,2-2.7,2.9-4.1c1-1.6,2.3-4.1,2.2-4.3l-2.5-2.9l0.8-1.2l4.9,3.9l0.2,0.4c-1.2,2.2-3.7,6.1-5.3,8c-1,1.4-2,2.5-2.9,3.9
					c-1,1.4-1.8,2.7-2.5,3.9l-0.8-0.4l0.2-1.4c0-0.8-0.4-1.2-1.4-2l-14.7-10c-1.4-1-2.3-1.6-2.7-1.6s-0.8,0.2-1.6,1l-1,1.2l-1.2-0.8
					c1.6-2.2,2.7-3.7,3.5-5.1c2.2-3.1,3.5-5.3,4.9-7.2c1.2-1.8,2.2-3.3,3.3-4.7h0.4l4.3,3.5l-0.8,1.2l-2.5-1.4
					c-0.6-0.2-2.2,1.8-3.1,3.3c-1,1.4-2,2.7-2.7,4.3L148,124.2z"/>
				<path fill="#FFFFFF" d="M157.6,100.9c-1.2-1.2-2-1.8-2.5-2c-0.4-0.2-0.8,0-1.6,0.8l-1.2,1l-1-1c1.8-2,3.3-3.3,4.7-4.7
					c1.8-2,3.5-3.9,5.5-5.9c2.7-2.9,6.1-4.9,9.6-1.6c2.5,2.3,2.5,5.9,1,9l12.7,2.2c0.6,0,1.2,0,1.8,0c0.4,0,1-0.4,1.6-0.8l1.2,1.2
					c-1,1-1.8,1.8-2.7,2.7c-0.8,0.8-1.6,1.8-2.3,2.7l-16-2.9l-0.4-0.6c2.7-2.3,2.9-5.9,0.2-8.4c-2.3-2.2-5.1-1.8-7.2,0.4
					c-0.6,0.6-1.2,1.4-1.6,2.2l14.1,13.1c1.2,1.2,2,1.8,2.5,2c0.4,0.2,0.8-0.2,1.6-0.8l1.2-1l1.2,1.2c-1.2,1.2-2.7,2.7-4.3,4.3
					c-1.6,1.8-3.1,3.3-4.1,4.5l-1.2-1.2l1-1.2c0.6-0.8,0.8-1.2,0.8-1.6c-0.2-0.6-1-1.2-2.2-2.3L157.6,100.9z"/>
				<path fill="#FFFFFF" d="M182.3,76.4c-1-1.4-1.8-2.2-2.2-2.3c-0.4-0.2-0.8-0.2-1.8,0.4l-1.2,0.8l-1-1.2c2.2-1.6,3.7-2.7,5.1-3.5
					c2.2-1.6,5.3-4.1,8-6.3c6.8-5.1,12.7-5.3,18.2,1.8c5.7,7.6,2.5,16.6-4.3,21.5c-1.6,1.2-3.1,2.3-4.7,3.5
					c-1.6,1.2-3.1,2.3-4.7,3.7l-0.6-0.8l0.6-1.4c0.2-0.6,0-1.4-0.8-2.3L182.3,76.4z M198.3,88.4c1-0.6,2-1.2,2.9-2
					c6.3-4.7,6.8-10,2-16.2c-4.7-6.3-9.4-6.8-16.6-1.4c-0.6,0.4-1.2,1-1.8,1.6L198.3,88.4z"/>
				<path fill="#FFFFFF" d="M227,65.9c0.8,1.4,1.4,2.3,1.8,2.7c0.2,0.2,0.8,0.2,1.8-0.4l1.4-0.6l0.8,1.4c-1.4,0.8-3.3,1.8-5.5,2.9
					c-2.2,1.2-3.9,2.3-5.3,3.1l-0.8-1.4l1.2-0.8c0.8-0.6,1.2-1,1.2-1.2c0-0.6-0.6-1.6-1.4-2.9l-7.8-14.1c-0.8-1.4-1.4-2.3-1.8-2.7
					c-0.2-0.2-0.8-0.2-1.8,0.4l-1.4,0.6l-0.8-1.4c1.4-0.8,3.3-1.8,5.5-2.9c2-1.2,3.9-2.2,5.3-3.1l0.8,1.4l-1.2,0.8
					c-0.8,0.4-1,0.8-1,1.2c0,0.6,0.6,1.6,1.4,2.9L227,65.9z"/>
				<path fill="#FFFFFF" d="M233.3,44.6c-0.6-1.6-1-2.5-1.4-2.9c-0.4-0.4-0.8-0.4-1.8,0l-1.4,0.4l-0.6-1.4c1.6-0.6,2.9-1,4.5-1.6
					c1-0.4,2-0.8,3.1-1.4c2,1.2,3.7,2.3,5.7,3.5l16.6,9L253,37.1c-0.6-1.6-1-2.5-1.4-2.9c-0.4-0.4-0.8-0.4-1.8,0l-1.4,0.4l-0.6-1.4
					c1.4-0.6,2.9-1,4.3-1.6c1.4-0.6,2.7-1.2,4.1-1.8l0.6,1.4l-1.4,0.6c-1,0.4-1.2,0.8-1.4,1.2c0,0.6,0.2,1.6,0.8,3.1l6.5,16.8
					c0.6,1.4,1,2.5,1.6,3.7l-0.2,0.2l-3.1,0.6c-2.2-1.2-4.3-2.3-6.5-3.3l-17.4-9.8l0,0l5.5,14.5c0.6,1.6,1,2.5,1.4,2.9
					s0.8,0.4,1.8,0l1.4-0.4l0.6,1.4c-1.4,0.6-2.9,1-4.3,1.6c-1.4,0.6-2.7,1.2-4.3,1.8l-0.6-1.6l1.4-0.6c1-0.4,1.2-0.8,1.4-1.2
					c0-0.6-0.2-1.6-1-3.1L233.3,44.6z"/>
				<path fill="#FFFFFF" d="M277.3,37.5c1-0.2,1.8-0.2,2.5-0.4l2.5-0.6c1.4-0.2,2.2-0.6,2-1.2l-0.2-2.3l1.6-0.4
					c0.2,1.4,0.4,2.7,0.8,4.1c0.2,1.4,0.6,2.7,1,4.1l-1.6,0.4l-0.6-2c-0.4-1-1.2-1.2-2.5-1l-2.5,0.6c-0.8,0.2-1.8,0.4-2.5,0.6
					l2.2,10.4c1.6-0.2,3.3-0.6,4.9-1c1.8-0.4,4.5-1.4,4.5-1.6l0.2-3.9L291,43l0.8,6.3l-0.2,0.4c-2.5,0.8-7,1.6-9.6,2
					c-1.6,0.2-3.1,0.6-4.7,0.8c-1.6,0.4-3.1,0.8-4.7,1v-0.6l1.2-1c0.6-0.4,0.6-1.2,0.4-2.3l-3.5-17.2c-0.4-1.6-0.6-2.7-1-3.1
					c-0.2-0.4-0.8-0.4-1.8-0.4l-1.4,0.2l-0.2-1.4c2.5-0.4,4.5-0.8,6.1-1.2c3.7-0.8,6.3-1.4,8.4-1.8c2.2-0.4,3.9-0.8,5.7-1l0.2,0.2
					l0.6,5.7l-1.4,0.2l-1-2.9c-0.2-0.6-2.7-0.2-4.7,0.2c-1.8,0.4-3.3,0.8-4.9,1.2L277.3,37.5z"/>
				<path fill="#FFFFFF" d="M356.3,29.3c0.4-1.6,0.6-2.7,0.4-3.1c-0.2-0.4-0.4-0.8-1.4-1l-1.4-0.4l0.4-1.4c1.6,0.4,3.7,1,6.1,1.4
					c2.3,0.6,4.5,1,6.1,1.2l-0.4,1.4l-1.4-0.2c-1-0.2-1.4,0-1.8,0.4s-0.6,1.4-1,3.1l-2.2,9.6c-1.2,5.5-1.6,9,4.9,10.4
					c6.5,1.4,8-2,9.2-7.4L376,34c0.4-1.6,0.6-2.7,0.4-3.1c-0.2-0.4-0.4-0.8-1.4-1l-1.4-0.4l0.4-1.4c1.4,0.4,2.9,0.8,4.5,1.2
					c1.4,0.4,2.9,0.6,4.5,0.8l-0.4,1.4l-1.4-0.2c-1-0.2-1.4,0-1.8,0.4s-0.6,1.4-1,3.1L376,45.9c-1.6,7-6.1,9.4-13.1,7.8
					c-7.2-1.6-10.4-5.7-9.4-10L356.3,29.3z"/>
				<path fill="#FFFFFF" d="M395.4,39.9c0.6-1.6,1-2.5,1-3.1c0-0.4-0.4-0.8-1.2-1.2l-1.4-0.8l0.6-1.4c1.4,0.6,2.9,1.4,4.3,2
					c1,0.4,2.2,0.8,3.1,1.2c0.6,2.2,1,4.3,1.6,6.5l5.5,18l5.7-12.9c0.6-1.6,1-2.5,1-3.1c0-0.4-0.4-0.8-1.2-1.2L413,43l0.6-1.4
					c1.4,0.6,2.7,1.4,4.1,2c1.4,0.6,2.7,1.2,4.1,1.8l-0.6,1.4l-1.4-0.4c-1-0.4-1.4-0.4-1.8,0c-0.4,0.4-0.8,1.4-1.6,2.7l-7.2,16.4
					c-0.6,1.2-1,2.5-1.6,3.7h-0.4l-2.7-1.8c-0.8-2.3-1.6-4.7-2.2-7l-5.5-19.2l0,0l-6.3,14.1c-0.6,1.6-1,2.5-1,3.1
					c0,0.4,0.4,0.8,1.2,1.2l1.4,0.8l-0.6,1.4c-1.4-0.6-2.7-1.4-4.1-2c-1.4-0.6-2.7-1.2-4.3-1.8l0.6-1.4l1.4,0.4c1,0.4,1.4,0.4,1.8,0
					s0.8-1.4,1.6-2.7L395.4,39.9z"/>
				<path fill="#FFFFFF" d="M426.5,73.5c-0.8,1.4-1.4,2.3-1.4,2.9c0,0.4,0.2,0.8,1.2,1.4l1.2,0.8l-0.8,1.4c-1.4-1-3.1-2.2-5.1-3.3
					c-2-1.2-3.9-2.3-5.3-3.1l0.8-1.4l1.4,0.6c1,0.4,1.4,0.6,1.8,0.4c0.4-0.2,1-1.2,2-2.5l8.4-13.7c0.8-1.4,1.4-2.3,1.4-2.9
					c0-0.4-0.2-0.8-1.2-1.4l-1.2-0.8l0.8-1.4c1.4,1,3.1,2.2,5.1,3.3c2,1.2,3.9,2.3,5.3,3.1l-0.8,1.4l-1.4-0.6
					c-1-0.4-1.4-0.6-1.8-0.4c-0.4,0.2-1,1.2-2,2.5L426.5,73.5z"/>
				<path fill="#FFFFFF" d="M445.8,86.2l13.1-7.4c1.6-0.8,2.9-1.8,3.3-2.3c0.4-0.6,0.2-1.2-0.4-1.8l-1.4-1.2l1-1.2
					c1.6,1.2,2.5,2.2,3.5,2.9s2.2,1.6,3.7,2.7l-1,1.2l-1-0.8c-0.8-0.4-1.6-0.4-2.5,0.2l-18.8,10.2c-1.2,0.6-2.3,1.4-3.5,2.2l-2.3-2
					l6.6-23.5c0.4-1.2,0.8-2.7-0.2-3.7l-1.2-1.2l1-1.2c2,1.6,3.5,2.9,4.7,3.9c1.2,1,2.7,2.2,5.1,3.9l-1,1.2l-1.6-1.2
					c-0.4-0.4-1-0.4-1.4,0c-0.6,0.6-0.8,1.8-1.2,2.7L445.8,86.2z"/>
				<path fill="#FFFFFF" d="M471,98c0.6,0.8,1.2,1.4,1.8,2l1.8,2c1,1,1.6,1.6,2.2,1.2l1.8-1.4l1,1.2c-1,1-2.2,1.8-3.1,2.7
					c-1,1-2,2-3.1,2.9l-1-1.2l1.4-1.6c0.8-0.8,0.4-1.6-0.4-2.7l-1.8-2c-0.6-0.6-1.2-1.2-2-1.8l-7.8,7.2c1,1.2,2.2,2.5,3.3,3.7
					c1.2,1.4,3.5,3.1,3.7,3.1l3.3-1.8l1,1.2l-4.9,3.9h-0.4c-2-1.8-5.1-5.1-6.6-7c-1-1.2-2.2-2.3-3.1-3.7c-1.2-1.2-2.3-2.3-3.3-3.3
					l0.6-0.6l1.4,0.4c0.8,0.2,1.4-0.2,2.2-1l12.9-11.9c1.2-1.2,2-2,2.2-2.3c0.2-0.4,0-0.8-0.6-1.6l-1-1.2l1-1c1.8,2,3.1,3.5,4.1,4.5
					c2.5,2.7,4.5,4.7,6.1,6.3c1.6,1.6,2.7,2.9,3.9,4.3v0.4l-4.5,3.3l-1-1l2-2.2c0.4-0.4-1.4-2.5-2.5-3.9c-1.2-1.2-2.3-2.5-3.5-3.5
					L471,98z"/>
				<path fill="#FFFFFF" d="M491.8,112.2c1.4-1,2.2-1.6,2.5-2c0.2-0.4,0.2-0.8-0.4-1.8l-0.8-1.2l1.2-0.8c1.4,2.2,2.5,3.9,3.7,5.5
					c1.6,2.2,3.1,4.3,4.7,6.5c2.3,3.3,3.3,7-0.4,9.6c-2.9,2-6.3,1.2-9.2-1l-4.9,11.9c-0.2,0.4-0.4,1-0.4,1.6c0,0.4,0.2,1,0.4,1.6
					l-1.4,1c-0.6-1-1.4-2.2-2.2-3.1c-0.6-1-1.4-2-2.2-2.9L489,122l0.8-0.2c1.8,3.1,5.1,4.1,8.2,2c2.7-1.8,2.9-4.7,1.2-7.2
					c-0.4-0.6-1.2-1.6-1.8-2l-15.8,10.8c-1.4,1-2.2,1.6-2.5,2c-0.2,0.4,0,0.8,0.4,1.6l0.8,1.4l-1.4,1c-0.8-1.4-2-3.1-3.3-5.1
					c-1.4-2-2.5-3.7-3.5-5.1l1.4-1l1,1.2c0.6,0.8,1,1,1.4,1c0.6,0,1.4-0.6,2.7-1.6L491.8,112.2z"/>
				<path fill="#FFFFFF" d="M497.8,146.8l-2.9,1.8c-1.2,1.8-1,5.1,0,6.8c1.4,2.9,4.3,4.9,7.4,3.3c1.6-0.8,2.3-2.2,2-4.5l-1-5.7
					c-0.6-3.3,0.6-6.6,3.5-8c5.7-2.7,10,0.4,12.3,5.7c1,2.2,1.8,4.7,2,7.2l-0.4,0.4c-1.4,0.2-3.5,1-5.3,2l-0.8-1.4l2.7-1.6
					c0.8-1.6,0.6-3.9-0.4-5.7c-1.6-3.3-4.3-3.9-6.6-2.7c-1.6,0.8-2.2,2.5-1.6,5.5l0.8,4.5c0.8,3.7-0.4,6.8-3.5,8.2
					c-6.1,2.9-10.9-1-13.7-6.3c-1.2-2.5-2-5.5-2-8.2c2.3-0.6,4.3-1.4,6.5-2.3L497.8,146.8z"/>
				<path fill="#FFFFFF" d="M508.4,179.3c-1.6,0.6-2.5,1-2.9,1.4c-0.2,0.2-0.2,0.8,0,1.8l0.4,1.4l-1.6,0.6c-0.4-1.6-1.2-3.7-1.8-5.9
					c-0.8-2.2-1.6-4.3-2.2-5.9l1.6-0.6l0.6,1.4c0.4,1,0.8,1.4,1,1.4c0.6,0,1.6-0.2,3.1-0.8l15.3-5.1c1.6-0.6,2.5-1,2.9-1.4
					c0.2-0.2,0.2-0.8,0-1.8l-0.4-1.4l1.6-0.6c0.4,1.6,1.2,3.7,2,5.9c0.8,2.2,1.6,4.3,2.2,5.7l-1.6,0.6l-0.6-1.4
					c-0.4-1-0.8-1.4-1-1.4c-0.6,0-1.6,0.2-3.1,0.8L508.4,179.3z"/>
				<path fill="#FFFFFF" d="M514.4,202.9c-1.6,0.4-2.7,0.6-3.1,1c-0.2,0.2-0.4,0.6-0.2,1.8l0.2,1.4l-1.6,0.4
					c-0.2-1.6-0.6-3.7-1.2-6.1c-0.4-2.3-1-4.5-1.4-6.1l1.6-0.4l0.4,1.4c0.2,1,0.6,1.4,0.8,1.6c0.6,0.2,1.6,0,3.1-0.4l18.8-3.7
					l-1-4.5c-0.2-1-0.4-2.2-0.8-2.3c-0.2-0.2-0.6-0.2-1-0.2l-2.7,0.4l-0.4-1.6c2.5-0.6,4.3-1,6.1-1.8l0.2,0.2
					c0.8,4.1,1.6,8,2.3,11.9c0.8,3.9,1.8,8,2.5,11.9l-0.2,0.2c-2,0-3.7,0.4-6.3,0.8l-0.4-1.6l2.5-0.8c0.4-0.2,0.8-0.4,0.8-0.6
					c0.4-0.4,0-1.4-0.2-2.5l-1-4.5L514.4,202.9z"/>
				<path fill="#FFFFFF" d="M539.7,238.5l0.2,2.9h-0.8l-10.6-6.5c-1.2-0.8-2.7-1.4-4.1-2l-6.5,0.4c-1.6,0-2.7,0.2-3.1,0.4
					c-0.4,0.2-0.4,0.6-0.4,1.6v1.4h-1.6c0-1.6,0-3.7-0.2-6.1c-0.2-2.3-0.4-4.5-0.4-6.1h1.6l0.2,1.4c0.2,1,0.4,1.4,0.6,1.6
					c0.4,0.2,1.6,0.2,3.1,0.2l5.5-0.2c1.8-0.8,2.5-1.4,3.3-2l6.3-4.3c0.8-0.6,1.8-1.6,2.5-2.2c1-1,1.2-1.8,1.2-3.1h1.4l1.8,6.3
					c-1.2,2.2-3.1,3.5-5.1,4.7l-7.8,4.7L539.7,238.5z"/>
			</g>
			<path d="M320.1,240.1"/>
		</g>
		<g id="FREELY_YE_RECEIVED__x2022__FREELY_GIVE" display="none">
			<g display="inline">
				<path d="M159.2,372.9c0.2,0.4,0.6,0.8,0.8,1l0.6,0.8c0.4,0.6,0.8,0.8,1,0.6l0.8-0.6l0.6,0.6c-0.4,0.4-1,0.8-1.6,1.2
					c-0.6,0.4-1,1-1.6,1.4l-0.4-0.6l0.6-0.8c0.4-0.4,0.2-0.8-0.2-1.4l-0.6-0.8c-0.2-0.4-0.6-0.6-0.8-1l-2.7,2.3
					c-0.6,0.6-1,0.8-1.2,1.2c0,0.2,0,0.4,0.4,0.8l0.6,0.8l-0.6,0.4c-0.6-0.8-1.2-1.6-2-2.5c-0.8-1-1.4-1.6-2-2.3l0.6-0.4l0.6,0.6
					c0.4,0.4,0.6,0.4,0.8,0.4s0.6-0.4,1.4-1l6.1-4.9c0.6-0.6,1-0.8,1.2-1.2c0-0.2,0-0.4-0.2-0.8l-0.4-0.6l0.6-0.4
					c0.8,1,1.4,1.8,2,2.3c1,1.2,1.8,2.2,2.5,2.9c0.8,0.8,1.2,1.4,1.8,2.2v0.2l-2.3,1.6l-0.4-0.6l1-1c0.2-0.2-0.6-1.2-1.2-2
					c-0.4-0.4-0.8-1-1.4-1.6L159.2,372.9z"/>
				<path d="M167.4,377.4c0.6-0.6,1-1,1-1.2s0-0.4-0.4-0.8l-0.4-0.6l0.6-0.4c0.8,1,1.6,1.8,2.2,2.3c1,1,1.8,1.8,2.7,2.7
					c1.4,1.4,2.2,3.1,0.6,4.7c-1.2,1.2-2.9,1-4.5,0.2l-1.4,6.1c0,0.2,0,0.6,0,0.8c0,0.2,0.2,0.4,0.4,0.8l-0.6,0.6
					c-0.4-0.4-0.8-1-1.2-1.4c-0.4-0.4-0.8-0.8-1.2-1.2l2-7.6l0.4-0.2c1.2,1.4,2.7,1.6,4.1,0.4c1.2-1,1-2.3,0-3.5
					c-0.2-0.2-0.6-0.6-1-0.8l-6.8,6.5c-0.6,0.6-1,1-1,1.2c0,0.2,0,0.4,0.4,0.8v0.4l-0.6,0.6c-0.6-0.6-1.2-1.4-2-2.2
					c-0.8-0.8-1.6-1.6-2.2-2.2l0.6-0.6l0.6,0.4c0.4,0.4,0.6,0.4,0.8,0.4c0.2,0,0.6-0.4,1.2-1L167.4,377.4z"/>
				<path d="M177.2,391.6c0.4,0.4,0.6,0.6,1,1l1,0.8c0.4,0.4,0.8,0.8,1,0.4l0.8-0.8l0.6,0.6c-0.4,0.6-1,1-1.4,1.4
					c-0.4,0.6-1,1-1.4,1.6l-0.6-0.6l0.6-0.8c0.4-0.4,0.2-0.8-0.4-1.2l-1-0.8c-0.4-0.2-0.6-0.6-1-0.8l-3.5,3.7
					c0.6,0.6,1.2,1.2,1.8,1.8c0.6,0.6,1.8,1.4,2,1.4l1.6-1l0.6,0.6l-2.2,2.2h-0.2c-1-0.8-2.5-2.3-3.5-3.1c-0.6-0.6-1.2-1.2-1.8-1.6
					c-0.6-0.6-1.2-1-1.8-1.6l0.4-0.4l0.8,0.2c0.4,0,0.6-0.2,1-0.6l5.9-6.3c0.6-0.6,1-1,1-1.2s0-0.4-0.4-0.8l-0.4-0.6l0.4-0.6
					c1,0.8,1.6,1.6,2.2,2.2c1.4,1.2,2.3,2.2,3.1,2.7c0.8,0.8,1.4,1.4,2,2v0.2l-2,1.8l-0.6-0.4l0.8-1.2c0.2-0.2-0.8-1.2-1.4-1.8
					c-0.6-0.6-1.2-1.2-1.8-1.6L177.2,391.6z"/>
				<path d="M186.4,399.8c0.4,0.4,0.6,0.6,1,0.8l1,0.8c0.6,0.4,0.8,0.6,1.2,0.4l0.8-0.8l0.6,0.4c-0.4,0.6-1,1-1.4,1.6
					c-0.4,0.6-0.8,1.2-1.4,1.6l-0.6-0.6l0.6-0.8c0.4-0.4,0.2-0.8-0.4-1.2l-1-0.8c-0.4-0.2-0.6-0.6-1-0.8l-3.3,3.9
					c0.6,0.6,1.2,1.2,1.8,1.6c0.6,0.6,2,1.4,2,1.2l1.6-1.2l0.6,0.4l-2.2,2.2H186c-1-0.8-2.7-2.2-3.7-2.9c-0.6-0.6-1.2-1-1.8-1.6
					s-1.2-1-1.8-1.4l0.2-0.4l0.8,0.2c0.4,0,0.6-0.2,1-0.6l5.5-6.6c0.6-0.6,0.8-1,1-1.4c0-0.2,0-0.4-0.4-0.8l-0.6-0.6l0.4-0.6
					c1,0.8,1.8,1.6,2.3,2c1.4,1.2,2.3,2,3.3,2.5c0.8,0.6,1.6,1.2,2.2,1.8v0.2l-2,2l-0.6-0.4l0.8-1.2c0.2-0.2-0.8-1.2-1.4-1.8
					c-0.6-0.6-1.4-1-2-1.6L186.4,399.8z"/>
				<path d="M192.4,412.4c0.6,0.6,1.4,1,2,1.6c0.8,0.6,2,1.2,2.2,1.2l1.6-1.4l0.6,0.4l-2,2.3h-0.2c-1-0.6-2.9-2-3.9-2.7
					c-0.6-0.4-1.2-1-2-1.4c-0.6-0.4-1.4-1-2-1.4l0.2-0.4h0.8c0.4,0,0.6-0.2,1-0.6l5.1-6.8c0.4-0.6,0.8-1.2,0.8-1.4
					c0-0.2,0-0.4-0.4-0.6l-0.6-0.4l0.4-0.6c0.6,0.4,1.4,1.2,2.3,1.8c1,0.6,1.8,1.2,2.3,1.8l-0.4,0.6l-0.6-0.4
					c-0.4-0.2-0.6-0.4-0.8-0.2c-0.2,0.2-0.6,0.6-1,1.2L192.4,412.4z"/>
				<path d="M214.5,412.9l1.2,0.8l-0.2,0.4l-5.5,2.3c-0.6,0.2-1.4,0.6-2,1l-1.8,2.5c-0.4,0.6-0.8,1.2-0.8,1.4c0,0.2,0.2,0.4,0.6,0.6
					l0.6,0.4l-0.4,0.6c-0.6-0.4-1.6-1-2.5-1.6c-1-0.6-2-1.2-2.5-1.6l0.4-0.6l0.6,0.4c0.4,0.2,0.6,0.2,0.8,0.2c0.2-0.2,0.6-0.6,1-1.2
					l1.4-2.2c0.2-1,0.2-1.4,0.2-1.8V411c0-0.6,0-1.2-0.2-1.6c-0.2-0.6-0.4-1-1-1.4l0.4-0.6l2.9,1c0.6,1,0.6,2.2,0.4,3.3l-0.4,4.3
					L214.5,412.9z"/>
				<path d="M230.5,421.7l1.4,0.6l-0.2,0.4l-5.3,2.9c-0.6,0.4-1.2,0.8-1.8,1.2l-1.4,2.7c-0.4,0.8-0.6,1.2-0.6,1.4s0.2,0.4,0.6,0.6
					l0.6,0.4l-0.4,0.6c-0.6-0.4-1.6-1-2.5-1.4c-1-0.6-2-1-2.7-1.4l0.4-0.6l0.6,0.2c0.4,0.2,0.6,0.2,0.8,0.2c0.2-0.2,0.4-0.6,0.8-1.4
					l1.2-2.3c0-1,0-1.4,0-1.8l-0.2-3.7c0-0.6-0.2-1.2-0.2-1.6c-0.2-0.6-0.4-1-1-1.2l0.4-0.6l2.9,0.8c0.6,1,0.8,2.2,0.8,3.3v4.3
					L230.5,421.7z"/>
				<path d="M234.7,429.9c0.4,0.2,0.8,0.4,1.2,0.6l1.2,0.6c0.6,0.2,1,0.4,1.2,0l0.6-1l0.8,0.4c-0.4,0.6-0.6,1.2-1,1.8
					c-0.2,0.6-0.6,1.2-0.8,2l-0.8-0.4l0.2-1c0.2-0.6,0-0.8-0.8-1.2l-1.2-0.6c-0.4-0.2-0.8-0.4-1.2-0.4l-2.2,4.7
					c0.8,0.4,1.4,0.8,2.2,1c0.8,0.4,2.2,0.8,2.3,0.6l1.2-1.4l0.6,0.4l-1.4,2.7l-0.2,0.2c-1.2-0.4-3.1-1.4-4.3-1.8
					c-0.8-0.4-1.4-0.8-2.2-1c-0.8-0.4-1.6-0.6-2.2-1l0.2-0.4h0.8c0.4,0,0.6-0.4,0.8-0.8l3.5-7.8c0.4-0.8,0.6-1.2,0.6-1.6
					c0-0.2-0.2-0.4-0.6-0.6l-0.6-0.4l0.2-0.6c1.2,0.6,2,1,2.7,1.2c1.6,0.8,2.9,1.2,3.9,1.6s1.8,0.8,2.5,1.2v0.2l-1.4,2.3l-0.6-0.2
					l0.4-1.4c0-0.2-1-0.8-2-1.2c-0.8-0.4-1.6-0.6-2.3-1L234.7,429.9z"/>
				<path d="M249.5,432.7c0.2-0.8,0.4-1.2,0.4-1.6c0-0.2-0.2-0.4-0.6-0.6l-0.6-0.2l0.2-0.6c1.2,0.4,2.2,0.8,2.9,1.2
					c1.2,0.4,2.5,0.8,3.7,1.2c2,0.6,3.3,1.8,2.5,3.9c-0.6,1.6-2.2,2.3-3.7,2.3l1.6,6.1c0,0.2,0.2,0.6,0.4,0.8s0.4,0.4,0.6,0.6
					l-0.2,0.8c-0.6-0.2-1.2-0.4-1.8-0.6s-1.2-0.4-1.6-0.6l-2-7.6l0.2-0.2c1.6,0.8,3.1,0,3.7-1.6c0.6-1.6-0.2-2.5-1.8-3.1
					c-0.4-0.2-0.8-0.2-1.2-0.2l-2.9,8.8c-0.2,0.8-0.4,1.2-0.4,1.6c0,0.2,0.2,0.4,0.6,0.6l0.6,0.2l-0.2,0.8c-0.8-0.2-1.8-0.6-2.7-1
					c-1.2-0.4-2.2-0.6-2.9-1l0.2-0.8l0.8,0.2c0.4,0.2,0.8,0.2,0.8,0c0.2-0.2,0.4-0.6,0.6-1.4L249.5,432.7z"/>
				<path d="M265,440.9c0.4,0.2,0.8,0.2,1.2,0.4l1.2,0.4c0.6,0.2,1,0.2,1.2-0.2l0.4-1l0.8,0.2c-0.2,0.6-0.4,1.4-0.6,2
					c-0.2,0.6-0.4,1.4-0.4,2l-0.8-0.2l0.2-1c0-0.6-0.2-0.8-0.8-1l-1.2-0.4c-0.4-0.2-0.8-0.2-1.2-0.2l-1.4,4.9
					c0.8,0.2,1.6,0.4,2.3,0.8c0.8,0.2,2.3,0.4,2.3,0.2l1-1.6l0.8,0.2l-1,2.9l-0.2,0.2c-1.2-0.2-3.3-0.8-4.5-1.2
					c-0.8-0.2-1.6-0.4-2.3-0.6c-0.8-0.2-1.6-0.4-2.2-0.6l0.2-0.4l0.6-0.2c0.4,0,0.6-0.4,0.6-1l2.2-8.2c0.2-0.8,0.4-1.4,0.2-1.6
					c0-0.2-0.2-0.4-0.6-0.6l-0.6-0.2l0.2-0.6c1.2,0.4,2.2,0.6,2.9,0.8c1.8,0.4,2.9,0.8,4.1,1c1,0.2,1.8,0.4,2.7,0.8v0.2l-1,2.5
					l-0.6-0.2l0.2-1.4c0-0.2-1.2-0.8-2-1c-0.8-0.2-1.6-0.4-2.3-0.6L265,440.9z"/>
				<path d="M283.3,451.6c-1.4,0.6-2.9,0.4-4.5,0.2c-4.3-0.8-7-3.9-6.1-8.4c0.8-4.3,4.9-5.7,8.8-4.9c1.6,0.4,2.7,0.8,4.5,1.8v0.2
					c-0.4,0.6-0.8,2-1,2.7l-0.8-0.2l0.2-1.6c-0.8-1.2-1.8-1.8-3.1-2c-3.1-0.6-5.3,1.2-5.9,4.3c-0.8,3.3,0.8,6.3,4.3,7
					c1.2,0.2,2.7,0.2,3.7-0.2l0.2,0.2L283.3,451.6z"/>
				<path d="M291.4,446.2c0.4,0.2,0.8,0.2,1.2,0.2l1.2,0.2c0.6,0,1,0.2,1.2-0.2l0.2-1l0.8,0.2c-0.2,0.6-0.2,1.4-0.4,2
					c0,0.6-0.2,1.4-0.2,2h-0.8v-1c0-0.6-0.4-0.8-1-0.8l-1.2-0.2c-0.4,0-0.8,0-1.4-0.2l-0.6,5.1c0.8,0.2,1.6,0.2,2.3,0.4
					s2.3,0.2,2.3,0l0.6-1.8h0.8l-0.6,2.9l-0.2,0.2c-1.2,0-3.5-0.4-4.7-0.6c-0.8-0.2-1.6-0.2-2.3-0.4c-0.8-0.2-1.6-0.2-2.3-0.2v-0.4
					l0.6-0.2c0.4-0.2,0.4-0.4,0.6-1l1.2-8.4c0.2-0.8,0.2-1.4,0-1.6c0-0.2-0.2-0.4-0.8-0.4l-0.8-0.2v-0.8c1.2,0.2,2.2,0.4,2.9,0.4
					c1.8,0.2,3.1,0.4,4.1,0.6s2,0.2,2.7,0.4v0.2l-0.6,2.7h-0.6V443c0-0.2-1.2-0.6-2.2-0.6c-0.8-0.2-1.6-0.2-2.3-0.2L291.4,446.2z"/>
				<path d="M303.3,452.2c0,0.8,0,1.4,0,1.6c0,0.2,0.2,0.2,0.8,0.4l0.8,0.2v0.8c-0.8,0-1.8-0.2-2.9-0.4c-1.2,0-2.2-0.2-2.9-0.2v-0.8
					h0.8c0.6,0,0.8,0,0.8-0.2c0.2-0.2,0.2-0.8,0.2-1.6l0.6-7.8c0-0.8,0-1.4,0-1.6s-0.2-0.2-0.8-0.4l-0.8-0.2v-0.8
					c0.8,0,1.8,0.2,2.9,0.4c1.2,0,2.2,0.2,2.9,0.2v0.8h-0.8c-0.6,0-0.8,0-0.8,0.2c-0.2,0.2-0.2,0.8-0.2,1.6L303.3,452.2z"/>
				<path d="M315,452.2l2.9-6.6c0.4-0.8,0.6-1.6,0.6-1.8c0-0.4-0.4-0.6-0.8-0.6H317v-0.8c1,0,1.8,0.2,2.2,0.2c0.6,0,1.2,0,2.2,0v0.8
					h-0.6c-0.4,0-0.6,0.4-1,0.8l-4.3,9.4c-0.2,0.6-0.6,1.2-0.8,2h-1.4l-4.3-10.9c-0.2-0.6-0.6-1.4-1.2-1.4H307v-0.8
					c1.2,0,2.2,0.2,2.9,0.2s1.8,0,3.1,0v0.8h-1c-0.2,0-0.6,0.2-0.6,0.4c0,0.4,0.2,1,0.4,1.4L315,452.2z"/>
				<path d="M327.3,447.9c0.4,0,0.8,0,1.4,0h1.2c0.6,0,1,0,1-0.4v-1.2h0.8c0,0.6,0,1.4,0,2c0,0.8,0,1.4,0.2,2.2H331l-0.2-1
					c0-0.6-0.4-0.8-1.2-0.6h-1.2c-0.4,0-0.8,0-1.4,0.2l0.2,5.1c0.8,0,1.6,0,2.5,0c0.8,0,2.3-0.2,2.3-0.4l0.4-1.8h0.8v2.9v0.2
					c-1.2,0.2-3.5,0.2-4.7,0.2c-0.8,0-1.6,0-2.3,0s-1.6,0.2-2.3,0.2v-0.4l0.6-0.4c0.4-0.2,0.4-0.6,0.4-1.2l-0.4-8.6
					c0-0.8,0-1.4-0.2-1.6s-0.4-0.2-0.8-0.4h-0.8v-0.8c1.2,0,2.2,0,2.9,0c1.8,0,3.1-0.2,4.1-0.2s2,0,2.7,0l0.2,0.2l-0.2,2.7h-0.8
					l-0.2-1.4c0-0.2-1.4-0.4-2.2-0.2c-0.8,0-1.6,0-2.3,0.2L327.3,447.9z"/>
				<path d="M336.5,444.4c0-0.8-0.2-1.4-0.4-1.6c-0.2-0.2-0.4-0.2-0.8-0.2h-0.8v-0.8c1.2-0.2,2.2-0.2,2.9-0.2
					c1.2-0.2,3.1-0.4,4.9-0.6c4.1-0.4,6.6,1,7,5.3c0.4,4.5-3.1,7.6-7.2,7.8c-1,0-2,0.2-2.9,0.2c-1,0.2-2,0.2-2.9,0.4v-0.4l0.6-0.4
					c0.2-0.2,0.4-0.6,0.2-1.2L336.5,444.4z M340.2,453.4c0.6,0,1.2,0,1.6,0c3.7-0.4,5.3-2.3,4.9-6.3c-0.4-3.7-2.2-5.1-6.5-4.7
					c-0.4,0-0.8,0.2-1.2,0.2L340.2,453.4z"/>
				<path d="M361.5,441.3c1.8-0.4,3.5,0.8,3.9,2.5c0.4,1.8-0.8,3.5-2.5,3.9c-1.8,0.4-3.5-0.8-3.9-2.5
					C358.6,443.4,359.8,441.7,361.5,441.3z"/>
				<path d="M378.4,439.9c0.4,0,0.8-0.2,1.2-0.4l1-0.2c0.6-0.2,1-0.4,1-0.8l-0.2-1l0.8-0.2c0.2,0.6,0.4,1.2,0.6,2
					c0.2,0.6,0.4,1.4,0.6,2l-0.8,0.2l-0.4-1c-0.2-0.6-0.6-0.6-1.2-0.4l-1,0.2c-0.4,0.2-0.8,0.2-1.2,0.4l1,3.5
					c0.2,0.8,0.4,1.2,0.6,1.4c0.2,0.2,0.4,0.2,0.8,0l1-0.2l0.2,0.8c-1,0.2-2,0.6-3.1,0.8c-1.2,0.4-2.2,0.6-2.9,1l-0.2-0.8l0.6-0.2
					c0.4-0.2,0.6-0.4,0.6-0.4c0-0.2,0-0.8-0.4-1.6l-2.2-7.4c-0.2-0.8-0.4-1.2-0.6-1.4s-0.4-0.2-0.8,0l-0.8,0.2l-0.2-0.6
					c1.2-0.4,2.2-0.6,2.9-0.8c1.4-0.4,2.7-0.8,3.7-1.2c1-0.4,1.8-0.6,2.7-0.8h0.2l0.6,2.7l-0.6,0.2l-0.6-1.4c-0.2-0.2-1.4,0-2.2,0.2
					c-0.6,0.2-1.4,0.4-2,0.6L378.4,439.9z"/>
				<path d="M385.8,434.4c-0.2-0.8-0.4-1.2-0.6-1.4c-0.2-0.2-0.4-0.2-0.8,0l-0.6,0.2l-0.2-0.6c1.2-0.4,2.2-0.8,3.1-1
					c1.2-0.4,2.3-1,3.7-1.4c1.8-0.8,3.7-0.8,4.5,1.4c0.6,1.6-0.2,3.1-1.6,4.1l5.1,3.7c0.2,0.2,0.4,0.2,0.8,0.4c0.2,0,0.4,0,0.8,0
					l0.2,0.8c-0.6,0.2-1.2,0.4-1.8,0.6s-1,0.4-1.6,0.6l-6.3-4.7v-0.4c1.8-0.4,2.5-2,2-3.5c-0.6-1.6-1.8-2-3.3-1.4
					c-0.4,0.2-0.8,0.4-1.2,0.6l3.1,8.8c0.2,0.8,0.4,1.2,0.6,1.4c0.2,0.2,0.4,0.2,0.8,0l0.6-0.2l0.2,0.8c-0.8,0.2-1.8,0.6-2.7,1
					c-1.2,0.4-2.2,0.8-2.7,1l-0.2-0.8l0.6-0.4c0.4-0.2,0.6-0.4,0.6-0.6s-0.2-0.8-0.4-1.6L385.8,434.4z"/>
				<path d="M402.8,431.1c0.4-0.2,0.8-0.4,1.2-0.4l1.2-0.6c0.6-0.2,1-0.4,0.8-0.8l-0.4-1l0.8-0.4c0.2,0.6,0.6,1.2,0.8,2
					c0.2,0.6,0.6,1.2,0.8,2l-0.8,0.4l-0.4-0.8c-0.2-0.4-0.6-0.4-1.4-0.2l-1.2,0.6c-0.4,0.2-0.8,0.4-1.2,0.6l2,4.7
					c0.8-0.2,1.6-0.6,2.3-1c0.8-0.4,2-1,2-1.2l-0.4-1.8l0.6-0.4l1,2.9v0.2c-1.2,0.6-3.1,1.6-4.3,2c-0.8,0.4-1.4,0.6-2.2,1
					c-0.8,0.4-1.4,0.6-2.2,1l-0.2-0.4l0.4-0.6c0.2-0.2,0.2-0.6,0-1.2l-3.5-7.8c-0.4-0.8-0.6-1.2-0.8-1.4c-0.2-0.2-0.4-0.2-0.8,0
					l-0.6,0.2l-0.2-0.6c1.2-0.4,2.2-0.8,2.7-1.2c1.6-0.8,2.7-1.2,3.9-1.8c1-0.4,1.8-0.8,2.5-1h0.2l0.8,2.5l-0.6,0.2l-0.8-1.2
					c-0.2-0.2-1.4,0.2-2.2,0.6c-0.8,0.4-1.6,0.6-2.2,1L402.8,431.1z"/>
				<path d="M414.1,425.8c0.4-0.2,0.8-0.4,1.2-0.6l1.2-0.6c0.6-0.4,1-0.6,0.8-0.8l-0.4-1l0.6-0.4c0.4,0.6,0.6,1.2,1,1.8
					c0.4,0.6,0.6,1.2,1,1.8l-0.6,0.4l-0.6-0.8c-0.4-0.4-0.8-0.4-1.4-0.2l-1.2,0.6c-0.4,0.2-0.8,0.4-1.2,0.6l2.3,4.5
					c0.8-0.4,1.6-0.8,2.2-1c0.8-0.4,2-1.2,2-1.4l-0.4-1.8l0.6-0.4l1.2,2.7v0.2c-1,0.6-3.1,1.6-4.1,2.2c-0.8,0.4-1.4,0.6-2.2,1
					c-0.8,0.4-1.4,0.8-2,1.2l-0.2-0.4l0.4-0.6c0.2-0.2,0.2-0.6-0.2-1.2l-3.9-7.6c-0.4-0.8-0.6-1.2-0.8-1.4c-0.2-0.2-0.4-0.2-0.8,0
					l-0.6,0.2l-0.4-0.6c1.2-0.6,2-1,2.7-1.4c1.6-0.8,2.7-1.4,3.7-2c1-0.6,1.8-1,2.5-1.2h0.2l1,2.5l-0.6,0.4l-0.8-1.2
					c-0.2-0.2-1.4,0.2-2.2,0.6c-0.8,0.4-1.4,0.8-2.2,1.2L414.1,425.8z"/>
				<path d="M428,425.3c0.8-0.4,1.4-0.8,2.2-1.2c0.8-0.4,2-1.4,1.8-1.4l-0.6-2l0.6-0.4l1.4,2.9v0.2c-1,0.8-2.9,1.8-4.1,2.3
					c-0.8,0.4-1.4,0.8-2.2,1.2c-0.8,0.4-1.4,0.8-2,1.2l-0.2-0.4l0.4-0.6c0.2-0.4,0-0.6-0.2-1.2l-4.3-7.4c-0.4-0.8-0.8-1.2-1-1.2
					s-0.4,0-0.8,0.2l-0.6,0.4l-0.4-0.6c0.8-0.4,1.6-0.8,2.5-1.4c1-0.6,2-1.2,2.5-1.6l0.4,0.6l-0.6,0.4c-0.4,0.2-0.6,0.4-0.6,0.6
					s0.2,0.8,0.6,1.4L428,425.3z"/>
				<path d="M437.4,405.5l1.2-0.8l0.2,0.4v6.1c0,0.8,0.2,1.4,0.2,2.2l1.8,2.5c0.4,0.6,0.8,1.2,1,1.2s0.4,0,0.8-0.2l0.6-0.4l0.4,0.6
					c-0.6,0.4-1.6,1-2.5,1.6c-1,0.6-1.8,1.2-2.5,1.8l-0.4-0.6l0.6-0.4c0.4-0.4,0.6-0.4,0.6-0.6c0-0.2-0.4-0.8-0.8-1.4l-1.6-2.2
					c-0.8-0.4-1.2-0.6-1.6-1l-3.3-1.6c-0.4-0.2-1-0.4-1.6-0.6c-0.6-0.2-1,0-1.6,0.4l-0.4-0.6l2.2-2.3c1.2,0,2.3,0.4,3.3,1l3.9,2.2
					L437.4,405.5z"/>
				<path d="M461.8,401.6c-1,1.6-2.2,3.1-3.5,4.5c-3.3,2.7-7.4,2.9-10.4-0.6c-2.7-3.3-1.4-7.4,1.8-10c1.4-1.2,2.7-2.2,4.7-2.7h0.2
					c0.4,0.6,1.2,1.8,1.6,2.5l-0.6,0.4l-1.2-1.2c-1.2-0.2-2.7,0.6-3.9,1.6c-2.5,2-2.3,4.9-0.4,7.2c2.2,2.5,5.3,3.7,7.8,1.6
					c0.6-0.6,1.2-1.2,1.6-2l-1.6-2c-0.4-0.4-0.8-0.2-1.4,0.2l-0.8,0.6l-0.6-0.6c0.8-0.6,1.6-1.2,2.2-1.8c0.8-0.6,1.4-1.2,2.2-1.8
					l0.4,0.6c-0.4,0.6-0.4,0.6-0.2,1L461.8,401.6z"/>
				<path d="M466.3,394.9c0.6,0.6,1,1,1.2,1s0.4,0,0.8-0.4l0.6-0.4l0.6,0.6c-0.6,0.6-1.4,1.2-2.2,2c-0.8,0.8-1.6,1.6-2.2,2.2
					l-0.6-0.6l0.4-0.6c0.4-0.4,0.4-0.6,0.4-0.8s-0.4-0.6-1-1.2l-5.3-5.7c-0.6-0.6-1-1-1.2-1c-0.2,0-0.4,0-0.8,0.4l-0.6,0.4l-0.6-0.6
					c0.6-0.6,1.4-1.2,2.2-2c0.8-0.8,1.6-1.6,2.2-2.2l0.6,0.6l-0.4,0.6c-0.4,0.4-0.4,0.6-0.4,0.8s0.4,0.6,1,1.2L466.3,394.9z"/>
				<path d="M474.4,386.3l-2.9-6.6c-0.4-0.8-0.8-1.6-1-1.8c-0.2-0.2-0.6-0.2-0.8,0.2l-0.6,0.6l-0.6-0.4c0.6-0.6,1.2-1.2,1.6-1.6
					c0.4-0.4,0.8-1,1.6-1.6l0.6,0.4l-0.4,0.4c-0.2,0.4-0.2,0.8,0,1.2l4.1,9.4c0.2,0.6,0.6,1.2,0.8,1.8l-1,1l-11.1-4.3
					c-0.6-0.2-1.4-0.6-1.8,0l-0.6,0.6l-0.6-0.4c1-1,1.6-1.6,2.2-2.2c0.6-0.6,1.2-1.2,2.2-2.3l0.6,0.4l-0.6,0.8
					c-0.2,0.2-0.2,0.6,0,0.6c0.2,0.2,0.8,0.6,1.2,0.6L474.4,386.3z"/>
				<path d="M479.6,374.4c0.4-0.4,0.6-0.6,0.8-1l0.8-1c0.4-0.6,0.6-0.8,0.4-1.2l-0.8-0.8l0.6-0.6c0.6,0.4,1,1,1.6,1.4
					c0.6,0.4,1.2,0.8,1.6,1.4l-0.6,0.6l-0.8-0.6c-0.4-0.4-0.8-0.2-1.2,0.4l-0.8,1c-0.2,0.4-0.6,0.6-0.8,1l3.9,3.3
					c0.6-0.6,1.2-1.2,1.6-1.8c0.6-0.6,1.4-2,1.2-2l-1.2-1.6l0.4-0.6l2.2,2.2v0.2c-0.8,1-2.2,2.7-2.9,3.7c-0.6,0.6-1,1.2-1.6,1.8
					c-0.6,0.6-1,1.2-1.4,1.8l-0.4-0.2l0.2-0.8c0-0.4-0.2-0.6-0.6-1l-6.6-5.5c-0.6-0.6-1-0.8-1.4-1c-0.2,0-0.4,0-0.8,0.4l-0.6,0.6
					l-0.6-0.4c0.8-1,1.6-1.8,2-2.2c1.2-1.4,2-2.3,2.7-3.3c0.6-0.8,1.2-1.6,1.8-2.2h0.2l2,2l-0.4,0.6l-1.2-0.8
					c-0.2-0.2-1.2,0.8-1.8,1.4c-0.6,0.6-1,1.4-1.6,2L479.6,374.4z"/>
			</g>
			<path display="inline" d="M320.1,240.1"/>
		</g>
	</g>
</g>
<g id="For_watermark_only" opacity="0.7">
	<g>
		<path fill="#FFFFFF" d="M149,356c0.2,0.4,0.6,0.8,0.8,1.2l0.8,1c0.4,0.6,0.8,1,1.2,0.8l1-0.6l0.6,0.8c-0.6,0.4-1.2,0.8-1.8,1.4
			c-0.6,0.4-1.2,1-1.8,1.4l-0.6-0.8l0.8-0.8c0.4-0.4,0.4-0.8-0.2-1.6l-0.8-1c-0.4-0.4-0.6-0.8-1-1.2l-3.1,2.3
			c-0.8,0.6-1.2,1-1.4,1.2c0,0.2,0,0.4,0.4,1l0.6,1l-0.8,0.6c-0.6-1-1.4-2-2.2-2.9c-0.8-1.2-1.6-2-2.2-2.7l0.8-0.6l0.6,0.6
			c0.4,0.4,0.6,0.6,0.8,0.6c0.2,0,0.8-0.4,1.6-1l7-5.3c0.8-0.6,1.2-1,1.4-1.2c0.2-0.2,0-0.4-0.2-1l-0.4-0.8l0.6-0.4
			c0.8,1.2,1.6,2.2,2.2,2.9c1,1.4,2,2.5,2.7,3.5c0.8,1,1.4,1.8,2,2.7v0.2l-2.5,1.6l-0.4-0.6l1.2-1.2c0.2-0.2-0.6-1.6-1.2-2.3
			c-0.4-0.4-1-1.2-1.6-2L149,356z"/>
		<path fill="#FFFFFF" d="M157.6,361.3c0.8-0.6,1.2-1,1.2-1.2s0-0.4-0.4-1l-0.4-0.6l0.6-0.6c1,1.2,1.6,2.2,2.3,2.9
			c1,1.2,2,2.3,2.9,3.5c1.6,1.8,2.3,3.7,0.4,5.5c-1.4,1.2-3.3,1-5.1-0.2l-2,6.8c0,0.2-0.2,0.6,0,1c0,0.2,0.2,0.6,0.4,1l-0.6,0.6
			c-0.4-0.6-1-1.2-1.4-1.8c-0.4-0.6-1-1-1.4-1.6l2.5-8.6l0.4-0.2c1.2,1.8,3.1,2.2,4.7,0.8c1.4-1.2,1.2-2.7,0.2-4.1
			c-0.4-0.4-0.8-0.8-1-1l-8,6.8c-0.8,0.6-1.2,1-1.2,1.2s0,0.4,0.4,1l0.4,0.6l-0.6,0.6c-0.6-0.8-1.4-1.8-2.2-2.7s-1.8-2-2.3-2.7
			l0.6-0.6l0.6,0.6c0.4,0.4,0.6,0.6,0.8,0.6c0.2,0,0.8-0.4,1.4-1L157.6,361.3z"/>
		<path fill="#FFFFFF" d="M167.8,378.3c0.4,0.4,0.6,0.8,1,1.2l1,1.2c0.6,0.6,1,0.8,1.2,0.6l1-0.8l0.6,0.6c-0.6,0.6-1.2,1-1.8,1.6
			c-0.6,0.6-1.2,1.2-1.6,1.6l-0.6-0.6l0.8-0.8c0.4-0.4,0.2-1-0.4-1.6l-1-1.2c-0.4-0.4-0.8-0.8-1.2-1l-4.1,3.9c0.6,0.8,1.2,1.4,2,2.2
			c0.8,0.8,2,1.8,2.2,1.8l1.8-1l0.6,0.6l-2.7,2.2h-0.2c-1.2-1-2.9-2.9-3.9-3.9c-0.6-0.8-1.2-1.4-1.8-2.2c-0.6-0.8-1.4-1.4-2-2
			l0.4-0.4l0.8,0.2c0.4,0.2,0.8,0,1.2-0.6l7-6.6c0.6-0.6,1-1,1.2-1.4c0-0.2,0-0.4-0.4-1l-0.6-0.6l0.6-0.6c1,1.2,1.8,2,2.3,2.5
			c1.4,1.6,2.5,2.5,3.5,3.5c0.8,1,1.6,1.6,2.2,2.3v0.2l-2.5,2l-0.6-0.6l1-1.2c0.2-0.2-0.8-1.4-1.6-2.2c-0.6-0.8-1.4-1.4-2-2
			L167.8,378.3z"/>
		<path fill="#FFFFFF" d="M177.4,388.1c0.4,0.4,0.8,0.8,1,1l1,1c0.6,0.6,1,0.8,1.2,0.6l1-0.8l0.6,0.6c-0.6,0.6-1.2,1-1.6,1.6
			c-0.6,0.6-1,1.2-1.6,1.8l-0.6-0.6l0.6-0.8c0.4-0.4,0.2-1-0.4-1.4l-1.2-1c-0.4-0.4-0.8-0.6-1.2-1l-3.9,4.1c0.6,0.6,1.4,1.4,2,2
			c0.8,0.8,2.2,1.8,2.2,1.6l1.8-1.2l0.6,0.6l-2.5,2.3H176c-1.2-1-2.9-2.7-4.1-3.7c-0.6-0.6-1.4-1.4-2-2c-0.8-0.6-1.4-1.2-2-1.8
			l0.4-0.4l0.8,0.2c0.4,0.2,0.8,0,1.2-0.6l6.6-7c0.6-0.6,1-1.2,1.2-1.4c0-0.2,0-0.4-0.4-1l-0.6-0.6l0.6-0.6c1,1,2,2,2.5,2.5
			c1.6,1.4,2.7,2.5,3.5,3.3c1,0.8,1.6,1.6,2.3,2.3v0.2l-2.3,2l-0.6-0.6l1-1.4c0.2-0.2-0.8-1.4-1.6-2.2c-0.8-0.6-1.4-1.4-2.2-2
			L177.4,388.1z"/>
		<path fill="#FFFFFF" d="M183,402.8c0.8,0.6,1.4,1.4,2.2,2c0.8,0.6,2.2,1.6,2.3,1.6l1.8-1.4l0.6,0.6l-2.5,2.5h-0.2
			c-1.2-0.8-3.1-2.5-4.3-3.5c-0.8-0.6-1.4-1.2-2.2-1.8c-0.8-0.6-1.4-1.2-2.2-1.8l0.4-0.4l0.8,0.2c0.4,0,0.8-0.2,1.2-0.6l6.3-7.4
			c0.6-0.8,1-1.2,1-1.4c0-0.2,0-0.4-0.6-0.8l-0.6-0.6l0.6-0.6c0.8,0.6,1.6,1.4,2.5,2.3c1,0.8,2,1.6,2.7,2.2l-0.6,0.6l-0.6-0.6
			c-0.4-0.4-0.8-0.4-1-0.4c-0.2,0.2-0.6,0.6-1.2,1.2L183,402.8z"/>
		<path fill="#FFFFFF" d="M206.3,404.1l1.4,1l-0.2,0.4l-6.6,2.2c-0.8,0.2-1.6,0.6-2.3,1l-2.2,2.7c-0.6,0.8-1,1.2-1,1.6
			c0,0.2,0.2,0.4,0.6,0.8l0.6,0.6l-0.6,0.8c-0.8-0.6-1.8-1.4-2.7-2.2c-1-0.8-2.2-1.6-2.7-2.2l0.6-0.8l0.8,0.4c0.6,0.4,0.8,0.4,1,0.4
			c0.2-0.2,0.6-0.6,1.2-1.4l1.8-2.3c0.2-1,0.2-1.6,0.4-2.2l0.4-4.1c0-0.6,0-1.4,0-2c0-0.8-0.4-1.2-1-1.6l0.4-0.6l3.3,1.6
			c0.6,1.4,0.4,2.5,0.2,3.9l-0.8,4.9L206.3,404.1z"/>
		<path fill="#FFFFFF" d="M223.1,415.3l1.4,1l-0.2,0.4l-6.5,2.7c-0.8,0.4-1.6,0.8-2.2,1.2l-2,2.9c-0.4,0.8-0.8,1.4-0.8,1.6
			s0.2,0.4,0.6,0.8l0.6,0.6l-0.4,0.8c-0.8-0.6-1.8-1.2-2.9-2c-1.2-0.8-2.2-1.4-2.9-1.8l0.4-0.8l0.8,0.4c0.6,0.2,0.8,0.4,1,0.2
			c0.2-0.2,0.6-0.6,1-1.4l1.6-2.5c0.2-1,0.2-1.6,0.2-2.2v-4.1c0-0.6-0.2-1.4-0.2-1.8c-0.2-0.8-0.4-1.2-1.2-1.6l0.4-0.6l3.5,1.2
			c0.8,1.2,0.6,2.5,0.6,3.9l-0.4,5.1L223.1,415.3z"/>
		<path fill="#FFFFFF" d="M226.4,424.5c0.4,0.2,0.8,0.6,1.4,0.8l1.4,0.8c0.8,0.4,1.2,0.6,1.4,0.2l0.8-1l0.8,0.4
			c-0.4,0.6-0.8,1.4-1.2,2c-0.4,0.6-0.8,1.4-1,2.2l-0.8-0.4l0.4-1c0.2-0.6,0-1-0.8-1.4l-1.4-0.8c-0.4-0.2-1-0.4-1.4-0.6l-2.7,5.1
			c0.8,0.4,1.6,1,2.5,1.4c1,0.6,2.5,1.2,2.5,1l1.4-1.6l0.8,0.4l-1.8,2.9l-0.2,0.2c-1.4-0.6-3.7-1.8-4.9-2.5c-0.8-0.4-1.6-1-2.3-1.4
			c-0.8-0.4-1.8-0.8-2.3-1.2l0.2-0.4h0.8c0.4,0,0.6-0.2,1-0.8l4.7-8.4c0.4-0.8,0.8-1.4,0.8-1.6c0-0.2-0.2-0.4-0.6-0.8l-0.8-0.4
			l0.4-0.8c1.4,0.8,2.3,1.4,3.1,1.8c2,1,3.1,1.8,4.3,2.3c1.2,0.6,2,1,2.9,1.6v0.2l-1.8,2.5l-0.8-0.4l0.6-1.6
			c0.2-0.4-1.2-1.2-2.2-1.6c-0.8-0.4-1.8-1-2.5-1.4L226.4,424.5z"/>
		<path fill="#FFFFFF" d="M242.5,428.6c0.4-0.8,0.6-1.4,0.6-1.8c0-0.2-0.2-0.4-0.8-0.8l-0.8-0.4l0.4-0.8c1.4,0.6,2.3,1.2,3.5,1.6
			c1.4,0.6,2.7,1.2,4.3,1.8c2.2,0.8,3.9,2.3,2.7,4.7c-0.8,1.8-2.5,2.3-4.5,2.2l1.4,7c0,0.2,0.2,0.6,0.4,0.8c0.2,0.2,0.4,0.4,0.8,0.6
			l-0.4,0.8c-0.6-0.4-1.4-0.6-2-1c-0.6-0.2-1.2-0.4-2-0.8l-1.8-8.8l0.4-0.4c1.8,1,3.7,0.4,4.5-1.4c0.8-1.6-0.2-2.9-1.8-3.7
			c-0.4-0.2-1-0.4-1.4-0.4l-4.1,9.8c-0.4,0.8-0.6,1.4-0.6,1.8c0,0.2,0.2,0.4,0.8,0.6l0.8,0.4l-0.4,0.8c-0.8-0.4-2-1-3.1-1.4
			c-1.2-0.6-2.3-1-3.3-1.4l0.4-0.8l0.8,0.2c0.6,0.2,0.8,0.2,1,0s0.4-0.8,0.8-1.6L242.5,428.6z"/>
		<path fill="#FFFFFF" d="M259.3,438.9c0.4,0.2,1,0.4,1.4,0.6l1.4,0.4c0.8,0.2,1.2,0.4,1.4,0l0.6-1.2l0.8,0.2
			c-0.2,0.8-0.6,1.4-0.8,2.2c-0.2,0.8-0.4,1.6-0.6,2.2l-0.8-0.2l0.2-1c0.2-0.6-0.2-1-1-1.2l-1.4-0.4c-0.4-0.2-1-0.4-1.4-0.4
			l-1.8,5.5c1,0.4,1.8,0.6,2.7,1c1,0.4,2.5,0.6,2.7,0.6l1.2-1.8l0.8,0.2l-1.4,3.1l-0.2,0.2c-1.4-0.4-3.9-1.2-5.3-1.8
			c-0.8-0.4-1.8-0.6-2.5-1c-1-0.4-1.8-0.6-2.5-0.8l0.2-0.4l0.8-0.2c0.4,0,0.6-0.4,0.8-1l3.1-9.2c0.2-0.8,0.4-1.4,0.4-1.8
			c0-0.2-0.2-0.4-0.8-0.6l-0.8-0.4l0.2-0.8c1.4,0.6,2.5,1,3.3,1.2c2,0.6,3.5,1.2,4.7,1.6c1.2,0.4,2.2,0.8,3.1,1.2v0.2l-1.4,2.7
			l-0.8-0.2l0.4-1.6c0-0.4-1.4-1-2.3-1.2c-1-0.4-1.8-0.6-2.7-0.8L259.3,438.9z"/>
		<path fill="#FFFFFF" d="M279.4,452.2c-1.8,0.6-3.5,0.4-5.3-0.2c-4.9-1.2-8-4.9-6.6-9.8c1.2-4.9,5.9-6.3,10.6-5.1
			c1.8,0.4,3.1,1,5.1,2.3v0.2c-0.4,0.8-1,2.2-1.4,3.1l-0.8-0.2l0.4-1.8c-0.8-1.4-2.2-2.2-3.5-2.3c-3.7-1-6.3,1.2-7,4.3
			c-1,3.9,0.6,7.2,4.7,8.2c1.4,0.4,3.1,0.4,4.5,0l0.2,0.4L279.4,452.2z"/>
		<path fill="#FFFFFF" d="M288.4,446.4c0.6,0.2,1,0.2,1.6,0.2l1.4,0.2c0.8,0.2,1.2,0.2,1.4-0.2l0.4-1.2l1,0.2
			c-0.2,0.8-0.4,1.6-0.4,2.3c-0.2,0.8-0.2,1.6-0.4,2.3l-1-0.2v-1.2c0-0.6-0.4-0.8-1.2-1l-1.4-0.2c-0.4,0-1-0.2-1.6-0.2l-1,5.7
			c1,0.2,2,0.4,2.7,0.6c1,0.2,2.7,0.2,2.7,0l0.8-2l0.8,0.2l-0.8,3.3l-0.2,0.2c-1.4-0.2-4.1-0.6-5.5-0.8c-1-0.2-1.8-0.4-2.7-0.6
			s-1.8-0.2-2.7-0.4v-0.4l0.8-0.2c0.4-0.2,0.6-0.4,0.6-1.2l1.6-9.6c0.2-1,0.2-1.6,0.2-1.8c0-0.2-0.2-0.4-0.8-0.6l-0.8-0.2l0.2-0.8
			c1.4,0.2,2.5,0.6,3.5,0.6c2.2,0.4,3.5,0.6,4.9,0.8c1.2,0.2,2.2,0.4,3.3,0.6l0.2,0.2l-0.8,2.9l-0.8-0.2v-1.6c0-0.4-1.4-0.6-2.5-0.8
			c-1-0.2-2-0.4-2.9-0.4L288.4,446.4z"/>
		<path fill="#FFFFFF" d="M301.3,453.4c0,1-0.2,1.6,0,1.8c0,0.2,0.4,0.4,1,0.4l0.8,0.2v0.8c-1-0.2-2.2-0.4-3.5-0.4
			c-1.4-0.2-2.5-0.2-3.5-0.4V455h0.8c0.6,0,0.8,0,1-0.2c0.2-0.2,0.2-0.8,0.4-1.8l1-8.8c0-1,0.2-1.6,0-1.8c0-0.2-0.4-0.4-1-0.4
			l-0.8-0.2v-0.8c1,0.2,2.2,0.4,3.5,0.4c1.4,0.2,2.5,0.2,3.5,0.4v0.8h-0.8c-0.6,0-0.8,0-1,0.2c-0.2,0.2-0.2,0.8-0.4,1.8L301.3,453.4
			z"/>
		<path fill="#FFFFFF" d="M314.6,453.8l3.5-7.4c0.4-1,0.8-1.8,0.8-2.2s-0.4-0.6-0.8-0.6l-1-0.2v-0.8c1.2,0,2,0.2,2.5,0.2
			c0.6,0,1.6,0,2.5,0v0.8h-0.8c-0.6,0-0.8,0.4-1.2,1l-5.1,10.6c-0.4,0.8-0.6,1.4-1,2.2h-1.8l-4.9-12.5c-0.2-0.6-0.6-1.6-1.4-1.6h-1
			v-0.8c1.6,0,2.5,0.2,3.5,0.2c0.8,0,2,0,3.7,0v0.8h-1.2c-0.4,0-0.6,0.2-0.6,0.4c0,0.4,0.2,1.2,0.4,1.6L314.6,453.8z"/>
		<path fill="#FFFFFF" d="M328.3,448.9c0.6,0,1,0,1.6,0h1.6c0.8,0,1.2,0,1.2-0.6v-1.2h1c0,0.8,0,1.6,0,2.3c0,0.8,0.2,1.6,0.2,2.3h-1
			l-0.2-1c0-0.6-0.6-0.8-1.4-0.8h-1.6c-0.6,0-1,0-1.6,0.2l0.2,5.7c1,0,2,0,2.9,0s2.7-0.4,2.7-0.6l0.4-2h0.8v3.3l-0.2,0.2
			c-1.4,0.2-4.1,0.2-5.5,0.4c-1,0-1.8,0-2.7,0c-1,0-2,0.2-2.7,0.2v-0.6l0.8-0.4c0.4-0.2,0.4-0.6,0.4-1.2l-0.4-9.6c0-1,0-1.6-0.2-1.8
			c-0.2-0.2-0.4-0.4-1-0.4h-0.8v-0.8c1.6,0,2.5,0,3.5,0c2.2,0,3.7-0.2,4.9-0.2c1.2,0,2.3-0.2,3.3,0l0.2,0.2l-0.2,3.1h-0.8l-0.2-1.6
			c0-0.4-1.6-0.4-2.5-0.4s-2,0.2-2.9,0.2L328.3,448.9z"/>
		<path fill="#FFFFFF" d="M338.5,445c-0.2-1-0.2-1.6-0.4-1.8c-0.2-0.2-0.4-0.2-1-0.2h-0.8l-0.2-0.8c1.6-0.2,2.5-0.2,3.5-0.4
			c1.4-0.2,3.7-0.6,5.7-0.8c4.9-0.6,7.8,1,8.4,5.7c0.6,5.1-3.5,8.6-8.2,9.2c-1.2,0.2-2.2,0.2-3.3,0.4c-1.2,0.2-2.2,0.4-3.3,0.6v-0.6
			l0.6-0.4c0.4-0.2,0.4-0.6,0.2-1.4L338.5,445z M343,455c0.6,0,1.4,0,2-0.2c4.5-0.6,6.3-2.9,5.7-7.2c-0.6-4.3-2.7-5.7-7.8-5.1
			c-0.4,0-1,0.2-1.4,0.2L343,455z"/>
		<path fill="#FFFFFF" d="M366.2,440.5c2-0.6,4.1,0.8,4.7,2.7c0.6,2-0.8,4.1-2.9,4.5c-2.2,0.6-4.1-0.8-4.7-2.7
			C362.9,443.2,364.3,441.1,366.2,440.5z"/>
		<path fill="#FFFFFF" d="M384.4,438.2c0.6-0.2,1-0.4,1.4-0.4l1.2-0.4c0.8-0.2,1.2-0.4,1-0.8l-0.2-1.2l0.8-0.4
			c0.2,0.6,0.4,1.4,0.6,2.2s0.6,1.4,0.8,2.2l-0.8,0.4l-0.6-1c-0.2-0.6-0.8-0.6-1.6-0.4l-1.2,0.4c-0.4,0.2-1,0.4-1.4,0.6l1.4,3.7
			c0.4,0.8,0.6,1.4,0.8,1.6s0.4,0.2,1,0l1-0.4l0.2,0.8c-1.2,0.4-2.3,0.8-3.5,1.2c-1.4,0.4-2.3,1-3.3,1.2l-0.2-0.8l0.8-0.4
			c0.6-0.2,0.8-0.4,0.8-0.6s-0.2-0.8-0.4-1.8l-2.5-7.8c-0.4-0.8-0.6-1.4-0.8-1.6c-0.2-0.2-0.4-0.2-1,0l-0.8,0.2l-0.2-0.8
			c1.4-0.4,2.5-0.8,3.3-1.2c1.6-0.6,3.1-1.2,4.3-1.6c1.2-0.4,2.2-0.8,3.1-1h0.2l0.8,2.9l-0.8,0.2l-0.8-1.6c-0.2-0.2-1.6,0.2-2.5,0.4
			c-0.6,0.2-1.6,0.6-2.3,1L384.4,438.2z"/>
		<path fill="#FFFFFF" d="M392,431.5c-0.4-0.8-0.6-1.4-0.8-1.6c-0.2-0.2-0.4-0.2-1,0l-0.8,0.2l-0.4-0.8c1.4-0.6,2.3-1,3.5-1.4
			c1.4-0.6,2.7-1.2,4.1-2c2.2-1,4.3-1.2,5.3,1.2c0.8,1.8,0,3.5-1.6,4.9l6.1,3.7c0.2,0.2,0.6,0.2,0.8,0.4c0.2,0,0.6,0,1,0l0.4,0.8
			c-0.6,0.2-1.4,0.6-2,0.8c-0.6,0.2-1.2,0.6-1.8,0.8l-7.6-4.9v-0.4c2-0.6,2.9-2.3,2.2-4.3c-0.8-1.6-2.3-2-3.9-1.4
			c-0.4,0.2-1,0.4-1.2,0.8l4.3,9.6c0.4,0.8,0.6,1.4,0.8,1.6c0.2,0.2,0.4,0.2,1,0l0.8-0.2l0.4,0.8c-0.8,0.4-2,0.8-3.1,1.4
			c-1.2,0.6-2.3,1.2-3.1,1.6l-0.4-0.8l0.8-0.4c0.6-0.2,0.8-0.4,0.8-0.6s-0.2-0.8-0.6-1.8L392,431.5z"/>
		<path fill="#FFFFFF" d="M411.2,426.4c0.4-0.2,1-0.4,1.4-0.6l1.4-0.8c0.8-0.4,1-0.6,1-1l-0.4-1.2l0.8-0.4c0.4,0.8,0.6,1.4,1,2.2
			c0.4,0.8,0.8,1.4,1.2,2l-0.8,0.4l-0.6-1c-0.4-0.6-0.8-0.4-1.6-0.2l-1.4,0.8c-0.4,0.2-0.8,0.4-1.4,0.8l2.7,5.1
			c0.8-0.4,1.8-0.8,2.5-1.4c1-0.4,2.3-1.4,2.3-1.6l-0.6-2l0.8-0.4l1.4,3.1v0.2c-1.2,0.8-3.5,2-4.9,2.7c-0.8,0.4-1.8,0.8-2.5,1.2
			c-0.8,0.4-1.6,1-2.3,1.4l-0.2-0.4l0.4-0.6c0.2-0.4,0.2-0.8-0.2-1.4l-4.5-8.6c-0.4-0.8-0.8-1.4-1-1.6c-0.2-0.2-0.4-0.2-1,0.2
			l-0.8,0.4l-0.4-0.8c1.4-0.6,2.3-1.2,3.1-1.6c2-1,3.1-1.8,4.3-2.3c1.2-0.6,2-1,2.9-1.6h0.2l1.2,2.9l-0.8,0.4l-1-1.4
			c-0.2-0.2-1.6,0.4-2.5,0.8c-0.8,0.4-1.8,1-2.5,1.4L411.2,426.4z"/>
		<path fill="#FFFFFF" d="M423.1,419.8c0.4-0.2,1-0.6,1.4-0.8l1.2-0.8c0.6-0.4,1-0.6,0.8-1l-0.6-1.2l0.8-0.4c0.4,0.6,0.8,1.4,1.2,2
			c0.4,0.6,0.8,1.4,1.4,2l-0.8,0.4l-0.6-0.8c-0.4-0.4-0.8-0.4-1.6,0l-1.2,0.8c-0.4,0.2-0.8,0.6-1.2,0.8l2.9,4.9
			c0.8-0.4,1.8-1,2.5-1.4c1-0.6,2.2-1.6,2.2-1.8l-0.6-2l0.8-0.4l1.6,3.1v0.2c-1.2,0.8-3.3,2.2-4.7,2.9c-0.8,0.4-1.6,1-2.3,1.4
			c-0.8,0.6-1.6,1-2.3,1.6l-0.2-0.4l0.4-0.8c0.2-0.4,0-0.8-0.2-1.4l-5.1-8.2c-0.4-0.8-0.8-1.2-1-1.4c-0.2-0.2-0.4-0.2-1,0.2
			l-0.8,0.4l-0.4-0.6c1.4-0.8,2.3-1.4,2.9-1.8c1.8-1.2,3.1-2,4.1-2.5c1-0.6,2-1.2,2.9-1.6h0.2l1.4,2.7l-0.8,0.4l-1-1.4
			c-0.2-0.2-1.6,0.4-2.3,1c-0.8,0.6-1.6,1-2.3,1.6L423.1,419.8z"/>
		<path fill="#FFFFFF" d="M438.6,418c0.8-0.6,1.6-1,2.3-1.6c0.8-0.6,2.2-1.8,2-2l-0.8-2.2l0.8-0.6l1.8,3.1v0.2
			c-1.2,1-3.3,2.3-4.5,3.3c-0.8,0.6-1.6,1-2.3,1.6c-0.8,0.6-1.6,1.2-2.2,1.6l-0.2-0.4l0.4-0.8c0.2-0.4,0-0.8-0.4-1.2l-5.5-8
			c-0.6-0.8-0.8-1.2-1.2-1.4c-0.2,0-0.4,0-1,0.2l-0.6,0.6l-0.6-0.8c0.8-0.6,1.8-1.2,2.9-2c1.2-0.8,2.2-1.6,2.7-2.2l0.6,0.8l-0.6,0.6
			c-0.4,0.4-0.6,0.6-0.6,0.8s0.4,0.8,0.8,1.6L438.6,418z"/>
		<path fill="#FFFFFF" d="M445.8,395.7l1.4-1l0.2,0.4l0.4,6.8c0,0.8,0.2,1.6,0.4,2.3l2.2,2.7c0.6,0.8,1,1.2,1.2,1.4
			c0.2,0,0.4,0,1-0.4l0.8-0.4l0.6,0.6c-0.8,0.6-1.8,1.4-2.7,2.2c-1,0.8-2,1.6-2.7,2.2l-0.6-0.6l0.6-0.6c0.4-0.4,0.6-0.6,0.6-0.8
			c0-0.2-0.4-0.8-1-1.6l-1.8-2.3c-1-0.4-1.4-0.6-2-0.8l-3.9-1.4c-0.6-0.2-1.2-0.4-1.8-0.4c-0.8-0.2-1.2,0-1.8,0.6l-0.6-0.6l2.3-2.7
			c1.4-0.2,2.5,0.2,3.9,0.8l4.7,2L445.8,395.7z"/>
		<path fill="#FFFFFF" d="M472.6,390.1c-1,2-2.2,3.9-3.9,5.5c-3.7,3.5-8.4,4.1-11.9,0.4c-3.3-3.5-2-8.2,1.4-11.5
			c1.6-1.4,3.1-2.7,5.3-3.5h0.2c0.4,0.8,1.4,2,2,2.7l-0.6,0.6l-1.4-1.4c-1.4-0.2-3.1,1-4.5,2.2c-2.7,2.5-2.3,5.9,0,8.2
			c2.5,2.7,6.3,3.7,9.2,1c0.8-0.6,1.2-1.4,1.8-2.3l-2-2.2c-0.4-0.4-1-0.2-1.6,0.4l-1,0.8l-0.6-0.6c0.8-0.8,1.6-1.6,2.5-2.2
			c0.8-0.8,1.6-1.6,2.3-2.3l0.6,0.6c-0.4,0.6-0.6,0.8-0.2,1.2L472.6,390.1z"/>
		<path fill="#FFFFFF" d="M477.1,382.4c0.6,0.6,1.2,1,1.4,1.2c0.2,0,0.4,0,0.8-0.4l0.6-0.6l0.6,0.6c-0.6,0.6-1.6,1.6-2.5,2.5
			c-1,1-1.8,2-2.3,2.5l-0.6-0.6l0.6-0.6c0.4-0.4,0.4-0.8,0.4-0.8c0-0.2-0.6-0.8-1.2-1.4l-6.5-6.1c-0.6-0.6-1.2-1-1.4-1.2
			c-0.2,0-0.4,0-0.8,0.4l-0.6,0.6l-0.6-0.6c0.6-0.6,1.6-1.6,2.5-2.5s1.8-2,2.3-2.5l0.6,0.6l-0.6,0.6c-0.4,0.4-0.4,0.8-0.4,0.8
			c0,0.2,0.6,0.8,1.2,1.4L477.1,382.4z"/>
		<path fill="#FFFFFF" d="M485.3,372.3l-3.7-7.4c-0.4-1-0.8-1.6-1.2-2c-0.4-0.2-0.6,0-1,0.2l-0.8,0.8l-0.6-0.6
			c0.8-0.8,1.4-1.4,1.8-2c0.4-0.6,1-1.2,1.6-2l0.6,0.6l-0.4,0.6c-0.2,0.4-0.2,0.8,0,1.4l5.1,10.6c0.4,0.8,0.8,1.4,1,2l-1.2,1.4
			l-12.9-3.9c-0.6-0.2-1.6-0.6-2.2,0l-0.6,0.6l-0.6-0.6c1-1.2,1.8-2,2.3-2.5c0.6-0.6,1.4-1.6,2.3-2.9l0.6,0.6l-0.6,1
			c-0.2,0.2-0.2,0.6,0,0.8c0.4,0.2,1,0.6,1.6,0.6L485.3,372.3z"/>
		<path fill="#FFFFFF" d="M490.4,358.6c0.4-0.4,0.6-0.8,1-1.2l1-1.2c0.4-0.6,0.8-1,0.4-1.4l-1-0.8l0.6-0.8c0.6,0.4,1.2,1,1.8,1.4
			s1.2,1,2,1.4l-0.6,0.8l-1-0.6c-0.6-0.4-1,0-1.4,0.6l-1,1.2c-0.4,0.4-0.6,0.8-0.8,1.2l4.5,3.5c0.6-0.8,1.2-1.6,1.8-2.3
			c0.6-0.8,1.6-2.3,1.4-2.3l-1.4-1.6l0.6-0.8l2.5,2.3v0.2c-0.8,1.2-2.3,3.3-3.3,4.5c-0.6,0.8-1.2,1.4-1.8,2.2
			c-0.6,0.8-1.2,1.6-1.6,2.2l-0.4-0.4l0.2-0.8c0-0.4-0.2-0.8-0.8-1.2l-7.6-5.9c-0.8-0.6-1.2-1-1.6-1c-0.2,0-0.4,0-0.8,0.6l-0.6,0.6
			l-0.6-0.4c1-1.2,1.6-2,2.2-2.7c1.4-1.8,2.2-2.9,2.9-3.9c0.8-1,1.4-1.8,2-2.5h0.2l2.2,2.2l-0.6,0.6l-1.4-0.8c-0.2-0.2-1.2,1-2,1.8
			c-0.6,0.8-1.2,1.6-1.8,2.3L490.4,358.6z"/>
	</g>
</g>
</svg>
