<?xml version="1.0" encoding="utf-8"?>
<!-- Generator: Adobe Illustrator 17.1.0, SVG Export Plug-In . SVG Version: 6.00 Build 0)  -->
<!DOCTYPE svg PUBLIC "-//W3C//DTD SVG 1.1//EN" "http://www.w3.org/Graphics/SVG/1.1/DTD/svg11.dtd">
<svg version="1.1" id="Layer_1" xmlns="http://www.w3.org/2000/svg" xmlns:xlink="http://www.w3.org/1999/xlink" x="0px" y="0px"
	 viewBox="0 0 723 723" enable-background="new 0 0 723 723" xml:space="preserve">
<path fill="#FFFFFF" d="M712.9,10v702.9H10V10H712.9 M722.9,0H0v722.9h722.9V0L722.9,0z M231.4,296.4c0-114.5,0-135.6-1.5-159.8
	c-1.5-25.6-7.5-37.7-32.4-43c-6-1.5-18.8-2.3-29.4-2.3c-8.3,0-12.8-1.5-12.8-6.8s5.3-6.8,16.6-6.8c39.9,0,87.4,2.3,108.5,2.3
	c30.9,0,74.6-2.3,109.3-2.3c94.2,0,128.1,31.7,140.2,43c16.6,15.8,37.7,49.7,37.7,89.7c0,107-78.4,182.4-185.4,182.4
	c-3.8,0-12.1,0-15.8-0.8c-3.8-0.8-9-1.5-9-6.8c0-6,5.3-8.3,21.1-8.3c42.2,0,101-47.5,101-124.3c0-24.9-2.3-75.4-44.5-113
	c-27.1-24.9-58-29.4-75.4-29.4c-11.3,0-22.6,0.8-29.4,3c-3.8,1.5-6,6-6,14.3V429c0,69.3,0,128.9,3.8,161.3
	c2.3,21.1,6.8,37.7,29.4,40.7c10.6,1.5,27.1,3,38.4,3c8.3,0,12.1,2.3,12.1,6c0,5.3-6,7.5-14.3,7.5c-49.7,0-97.2-2.3-116.8-2.3
	c-17.3,0-64.8,2.3-95,2.3c-9.8,0-15.1-2.3-15.1-7.5c0-3.8,3-6,12.1-6c11.3,0,20.3-1.5,27.1-3c15.1-3,18.8-19.6,21.9-41.4
	c3.8-31.7,3.8-91.2,3.8-160.5V296.4z"/>
</svg>
